<svg xmlns="http://www.w3.org/2000/svg" viewBox="0 0 500 500"><g id="background-complete"><rect y="382.4" width="500" height="0.25" style="fill:#ebebeb"></rect><rect x="52.46" y="391.92" width="25.54" height="0.25" style="fill:#ebebeb"></rect><rect x="154.06" y="389.21" width="109.94" height="0.25" style="fill:#ebebeb"></rect><rect x="97.33" y="395.18" width="72.67" height="0.25" style="fill:#ebebeb"></rect><rect x="353.66" y="399.53" width="96.25" height="0.25" style="fill:#ebebeb"></rect><rect x="338.42" y="399.53" width="6.33" height="0.25" style="fill:#ebebeb"></rect><rect x="301.22" y="395.31" width="69.67" height="0.25" style="fill:#ebebeb"></rect><path d="M237,337.8H43.91a5.71,5.71,0,0,1-5.7-5.71V60.66A5.71,5.71,0,0,1,43.91,55H237a5.71,5.71,0,0,1,5.71,5.71V332.09A5.71,5.71,0,0,1,237,337.8ZM43.91,55.2a5.46,5.46,0,0,0-5.45,5.46V332.09a5.46,5.46,0,0,0,5.45,5.46H237a5.47,5.47,0,0,0,5.46-5.46V60.66A5.47,5.47,0,0,0,237,55.2Z" style="fill:#ebebeb"></path><path d="M453.31,337.8H260.21a5.72,5.72,0,0,1-5.71-5.71V60.66A5.72,5.72,0,0,1,260.21,55h193.1A5.71,5.71,0,0,1,459,60.66V332.09A5.71,5.71,0,0,1,453.31,337.8ZM260.21,55.2a5.47,5.47,0,0,0-5.46,5.46V332.09a5.47,5.47,0,0,0,5.46,5.46h193.1a5.47,5.47,0,0,0,5.46-5.46V60.66a5.47,5.47,0,0,0-5.46-5.46Z" style="fill:#ebebeb"></path><rect x="66.4" y="327.67" width="101" height="54.73" style="fill:#e0e0e0"></rect><rect x="105.4" y="327.67" width="55" height="37" style="fill:#e6e6e6"></rect><polygon points="138.37 327.67 129.81 327.67 115.62 364.67 124.18 364.67 138.37 327.67" style="fill:#ebebeb"></polygon><polygon points="145.28 327.67 140.16 327.67 125.97 364.67 131.1 364.67 145.28 327.67" style="fill:#ebebeb"></polygon><rect x="77.56" y="343.17" width="20.67" height="39.23" transform="translate(175.8 725.57) rotate(180)" style="fill:#e6e6e6"></rect><rect x="66.4" y="318.67" width="101" height="9" style="fill:#f0f0f0"></rect><rect x="69.84" y="102.28" width="94.11" height="216.38" style="fill:#ebebeb"></rect><rect x="66.4" y="98.44" width="101" height="9" style="fill:#e0e0e0"></rect><rect x="89.86" y="127.34" width="18.23" height="31" style="fill:#e0e0e0"></rect><rect x="88.64" y="141.09" width="20.67" height="3.5" style="fill:#ebebeb"></rect><rect x="125.63" y="127.34" width="18.23" height="31" style="fill:#e0e0e0"></rect><rect x="124.42" y="141.09" width="20.67" height="3.5" style="fill:#ebebeb"></rect><rect x="89.86" y="174.45" width="18.23" height="31" style="fill:#e0e0e0"></rect><rect x="88.64" y="188.2" width="20.67" height="3.5" style="fill:#ebebeb"></rect><rect x="125.63" y="174.45" width="18.23" height="31" style="fill:#e0e0e0"></rect><rect x="124.42" y="188.2" width="20.67" height="3.5" style="fill:#ebebeb"></rect><rect x="89.86" y="221.56" width="18.23" height="31" style="fill:#e0e0e0"></rect><rect x="88.64" y="235.31" width="20.67" height="3.5" style="fill:#ebebeb"></rect><rect x="125.63" y="221.56" width="18.23" height="31" style="fill:#e0e0e0"></rect><rect x="124.42" y="235.31" width="20.67" height="3.5" style="fill:#ebebeb"></rect><rect x="89.86" y="268.67" width="18.23" height="31" style="fill:#e0e0e0"></rect><rect x="88.64" y="282.42" width="20.67" height="3.5" style="fill:#ebebeb"></rect><rect x="125.63" y="268.67" width="18.23" height="31" style="fill:#e0e0e0"></rect><rect x="124.42" y="282.42" width="20.67" height="3.5" style="fill:#ebebeb"></rect><rect x="312.56" y="327.67" width="121.04" height="54.73" style="fill:#fafafa"></rect><rect x="359.3" y="332.83" width="26.99" height="31.83" style="fill:#f0f0f0"></rect><rect x="391.83" y="332.83" width="26.99" height="31.83" style="fill:#f0f0f0"></rect><rect x="328.88" y="343.17" width="20.67" height="39.23" transform="translate(678.43 725.57) rotate(180)" style="fill:#f0f0f0"></rect><rect x="312.56" y="318.67" width="121.04" height="9" style="fill:#f0f0f0"></rect><rect x="316.69" y="155.62" width="112.79" height="163.05" style="fill:#ebebeb"></rect><path d="M365,123.16h0a13.81,13.81,0,0,1-13.81-13.81v-23a1.47,1.47,0,0,1,1.47-1.47h24.68a1.47,1.47,0,0,1,1.47,1.47v23A13.81,13.81,0,0,1,365,123.16Z" style="fill:#ebebeb"></path><polygon points="364.99 77.07 345.71 86.74 384.26 86.74 364.99 77.07" style="fill:#ebebeb"></polygon><rect x="364.41" y="107.57" width="1.16" height="42.03" style="fill:#ebebeb"></rect><polygon points="347.36 149.6 346.2 149.6 354.6 107.57 355.76 107.57 347.36 149.6" style="fill:#ebebeb"></polygon><polygon points="382.61 149.6 383.77 149.6 375.38 107.57 374.21 107.57 382.61 149.6" style="fill:#ebebeb"></polygon><rect x="349.34" y="135.35" width="31.29" height="2" style="fill:#ebebeb"></rect><rect x="316.69" y="146.67" width="112.79" height="13.89" style="fill:#e0e0e0"></rect><rect x="315.05" y="159.44" width="116.06" height="4.67" style="fill:#e0e0e0"></rect><rect x="316.69" y="144.59" width="3.04" height="10" style="fill:#e0e0e0"></rect><rect x="325.13" y="144.59" width="3.04" height="10" style="fill:#e0e0e0"></rect><rect x="333.57" y="144.59" width="3.04" height="10" style="fill:#e0e0e0"></rect><rect x="342.01" y="144.59" width="3.04" height="10" style="fill:#e0e0e0"></rect><rect x="350.45" y="144.59" width="3.04" height="10" style="fill:#e0e0e0"></rect><rect x="358.9" y="144.59" width="3.04" height="10" style="fill:#e0e0e0"></rect><rect x="367.34" y="144.59" width="3.04" height="10" style="fill:#e0e0e0"></rect><rect x="375.78" y="144.59" width="3.04" height="10" style="fill:#e0e0e0"></rect><rect x="384.22" y="144.59" width="3.04" height="10" style="fill:#e0e0e0"></rect><rect x="392.66" y="144.59" width="3.04" height="10" style="fill:#e0e0e0"></rect><rect x="401.11" y="144.59" width="3.04" height="10" style="fill:#e0e0e0"></rect><rect x="409.55" y="144.59" width="3.04" height="10" style="fill:#e0e0e0"></rect><rect x="417.99" y="144.59" width="3.04" height="10" style="fill:#e0e0e0"></rect><rect x="426.43" y="144.59" width="3.04" height="10" style="fill:#e0e0e0"></rect><rect x="340.67" y="174.45" width="21.85" height="31" style="fill:#e0e0e0"></rect><rect x="339.21" y="188.2" width="24.77" height="3.5" style="fill:#ebebeb"></rect><rect x="383.55" y="174.45" width="21.85" height="31" style="fill:#e0e0e0"></rect><rect x="382.09" y="188.2" width="24.77" height="3.5" style="fill:#ebebeb"></rect><rect x="340.67" y="221.56" width="21.85" height="31" style="fill:#e0e0e0"></rect><rect x="339.21" y="235.31" width="24.77" height="3.5" style="fill:#ebebeb"></rect><rect x="383.55" y="221.56" width="21.85" height="31" style="fill:#e0e0e0"></rect><rect x="382.09" y="235.31" width="24.77" height="3.5" style="fill:#ebebeb"></rect><rect x="340.67" y="268.67" width="21.85" height="31" style="fill:#e0e0e0"></rect><rect x="339.21" y="282.42" width="24.77" height="3.5" style="fill:#ebebeb"></rect><rect x="383.55" y="268.67" width="21.85" height="31" style="fill:#e0e0e0"></rect><rect x="382.09" y="282.42" width="24.77" height="3.5" style="fill:#ebebeb"></rect><rect x="170.3" y="327.67" width="135.76" height="54.73" transform="translate(476.37 710.07) rotate(180)" style="fill:#f0f0f0"></rect><rect x="177.3" y="327.67" width="89.76" height="37" transform="translate(444.37 692.33) rotate(180)" style="fill:#e6e6e6"></rect><polygon points="215.16 327.67 206.61 327.67 192.42 364.67 200.97 364.67 215.16 327.67" style="fill:#ebebeb"></polygon><polygon points="222.08 327.67 216.96 327.67 202.77 364.67 207.89 364.67 222.08 327.67" style="fill:#ebebeb"></polygon><rect x="274.23" y="343.17" width="20.67" height="39.23" style="fill:#e6e6e6"></rect><rect x="173.75" y="112.84" width="128.87" height="205.83" transform="translate(476.37 431.5) rotate(180)" style="fill:#f5f5f5"></rect><rect x="167.4" y="309" width="141.57" height="24.67" transform="translate(476.37 642.67) rotate(180)" style="fill:#e0e0e0"></rect><rect x="170.3" y="117.33" width="135.76" height="3.83" transform="translate(476.37 238.5) rotate(180)" style="fill:#e0e0e0"></rect><rect x="170.3" y="111.42" width="135.76" height="3.83" transform="translate(476.37 226.67) rotate(180)" style="fill:#e0e0e0"></rect><rect x="264.38" y="127.34" width="18.23" height="31" transform="translate(546.98 285.68) rotate(180)" style="fill:#ebebeb"></rect><rect x="263.16" y="141.09" width="20.67" height="3.5" transform="translate(546.98 285.68) rotate(180)" style="fill:#f5f5f5"></rect><rect x="193.84" y="127.34" width="18.23" height="31" transform="translate(405.91 285.68) rotate(180)" style="fill:#ebebeb"></rect><rect x="192.62" y="141.09" width="20.67" height="3.5" transform="translate(405.91 285.68) rotate(180)" style="fill:#f5f5f5"></rect><rect x="264.38" y="174.45" width="18.23" height="31" transform="translate(546.98 379.9) rotate(180)" style="fill:#ebebeb"></rect><rect x="263.16" y="188.2" width="20.67" height="3.5" transform="translate(546.98 379.9) rotate(180)" style="fill:#f5f5f5"></rect><rect x="193.84" y="174.45" width="18.23" height="31" transform="translate(405.91 379.9) rotate(180)" style="fill:#ebebeb"></rect><rect x="192.62" y="188.2" width="20.67" height="3.5" transform="translate(405.91 379.9) rotate(180)" style="fill:#f5f5f5"></rect><rect x="264.38" y="221.56" width="18.23" height="31" transform="translate(546.98 474.12) rotate(180)" style="fill:#ebebeb"></rect><rect x="263.16" y="235.31" width="20.67" height="3.5" transform="translate(546.98 474.12) rotate(180)" style="fill:#f5f5f5"></rect><rect x="193.84" y="221.56" width="18.23" height="31" transform="translate(405.91 474.12) rotate(180)" style="fill:#ebebeb"></rect><rect x="192.62" y="235.31" width="20.67" height="3.5" transform="translate(405.91 474.12) rotate(180)" style="fill:#f5f5f5"></rect><rect x="264.38" y="268.67" width="18.23" height="31" transform="translate(546.98 568.34) rotate(180)" style="fill:#ebebeb"></rect><rect x="263.16" y="282.42" width="20.67" height="3.5" transform="translate(546.98 568.34) rotate(180)" style="fill:#f5f5f5"></rect><rect x="229.07" y="127.34" width="18.23" height="31" transform="translate(476.37 285.68) rotate(180)" style="fill:#ebebeb"></rect><rect x="227.85" y="141.09" width="20.67" height="3.5" transform="translate(476.37 285.68) rotate(180)" style="fill:#f5f5f5"></rect><rect x="229.07" y="174.45" width="18.23" height="31" transform="translate(476.37 379.9) rotate(180)" style="fill:#ebebeb"></rect><rect x="227.85" y="188.2" width="20.67" height="3.5" transform="translate(476.37 379.9) rotate(180)" style="fill:#f5f5f5"></rect><rect x="229.07" y="221.56" width="18.23" height="31" transform="translate(476.37 474.12) rotate(180)" style="fill:#ebebeb"></rect><rect x="227.85" y="235.31" width="20.67" height="3.5" transform="translate(476.37 474.12) rotate(180)" style="fill:#f5f5f5"></rect><rect x="229.07" y="268.67" width="18.23" height="31" transform="translate(476.37 568.34) rotate(180)" style="fill:#ebebeb"></rect><rect x="227.85" y="282.42" width="20.67" height="3.5" transform="translate(476.37 568.34) rotate(180)" style="fill:#f5f5f5"></rect><rect x="193.84" y="268.67" width="18.23" height="31" transform="translate(405.91 568.34) rotate(180)" style="fill:#ebebeb"></rect><rect x="192.62" y="282.42" width="20.67" height="3.5" transform="translate(405.91 568.34) rotate(180)" style="fill:#f5f5f5"></rect></g><g id="background-simple"><g style="opacity:0.9"><path d="M376.92,352.47c84.19-51.89,6.39-151.72-61.2-178.16-26.85-10.5-41.4-9.59-60.22-30.56-13.67-15.23-10.25-37.21-27-51.74-36.8-31.85-105.71-24.21-137.73-.07-33.22,25-46.23,62.75-20.89,92.49,18.54,21.77,51.26,25,61.91,38,21.9,26.72,8.55,42.51,13.15,69.73C161.8,392.1,300.47,399.6,376.92,352.47Z" style="fill:#407BFF"></path></g><g style="opacity:0.9"><path d="M376.92,352.47c84.19-51.89,6.39-151.72-61.2-178.16-26.85-10.5-41.4-9.59-60.22-30.56-13.67-15.23-10.25-37.21-27-51.74-36.8-31.85-105.71-24.21-137.73-.07-33.22,25-46.23,62.75-20.89,92.49,18.54,21.77,51.26,25,61.91,38,21.9,26.72,8.55,42.51,13.15,69.73C161.8,392.1,300.47,399.6,376.92,352.47Z" style="fill:#fff"></path></g></g><g id="Shadow"><ellipse id="path" cx="250" cy="416.24" rx="193.89" ry="11.32" style="fill:#f5f5f5"></ellipse></g><g id="Hydrant"><circle cx="367.98" cy="328.83" r="20.4" transform="translate(-97.82 165.85) rotate(-22.5)" style="fill:#407BFF"></circle><path d="M388.38,328.82a20.4,20.4,0,1,1-34.92-14.31c2.34,5.61,10.26,9.73,19.68,9.73a27.53,27.53,0,0,0,13.64-3.36A20.39,20.39,0,0,1,388.38,328.82Z" style="opacity:0.2"></path><circle cx="367.98" cy="308.43" r="3.16" style="fill:#407BFF"></circle><path d="M344.71,406.46h46.56a3.12,3.12,0,0,1,3.12,3.12v2a0,0,0,0,1,0,0h-52.8a0,0,0,0,1,0,0v-2A3.12,3.12,0,0,1,344.71,406.46Z" style="fill:#407BFF"></path><rect x="346.25" y="328.83" width="43.46" height="77.64" style="fill:#407BFF"></rect><path d="M347,401.78h41.89A3.12,3.12,0,0,1,392,404.9v1.57a0,0,0,0,1,0,0H343.92a0,0,0,0,1,0,0V404.9A3.12,3.12,0,0,1,347,401.78Z" style="fill:#407BFF"></path><path d="M347,401.78h41.89A3.12,3.12,0,0,1,392,404.9v1.57a0,0,0,0,1,0,0H343.92a0,0,0,0,1,0,0V404.9A3.12,3.12,0,0,1,347,401.78Z" style="opacity:0.2"></path><rect x="346.25" y="328.82" width="43.46" height="4" style="opacity:0.2"></rect><path d="M350.5,395.28v-58a2,2,0,0,1,2-2h0a2,2,0,0,1,2,2v58a2,2,0,0,1-2,2h0A2,2,0,0,1,350.5,395.28Z" style="opacity:0.2"></path><path d="M360.82,395.28v-58a2,2,0,0,1,2-2h0a2,2,0,0,1,2,2v58a2,2,0,0,1-2,2h0A2,2,0,0,1,360.82,395.28Z" style="opacity:0.2"></path><path d="M371.14,395.28v-58a2,2,0,0,1,2-2h0a2,2,0,0,1,2,2v58a2,2,0,0,1-2,2h0A2,2,0,0,1,371.14,395.28Z" style="opacity:0.2"></path><path d="M381.46,395.28v-58a2,2,0,0,1,2-2h0a2,2,0,0,1,2,2v58a2,2,0,0,1-2,2h0A2,2,0,0,1,381.46,395.28Z" style="opacity:0.2"></path><path d="M389.38,331.49H346.59a2.68,2.68,0,0,1-2.67-2.67h0a2.67,2.67,0,0,1,2.67-2.66h42.79a2.67,2.67,0,0,1,2.67,2.66h0A2.68,2.68,0,0,1,389.38,331.49Z" style="fill:#407BFF"></path><circle cx="367.98" cy="353.87" r="11.68" transform="translate(-60.97 630.71) rotate(-76.72)" style="opacity:0.2"></circle><circle cx="367.98" cy="352.46" r="11.68" transform="translate(-141.45 363.44) rotate(-45)" style="fill:#407BFF"></circle><circle cx="367.98" cy="353.51" r="7.16" style="opacity:0.2"></circle><circle cx="367.98" cy="352.46" r="7.16" style="fill:#407BFF"></circle><rect x="340.1" y="345.3" width="6.15" height="14.19" style="fill:#407BFF"></rect><rect x="340.1" y="345.3" width="6.15" height="14.19" style="opacity:0.2"></rect><path d="M343.83,364h0a5,5,0,0,1-5-5V345.75a5,5,0,0,1,5-5h0Z" style="fill:#407BFF"></path><path d="M339.47,359.49h0a5,5,0,0,1-5-5v-4.23a5,5,0,0,1,5-5h0Z" style="fill:#407BFF"></path><rect x="389.72" y="345.3" width="6.15" height="14.19" transform="translate(785.59 704.79) rotate(180)" style="fill:#407BFF"></rect><rect x="389.72" y="345.3" width="6.15" height="14.19" transform="translate(785.59 704.79) rotate(180)" style="opacity:0.2"></rect><path d="M392.14,364h0a5,5,0,0,0,5-5V345.75a5,5,0,0,0-5-5h0Z" style="fill:#407BFF"></path><path d="M396.5,359.49h0a5,5,0,0,0,5-5v-4.23a5,5,0,0,0-5-5h0Z" style="fill:#407BFF"></path></g><g id="Lights"><rect x="151.11" y="199.83" width="11.33" height="5.84" style="fill:#407BFF"></rect><rect x="151.11" y="199.83" width="11.33" height="5.84" style="opacity:0.2"></rect><rect x="159.22" y="76.78" width="6.44" height="334.84" style="fill:#407BFF"></rect><rect x="159.22" y="76.78" width="6.44" height="18" style="opacity:0.2"></rect><rect x="104.44" y="62.22" width="116" height="29.11" transform="translate(-1.53 3.32) rotate(-1.16)" style="fill:#407BFF"></rect><rect x="149.88" y="20.78" width="25.11" height="112" transform="translate(235.9 -87.19) rotate(88.84)" style="fill:#fff"></rect><rect x="102.78" y="111.94" width="51.55" height="113.73" rx="12" style="fill:#407BFF"></rect><polygon points="128.56 153.34 102.78 166.74 102.78 140.97 128.56 127.57 128.56 153.34" style="opacity:0.2"></polygon><polygon points="128.56 181.69 102.78 195.08 102.78 169.31 128.56 155.92 128.56 181.69" style="opacity:0.2"></polygon><path d="M102.78,197.66v16a11.93,11.93,0,0,0,3.18,8.11L128.55,210V184.27Z" style="opacity:0.2"></path><circle cx="128.55" cy="140.46" r="12.89" style="fill:#fff"></circle><circle cx="128.55" cy="168.81" r="12.89" transform="translate(-58.66 268.66) rotate(-80.78)" style="fill:#263238"></circle><circle cx="128.55" cy="197.15" r="12.89" style="fill:#263238"></circle></g><g id="Character"><path d="M271.35,154.88l.56.5.42.39.77.76c.5.5.95,1,1.41,1.52.89,1,1.71,2.09,2.49,3.18a40.52,40.52,0,0,1,4,7.05,36.56,36.56,0,0,1,3,16.09,31.27,31.27,0,0,1-1.39,8c-.37,1.23-.79,2.41-1.23,3.55s-.94,2.25-1.45,3.32a65.61,65.61,0,0,1-3.36,6.2,57.52,57.52,0,0,1-4,5.78l-7.09-3.54c.89-4.17,2-8.4,2.75-12.42.22-1,.38-2,.54-3l.23-1.44.17-1.4a28.7,28.7,0,0,0,.07-5.06,25.57,25.57,0,0,0-2.74-9.49,32.17,32.17,0,0,0-2.66-4.36c-.5-.7-1-1.38-1.57-2l-.81-.93-.38-.43-.18-.18s-.14-.14,0-.06Z" style="fill:#407BFF"></path><path d="M271.35,154.88l.56.5.42.39.77.76c.5.5.95,1,1.41,1.52.89,1,1.71,2.09,2.49,3.18a40.52,40.52,0,0,1,4,7.05,36.56,36.56,0,0,1,3,16.09,31.27,31.27,0,0,1-1.39,8c-.37,1.23-.79,2.41-1.23,3.55s-.94,2.25-1.45,3.32a65.61,65.61,0,0,1-3.36,6.2,57.52,57.52,0,0,1-4,5.78l-7.09-3.54c.89-4.17,2-8.4,2.75-12.42.22-1,.38-2,.54-3l.23-1.44.17-1.4a28.7,28.7,0,0,0,.07-5.06,25.57,25.57,0,0,0-2.74-9.49,32.17,32.17,0,0,0-2.66-4.36c-.5-.7-1-1.38-1.57-2l-.81-.93-.38-.43-.18-.18s-.14-.14,0-.06Z" style="opacity:0.2"></path><path d="M241.15,199.65c-2.35,11.81-9.28,13.57-17.09,12s-13.53-5.85-11.18-17.66,11.9-26.65,19.71-25.09S243.51,187.85,241.15,199.65Z" style="fill:#263238"></path><path d="M269.25,152.37s8.87,22.7.45,65H229.49c-.28-6.17,3.6-36.28-2.35-65.36a105.49,105.49,0,0,1,13.46-1.7,147.53,147.53,0,0,1,17.09,0A74.79,74.79,0,0,1,269.25,152.37Z" style="fill:#fff"></path><path d="M242.29,131c1.08,5.5,2.15,15.58-1.69,19.25,0,0,4.12,3.89,12.42,5.58,5.59-3.08,4.67-5.58,4.67-5.58-6.14-1.46-6-6-4.91-10.29Z" style="fill:#ffb573"></path><path d="M246.57,134.69l6.21,5.3a17.2,17.2,0,0,0-.53,3c-2,1.9-5.56-2.91-5.81-5.36A8.31,8.31,0,0,1,246.57,134.69Z" style="opacity:0.2"></path><path d="M252.42,115.21s7.13-1,8.34-1.08,2.41,4.17,2.25,5.56-2.06,2-2,3.33c.06,1.13,1.18,2.25,1.65,2.82-.77.6-5.38,1.21-5.38,1.21l-1.58-3S247.67,118.42,252.42,115.21Z" style="fill:#263238"></path><path d="M258,148.6h0a.24.24,0,0,1-.19-.29,6.38,6.38,0,0,0,0-2.39c-.18-1.39-.35-2.59,2-5.07,3.61-3.9,1.79-9.1,1.77-9.15a.24.24,0,0,1,.14-.32.24.24,0,0,1,.32.14,9.89,9.89,0,0,1-1.87,9.67c-2.14,2.31-2,3.35-1.82,4.66a7.09,7.09,0,0,1,0,2.56A.26.26,0,0,1,258,148.6Z" style="fill:#263238"></path><path d="M241.63,122.76c.46,7.45.35,11.83,4.11,15.65,5.66,5.75,14.85,2.34,16.63-5.09,1.6-6.7.58-17.75-6.71-20.71A10.18,10.18,0,0,0,241.63,122.76Z" style="fill:#ffb573"></path><path d="M236.64,117.13s7.13-1,8.33-1.09,2.42,4.18,2.25,5.57-2.05,2-2,3.32c.06,1.13,1.17,2.25,1.65,2.82-.77.61-5.38,1.21-5.38,1.21l-1.58-3S231.89,120.33,236.64,117.13Z" style="fill:#263238"></path><path d="M238.46,128.38a7.45,7.45,0,0,0,3.35,4.17c2.06,1.16,3.44-.66,3.15-3-.26-2.1-1.64-5.22-3.85-5.42S237.75,126.19,238.46,128.38Z" style="fill:#ffb573"></path><path d="M242.21,128.25a.95.95,0,1,1-1.34-.67A1.07,1.07,0,0,1,242.21,128.25Z" style="fill:#263238"></path><polygon points="241.59 128.49 240.56 129.04 242.36 131.82 243.09 131.35 241.59 128.49" style="fill:#263238"></polygon><path d="M290.6,403.74c-1-3-3.25-13.78-3.25-13.78l8.51-3.93s1.54,9.4,1.38,15.57A65.21,65.21,0,0,0,290.6,403.74Z" style="fill:#407BFF"></path><path d="M269.7,217.34s15,59.8,18.07,82.53c3.18,23.65,9.48,91.46,9.48,91.46L286.87,394s-16.9-65.46-21.42-88.45c-4.92-25.06-22.18-88.2-22.18-88.2Z" style="fill:#263238"></path><path d="M251.65,221.76l-3.5,13.69c3.25,12.23,7.6,28.81,11.27,43.72A190.79,190.79,0,0,0,251.65,221.76Z" style="opacity:0.30000000000000004"></path><path d="M203.85,407.14c.48-3.1,3.46-13.72,3.46-13.72l9.37.44s-3,9.05-6,14.45A67.58,67.58,0,0,0,203.85,407.14Z" style="fill:#407BFF"></path><path d="M255.43,217.34s-3.41,61.45-8.09,83c-5.13,23.56-30.66,97.4-30.66,97.4l-11.26-1.56c6.29-27,16.54-70.81,19.36-93.71,3.13-25.33,4.71-85.11,4.71-85.11Z" style="fill:#263238"></path><g style="opacity:0.30000000000000004"><path d="M207.85,397.37l-.72-.21c.17-.6,17.5-60.78,21.24-93.37s3.94-86.58,3.94-87.12h.75c0,.54-.21,54.56-3.95,87.21S208,396.77,207.85,397.37Z" style="fill:#407BFF"></path><path d="M232.73,225.29l-.09-.75c.09,0,8.43-1,9.06-7l.75.08C241.76,224.18,232.82,225.28,232.73,225.29Z" style="fill:#407BFF"></path></g><path d="M252.93,124.84c0,.61.32,1.1.72,1.1s.71-.49.71-1.1-.32-1.1-.71-1.1S252.93,124.23,252.93,124.84Z" style="fill:#263238"></path><path d="M259.78,124.84c0,.61.32,1.1.72,1.1s.72-.49.72-1.1-.32-1.1-.72-1.1S259.78,124.23,259.78,124.84Z" style="fill:#263238"></path><path d="M257.6,125.14a21.72,21.72,0,0,0,2.9,5.19,3.5,3.5,0,0,1-2.9.54Z" style="fill:#ed893e"></path><path d="M255.84,132.55a.18.18,0,1,0,0-.36,4.8,4.8,0,0,1-3.92-1.88.18.18,0,0,0-.24-.05.18.18,0,0,0-.06.25A5.1,5.1,0,0,0,255.84,132.55Z" style="fill:#263238"></path><path d="M250.86,122.63a.37.37,0,0,0,.29-.14,2.83,2.83,0,0,1,2.28-1.19.36.36,0,0,0,.38-.33.35.35,0,0,0-.33-.38,3.52,3.52,0,0,0-2.9,1.47.35.35,0,0,0,.07.5A.33.33,0,0,0,250.86,122.63Z" style="fill:#263238"></path><path d="M262.86,122.41a.27.27,0,0,0,.15,0,.34.34,0,0,0,.14-.48,3.56,3.56,0,0,0-2.68-1.84.36.36,0,0,0-.05.71h0a2.84,2.84,0,0,1,2.11,1.48A.36.36,0,0,0,262.86,122.41Z" style="fill:#263238"></path><path d="M213,405.58l-9.81-1.74a.83.83,0,0,0-.84.59l-2.37,8.2a1.39,1.39,0,0,0,1.26,1.75c3.66.35,5.62.33,10.24.66,2.84.2,8.52,1.2,12.46,1.2s4.45-3.89,2.84-4.25c-7.23-1.58-9.95-3.75-12.26-5.83A2.25,2.25,0,0,0,213,405.58Z" style="fill:#263238"></path><path d="M298,397.75l-9.75,2.05a.81.81,0,0,0-.56.86l.86,8.49a1.39,1.39,0,0,0,1.82,1.15c3.53-1,5.34-1.79,9.75-3.21,2.71-.87,9.91-2.68,13.56-4.15s2.68-5.27,1.05-5c-7.29,1.23-12.19.83-15.11-.24A2.26,2.26,0,0,0,298,397.75Z" style="fill:#263238"></path><path d="M239.58,149c-3.92,0-13.37.21-14.29,3.71s.09,9.17,1.34,12.5c-1.84,5.08-1.25,12.58.5,14.92-1.92,5.66-.67,9.83.5,11.83-.92,2.25-1.75,8.67-.34,11.83-1.16,4.5-2.49,12-.41,13.51,2.83,2,10.36,3,15.68,1.74s3.23-12,2.82-14.5c2.33-3.08-.17-12.33-.17-12.33,1.17-2.58-.58-12.25-.58-12.25,1.41-2.33-.42-15-.42-15C245.71,162.42,246.37,149,239.58,149Z" style="fill:#407BFF"></path><path d="M268.35,151.33c-3.08-1.36-13.41-3.83-11.4-1.11,2.9,3.95,1.12,8.11,2.84,13-1.52,4.67-1,12.3.41,15a18,18,0,0,0,.41,11.95c-.76,2-1.44,8.27-.27,11.75-1,4.24-1.76,12.79,0,14.72a8.86,8.86,0,0,0,10.27,2.09c2.45-1,3.54-9.18,2.33-12,2.38-5.19.44-12.88.44-12.88,2.3-4,.52-12.39.52-12.39,2.28-7.44-.52-15.67-.52-15.67C274.57,163.59,273.26,153.5,268.35,151.33Z" style="fill:#407BFF"></path><path d="M261.6,151.4a4.68,4.68,0,0,0,1.33-3.4c0-1.73-1.18-3.64-2.55-3.43A7,7,0,0,0,257,145.9a3.85,3.85,0,0,0-2.22,3.43c-.07,1.51,2.79,6.79,4.36,5.53S260.68,152.69,261.6,151.4Z" style="fill:#407BFF"></path><path d="M227.14,191s37.55-17.54,37.2-41a4.51,4.51,0,0,1,1.9.4c.41.13,4.87,20.79-39.1,43.22C226.66,191.67,227.14,191,227.14,191Z" style="fill:#263238"></path><path d="M231.22,166.55c-.78-3.37-2.76-3.07-4.73-1.69l.14.39c-1.84,5.08-1.25,12.58.5,14.92-.11.32-.21.64-.3,1C229.28,178.77,232.68,172.91,231.22,166.55Z" style="opacity:0.2"></path><path d="M236.93,163.3l-1,1-1.09,1.16c-.72.8-1.43,1.61-2.11,2.44A52.63,52.63,0,0,0,229,173a28,28,0,0,0-4.32,10.64,17.5,17.5,0,0,0-.21,2.59,3.66,3.66,0,0,0,.15,1.48,20.54,20.54,0,0,0,2.49,5.1,108.24,108.24,0,0,0,8.51,11.08l-4.7,6.38a50.77,50.77,0,0,1-7-4.18,47.55,47.55,0,0,1-6.42-5.35,29.17,29.17,0,0,1-5.64-7.55,17.39,17.39,0,0,1-1.79-5.78,31.45,31.45,0,0,1-.19-4.94,34.7,34.7,0,0,1,1.73-9.37,44.43,44.43,0,0,1,3.69-8.26,53.57,53.57,0,0,1,4.93-7.18q1.35-1.68,2.83-3.25c.49-.52,1-1,1.53-1.55l.81-.76,1-.86Z" style="fill:#407BFF"></path><path d="M230,211.27l-.53-.85c.06,0,5.74-3.67,5.7-9.92h1C236.19,207.31,230.23,211.11,230,211.27Z" style="opacity:0.2"></path><path d="M243.37,148.78a.25.25,0,0,1-.25-.24,6.51,6.51,0,0,0-.61-2.31c-.54-1.29-1-2.4.56-5.4,2.48-4.71-.64-9.25-.67-9.3a.25.25,0,0,1,.4-.29,9.92,9.92,0,0,1,.72,9.82c-1.47,2.79-1.06,3.76-.55,5a6.74,6.74,0,0,1,.65,2.47.26.26,0,0,1-.24.27Z" style="fill:#263238"></path><path d="M236.56,150.26c-1-.19-1.26-3.22-.46-5.23.65-1.63,3-1.41,5.1-.7a14.23,14.23,0,0,1,4.79,2.49c2.12,1.51,1.35,3.35.86,4.79s-1.42,4.75-3.43,3S238,150.53,236.56,150.26Z" style="fill:#407BFF"></path><path d="M236.77,117.75c-.75-.67-1.55-1.83-.67-4,0,.59.75,1.29,1.21,1.54.46-1.79,2.79-4.87,9.33-6.33,8.05-1.79,10.79,1.42,13.14.21s-1.22-2.63-1.22-2.63,4.06-.94,5.37,2.13.18,8.46-7,8.12-8.58,2-12.2,1.42A60.58,60.58,0,0,0,236.77,117.75Z" style="fill:#263238"></path><path d="M209.52,407c-.42-3.17-2.17-8.08,6.16-6.17,5,1.15-.58,7.5-.58,7.5Z" style="fill:#263238"></path><path d="M217.17,404.93a13,13,0,0,0-1.5,2.22.21.21,0,0,0,0,.23.2.2,0,0,0,.23,0c.4-.17,4-1.71,4.12-2.82a.57.57,0,0,0-.21-.55,1.16,1.16,0,0,0-1-.29A3.18,3.18,0,0,0,217.17,404.93Zm-.86,1.89c.94-1.56,1.88-2.55,2.58-2.67a.79.79,0,0,1,.68.19.2.2,0,0,1,.08.2C219.56,405.14,217.73,406.16,216.31,406.82Z" style="fill:#263238"></path><path d="M215.69,407.12a.22.22,0,0,0-.05.12.21.21,0,0,0,.1.17c.13.08,3.24,1.94,4.36.31.3-.44.2-.72.06-.88-.62-.71-3.37-.28-4.41.23Zm4,.47c-.77.9-2.63.08-3.41-.32,1.19-.42,3.2-.6,3.57-.17,0,0,.11.12-.08.39A.39.39,0,0,1,219.7,407.59Z" style="fill:#263238"></path><path d="M296.77,401.87c-1.93-2.54-5.88-5.95,2.31-8.41,4.88-1.46,3.2,6.81,3.2,6.81Z" style="fill:#263238"></path><path d="M305.22,398.35a13.33,13.33,0,0,1-2.67.28.19.19,0,0,1-.18-.13.19.19,0,0,1,.06-.22c.34-.27,3.36-2.68,4.42-2.32a.61.61,0,0,1,.4.46,1.19,1.19,0,0,1-.22,1A3.24,3.24,0,0,1,305.22,398.35Zm-2.07-.13c1.82-.09,3.13-.47,3.57-1a.77.77,0,0,0,.14-.69c0-.12-.08-.16-.13-.17C306.16,396.14,304.39,397.27,303.15,398.22Z" style="fill:#263238"></path><path d="M302.6,398.63a.19.19,0,0,1-.13,0,.17.17,0,0,1-.11-.16c0-.16-.2-3.77,1.78-4,.52-.06.72.16.8.36.34.88-1.34,3.11-2.27,3.78Zm1.46-3.77c-1.16.27-1.31,2.29-1.32,3.16.93-.84,2-2.54,1.83-3.07,0,0-.06-.15-.39-.11Z" style="fill:#263238"></path><path d="M222.72,166.45c-1.28,1.85-3.21,2.71-4.31,1.94s-1-2.88.31-4.72,3.22-2.71,4.32-1.94S224,164.61,222.72,166.45Z" style="fill:#fff"></path></g></svg>