<svg xmlns="http://www.w3.org/2000/svg" viewBox="0 0 500 500"><g id="background-complete"><rect y="382.4" width="500" height="0.25" style="fill:#e0e0e0"></rect><rect x="327.22" y="395" width="10.48" height="0.25" style="fill:#e0e0e0"></rect><rect x="64.93" y="388.44" width="17.85" height="0.25" style="fill:#e0e0e0"></rect><rect x="149.23" y="394.88" width="30.66" height="0.25" style="fill:#e0e0e0"></rect><rect x="220.09" y="389.17" width="45.25" height="0.25" style="fill:#e0e0e0"></rect><rect x="391.44" y="390.76" width="53.95" height="0.25" style="fill:#e0e0e0"></rect><rect x="87.61" y="388.44" width="35.34" height="0.25" style="fill:#e0e0e0"></rect><rect x="451.22" y="390.88" width="14.97" height="0.25" style="fill:#e0e0e0"></rect><path d="M237,337.8H43.91a5.71,5.71,0,0,1-5.7-5.71V60.66A5.71,5.71,0,0,1,43.91,55H237a5.71,5.71,0,0,1,5.71,5.71V332.09A5.71,5.71,0,0,1,237,337.8ZM43.91,55.2a5.46,5.46,0,0,0-5.45,5.46V332.09a5.46,5.46,0,0,0,5.45,5.46H237a5.47,5.47,0,0,0,5.46-5.46V60.66A5.47,5.47,0,0,0,237,55.2Z" style="fill:#e0e0e0"></path><path d="M453.31,337.8H260.21a5.72,5.72,0,0,1-5.71-5.71V60.66A5.72,5.72,0,0,1,260.21,55h193.1A5.71,5.71,0,0,1,459,60.66V332.09A5.71,5.71,0,0,1,453.31,337.8ZM260.21,55.2a5.47,5.47,0,0,0-5.46,5.46V332.09a5.47,5.47,0,0,0,5.46,5.46h193.1a5.47,5.47,0,0,0,5.46-5.46V60.66a5.47,5.47,0,0,0-5.46-5.46Z" style="fill:#e0e0e0"></path><path d="M72.67,294.31h238.8a3.56,3.56,0,0,1,0,7.12h-3.15c-6.19,0-7.54,67.48-43.23,67.48h-146c-35.7,0-37-67.48-43.23-67.48H72.67a3.56,3.56,0,1,1,0-7.12Z" style="fill:#e6e6e6"></path><path d="M281.15,299.07h-4.64v-20a7.9,7.9,0,0,0-15.79,0h-4.64a12.54,12.54,0,0,1,25.07,0Z" style="fill:#e6e6e6"></path><path d="M283.83,295.34H273a2.32,2.32,0,0,1,0-4.64h10.83a2.32,2.32,0,1,1,0,4.64Z" style="fill:#e6e6e6"></path><path d="M259.52,364.37c1.65,3.1-5.57,9.08-6.3,11.56s1.78,3.54,6.81,2.19c2.77-.74,5.42,4.28-6.34,4.28s-11.35-15-11.35-15Z" style="fill:#e6e6e6"></path><path d="M124.62,364.37c-1.65,3.1,5.57,9.08,6.29,11.56s-1.78,3.54-6.81,2.19c-2.76-.74-5.41,4.28,6.35,4.28s11.35-15,11.35-15Z" style="fill:#e6e6e6"></path><path d="M67.7,302.1H316.44a4.55,4.55,0,0,0,4.54-4.54h0a4.55,4.55,0,0,0-4.54-4.54H67.7a4.55,4.55,0,0,0-4.54,4.54h0A4.55,4.55,0,0,0,67.7,302.1Z" style="fill:#f0f0f0"></path><path d="M47.5,90.16H336.64a1.07,1.07,0,0,0,1.06-1.06h0A1.07,1.07,0,0,0,336.64,88H47.5a1.08,1.08,0,0,0-1.07,1.07h0A1.08,1.08,0,0,0,47.5,90.16Z" style="fill:#e6e6e6"></path><rect x="64.08" y="81.08" width="135.01" height="256.68" transform="translate(263.17 418.85) rotate(180)" style="fill:#f0f0f0"></rect><rect x="189.12" y="81.08" width="16.92" height="264.11" transform="translate(395.16 426.28) rotate(180)" style="fill:#f5f5f5"></rect><rect x="162.79" y="81.08" width="16.92" height="264.11" transform="translate(342.51 426.28) rotate(180)" style="fill:#f5f5f5"></rect><rect x="136.47" y="81.08" width="16.92" height="264.11" transform="translate(289.86 426.28) rotate(180)" style="fill:#f5f5f5"></rect><rect x="110.15" y="81.08" width="16.92" height="264.11" transform="translate(237.22 426.28) rotate(180)" style="fill:#f5f5f5"></rect><rect x="83.82" y="81.08" width="16.92" height="264.11" transform="translate(184.57 426.28) rotate(180)" style="fill:#f5f5f5"></rect><rect x="57.5" y="81.08" width="16.92" height="264.11" transform="translate(131.92 426.28) rotate(180)" style="fill:#f5f5f5"></rect><rect x="360.91" y="108.64" width="69.29" height="117.08" style="fill:#f0f0f0"></rect><rect x="430.2" y="108.64" width="9.44" height="117.08" transform="translate(869.84 334.37) rotate(180)" style="fill:#e6e6e6"></rect><rect x="339.75" y="135.28" width="111.6" height="63.81" transform="translate(562.74 -228.37) rotate(90)" style="fill:#f5f5f5"></rect><polygon points="369.65 222.99 384.44 111.38 392.23 111.38 377.45 222.99 369.65 222.99" style="fill:#fafafa"></polygon><polygon points="381.94 222.99 396.72 111.38 409.17 111.38 394.39 222.99 381.94 222.99" style="fill:#fafafa"></polygon><rect x="346.3" y="265.62" width="90.02" height="114.1" style="fill:#f0f0f0"></rect><rect x="346.3" y="265.62" width="93.98" height="4.38" style="fill:#e6e6e6"></rect><rect x="348.08" y="379.72" width="98.72" height="2.67" style="fill:#e6e6e6"></rect><rect x="353.82" y="272.06" width="74.99" height="23.41" style="fill:#e6e6e6"></rect><rect x="353.82" y="298.83" width="74.99" height="80.89" style="fill:#e6e6e6"></rect><rect x="389.94" y="297.82" width="2.75" height="81.9" style="fill:#f0f0f0"></rect><rect x="436.32" y="265.62" width="12.26" height="114.1" transform="translate(884.91 645.35) rotate(180)" style="fill:#e6e6e6"></rect><path d="M394.7,283.76a3.39,3.39,0,1,1-3.39-3.38A3.39,3.39,0,0,1,394.7,283.76Z" style="fill:#f0f0f0"></path><path d="M385.74,306.42a3.39,3.39,0,1,1-3.39-3.38A3.39,3.39,0,0,1,385.74,306.42Z" style="fill:#f0f0f0"></path><path d="M403.66,306.42a3.39,3.39,0,1,1-3.39-3.38A3.39,3.39,0,0,1,403.66,306.42Z" style="fill:#f0f0f0"></path><rect x="343.67" y="262.17" width="107.56" height="6.91" style="fill:#e6e6e6"></rect><path d="M406.8,264.14h-4.12V246.42a7,7,0,0,0-14,0h-4.13a11.13,11.13,0,0,1,22.26,0Z" style="fill:#e6e6e6"></path><path d="M409.66,259.84h-9.85a2.06,2.06,0,0,1,0-4.12h9.85a2.06,2.06,0,1,1,0,4.12Z" style="fill:#e6e6e6"></path><rect x="343.67" y="262.17" width="96.61" height="6.91" style="fill:#f0f0f0"></rect><path d="M411,100.59H390.11a3.18,3.18,0,0,1-3.17-3.16h0a3.18,3.18,0,0,1,3.17-3.17H411a3.18,3.18,0,0,1,3.17,3.17h0A3.17,3.17,0,0,1,411,100.59Z" style="fill:#e6e6e6"></path></g><g id="background-simple"><path d="M287.77,211.71c-5.53,1.38-11.34,1-17,.27-46.16-6.3-87.12-40.31-133.62-37.42C112.48,176.1,88.38,189.11,75,209.92S60.09,259,72.56,280.38c8,13.72,20.89,23.86,34,32.88a410.59,410.59,0,0,0,92.25,47.55c23.83,8.7,48.85,15.26,74.21,14.71,36-.77,70.73-16,98.88-38.47,10.28-8.19,19.94-17.54,26.22-29.08,5.49-10.09,8.17-21.45,10.16-32.77,2.75-15.59,4.29-31.57,2.15-47.26s-8.19-31.16-19.06-42.68c-8.32-8.81-19.17-15-30.66-18.87a38.65,38.65,0,0,0-13.83-2.49C316.93,165.17,314.87,204.91,287.77,211.71Z" style="fill:#407BFF"></path><path d="M287.77,211.71c-5.53,1.38-11.34,1-17,.27-46.16-6.3-87.12-40.31-133.62-37.42C112.48,176.1,88.38,189.11,75,209.92S60.09,259,72.56,280.38c8,13.72,20.89,23.86,34,32.88a410.59,410.59,0,0,0,92.25,47.55c23.83,8.7,48.85,15.26,74.21,14.71,36-.77,70.73-16,98.88-38.47,10.28-8.19,19.94-17.54,26.22-29.08,5.49-10.09,8.17-21.45,10.16-32.77,2.75-15.59,4.29-31.57,2.15-47.26s-8.19-31.16-19.06-42.68c-8.32-8.81-19.17-15-30.66-18.87a38.65,38.65,0,0,0-13.83-2.49C316.93,165.17,314.87,204.91,287.77,211.71Z" style="fill:#fff;opacity:0.9"></path></g><g id="Shadow"><ellipse cx="250" cy="416.24" rx="193.89" ry="11.32" style="fill:#f5f5f5"></ellipse></g><g id="Character"><path d="M257.92,268.59c1.83-9.08,27-20.3,36.75-10.59,13.73,1.12,7,21.75,15.23,23.4,9.27,1.86,11,8.77,9.62,18.89-1.78,13.44,26,7.66,18.2,20.21-14.66,23.62,20.34,22.34-18.2,40.13-24,11.06-57-7.32-60.21-26.08-5-29.13,15.82-15.43,8.93-28.9s-.15-8.67,0-17.95S256,278.29,257.92,268.59Z" style="fill:#263238"></path><path d="M345.56,409.21l11.16-1.2-1.25,8.06s-6.41-1.25-9.74-4.09Z" style="fill:#ce7a63"></path><polygon points="364.54 409.36 361.96 414.98 355.47 416.07 356.72 408.01 364.54 409.36" style="fill:#ce7a63"></polygon><path d="M264.68,330.77c-1.13.29-2.06.5-3.08.72s-2,.39-3,.57q-3,.53-6,.9a113.65,113.65,0,0,1-12.11.81,86.81,86.81,0,0,1-12.24-.65c-2-.26-4.08-.58-6.11-1-1-.2-2-.47-3-.72s-2-.53-3.15-.95a38.87,38.87,0,0,1-5.91-2.74c-1.81-1-3.54-2.07-5.23-3.17-3.36-2.2-6.55-4.54-9.67-7s-6.14-4.92-9.12-7.46-5.88-5.16-8.72-7.91a2.48,2.48,0,0,1,3.16-3.8l0,0c3.12,2.22,6.26,4.48,9.44,6.65s6.32,4.37,9.54,6.44,6.43,4.09,9.68,5.94c1.62.92,3.26,1.79,4.88,2.57a35.84,35.84,0,0,0,4.74,1.93c.66.2,1.6.4,2.46.6s1.76.36,2.65.49c1.78.3,3.58.51,5.39.67a95.87,95.87,0,0,0,11,.25c3.69-.12,7.4-.47,11.08-.94q2.77-.35,5.51-.83,1.38-.24,2.73-.51c.88-.17,1.84-.37,2.6-.54l.1,0a5,5,0,0,1,2.38,9.68Z" style="fill:#ce7a63"></path><path d="M182.73,300.9,174.89,292l-4.33,9.84s5.6,4.38,10.39,3.49Z" style="fill:#ce7a63"></path><polygon points="165 287.06 164 295.06 170.56 301.81 174.89 291.97 165 287.06" style="fill:#ce7a63"></polygon><path d="M167.29,281.75c.83.38.57.93.72,1.41s.13,1,.17,1.49l.21,3c.2,2,.6,4,1,5.93l1.17,5.89c.2,1,.37,2,.53,2.95l.24,1.48a1.84,1.84,0,0,1-.31,1.57.7.7,0,0,1-1,.15h0a1.83,1.83,0,0,1-.77-1.4l-.23-1.48c-.14-1-.28-2-.39-3l-.67-6c-.25-2-.48-4-.89-5.94l-.71-2.92c-.12-.49-.21-1-.3-1.48s-.41-.94.26-1.55A.91.91,0,0,1,167.29,281.75Z" style="fill:#407BFF"></path><path d="M167.29,281.75c.83.38.57.93.72,1.41s.13,1,.17,1.49l.21,3c.2,2,.6,4,1,5.93l1.17,5.89c.2,1,.37,2,.53,2.95l.24,1.48a1.84,1.84,0,0,1-.31,1.57.7.7,0,0,1-1,.15h0a1.83,1.83,0,0,1-.77-1.4l-.23-1.48c-.14-1-.28-2-.39-3l-.67-6c-.25-2-.48-4-.89-5.94l-.71-2.92c-.12-.49-.21-1-.3-1.48s-.41-.94.26-1.55A.91.91,0,0,1,167.29,281.75Z" style="opacity:0.30000000000000004"></path><path d="M163.07,282.9a1.56,1.56,0,0,1-1.54-1.32,1.55,1.55,0,0,1,1.3-1.78l7.13-1.11a1.56,1.56,0,0,1,1.78,1.3,1.55,1.55,0,0,1-1.3,1.78l-7.13,1.11Zm7.13-3.23h-.08L163,280.79a.6.6,0,0,0-.36.22.57.57,0,0,0-.1.42.55.55,0,0,0,.63.46l7.14-1.11h0a.53.53,0,0,0,.36-.22.51.51,0,0,0,.1-.41A.56.56,0,0,0,170.2,279.67Z" style="fill:#407BFF"></path><path d="M163.07,282.9a1.56,1.56,0,0,1-1.54-1.32,1.55,1.55,0,0,1,1.3-1.78l7.13-1.11a1.56,1.56,0,0,1,1.78,1.3,1.55,1.55,0,0,1-1.3,1.78l-7.13,1.11Zm7.13-3.23h-.08L163,280.79a.6.6,0,0,0-.36.22.57.57,0,0,0-.1.42.55.55,0,0,0,.63.46l7.14-1.11h0a.53.53,0,0,0,.36-.22.51.51,0,0,0,.1-.41A.56.56,0,0,0,170.2,279.67Z" style="opacity:0.30000000000000004"></path><path d="M243.72,383.27l-1.62-1-1.78-1.11c-1.21-.74-2.43-1.48-3.66-2.2-2.47-1.44-5-2.86-7.51-4.2-5.07-2.7-10.24-5.21-15.47-7.43a141.18,141.18,0,0,0-15.9-5.69c-2.68-.78-5.36-1.47-8-2-1.35-.3-2.69-.51-4-.74-.67-.11-1.33-.19-2-.28l-1-.14c-.17,0-.11-.05-.22-.1a4.18,4.18,0,0,0-2.1-.81,4.59,4.59,0,0,0-1.52.24c-.53.15-1.07.32-1.63.53a43.74,43.74,0,0,0-7,3.46,110.31,110.31,0,0,0-14,10.17,232.14,232.14,0,0,0-25.44,25.23l-6.23-4.79c3.64-5.1,7.29-10,11.16-14.88s7.8-9.66,12-14.33a134.82,134.82,0,0,1,13.8-13.5,59.92,59.92,0,0,1,8.57-6c.81-.46,1.65-.9,2.54-1.32s1.82-.81,2.78-1.28a19.35,19.35,0,0,1,6.88-2.29,15.78,15.78,0,0,1,2.06,0l1.27.09c.84.07,1.69.12,2.53.21,1.67.19,3.35.37,5,.63q5,.72,9.8,1.87c3.22.75,6.38,1.65,9.5,2.62s6.2,2.06,9.22,3.23a173.93,173.93,0,0,1,17.63,8c2.85,1.49,5.67,3,8.44,4.69q2.08,1.23,4.15,2.53l2.06,1.35,1,.7,1.14.78Z" style="fill:#bc6753"></path><path d="M285.42,406.5c-.7-.4-39.85-14.77-67.09-22.54,1-9.48,3.58-31.64,6.12-39.27a200.37,200.37,0,0,1,38.49,19.64Z" style="fill:#407BFF"></path><path d="M285.42,406.5c-.7-.4-39.85-14.77-67.09-22.54,1-9.48,3.58-31.64,6.12-39.27a200.37,200.37,0,0,1,38.49,19.64Z" style="fill:#fafafa;opacity:0.4"></path><path d="M251.37,395.53c-4.19-4.89-8.55-10-12.87-14.89L232,373.25l-6.6-7.27c-4.41-4.8-8.92-9.48-13.46-13.88-2.28-2.2-4.59-4.3-6.9-6.21a50.93,50.93,0,0,0-6.6-4.87c-.47-.27-.95-.53-1.3-.69l-.14-.07-.06,0H197a2.71,2.71,0,0,0,.27.05,4.94,4.94,0,0,0,1,.07,5.15,5.15,0,0,0,2.58-.78,2,2,0,0,0,.79-.74,4.07,4.07,0,0,0-1,1.67,26.29,26.29,0,0,0-1.25,3.6,83.85,83.85,0,0,0-1.82,8.81c-.49,3.09-.87,6.28-1.17,9.5C195,375.32,194.54,388.71,194,402l-8.46.8C184,396,183,389.34,182.1,382.54s-1.44-13.64-1.72-20.61c-.1-3.48-.12-7,0-10.59a78.25,78.25,0,0,1,1.08-11.1,46.68,46.68,0,0,1,1.45-6.09,24.38,24.38,0,0,1,3.58-7.22,16,16,0,0,1,4.5-4.1,14.54,14.54,0,0,1,7.37-2.06,15.56,15.56,0,0,1,3.47.38,14.21,14.21,0,0,1,1.47.41l.35.11.23.08.45.16c1.22.44,2.25.92,3.28,1.4a68.85,68.85,0,0,1,10.11,6.3c3,2.22,5.75,4.5,8.44,6.83,5.37,4.64,10.33,9.49,15.15,14.42,2.42,2.46,4.76,5,7.08,7.5s4.62,5.06,6.85,7.65,4.48,5.17,6.64,7.81,4.29,5.27,6.45,8.07Z" style="fill:#ce7a63"></path><rect x="207.42" y="338.44" width="22.66" height="7.67" transform="translate(287.69 -58.04) rotate(42.35)" style="fill:#fafafa"></rect><path d="M196.39,409c-.32-1.08-2.27-5.54-2.43-7.55s-5.77.66-6.12.65c-1.88.34-2.34-.13-2.42.39-.28,2-1.88,5.47-15.61,8.22-1.5.3-1.63,2.53,1.87,2.6s11.23-.83,13.82-.78c4.22.08,6.36.76,8.85.75C196.66,413.31,197,411.14,196.39,409Z" style="fill:#ce7a63"></path><path d="M130.34,401.5c.42-1.06,1.53-4.92,2.66-6.73s-5.5-2.28-5.8-2.42c-1.88-.39-1.77-1.11-2.17-.67-1.5,1.62-5.34,4.22-19.16,1.62-1.51-.29-3,1.61,0,2.95s10.4,3.37,12.65,4.36c3.66,1.61,5.11,3,7.31,3.89C127.88,405.33,129.54,403.55,130.34,401.5Z" style="fill:#bc6753"></path><path d="M314.5,317.9a5.78,5.78,0,0,1,4.9,5.85c-.5,21.95-1.3,54.56-19.23,72.58-6,6.05-9.32,8.65-14.75,10.17a223.9,223.9,0,0,1-22.48-42.17c2.87-1.44,4.76-6.48,4.76-11.25,0-10.46-3.05-22.15-5-28.63a4.77,4.77,0,0,1,3.72-6.1c2.94-.54,6.89-1.17,11.25-1.63a149.27,149.27,0,0,1,21.62-.32A131.51,131.51,0,0,1,314.5,317.9Z" style="fill:#407BFF"></path><path d="M314.5,317.9a5.78,5.78,0,0,1,4.9,5.85c-.5,21.95-1.3,54.56-19.23,72.58-6,6.05-9.32,8.65-14.75,10.17a223.9,223.9,0,0,1-22.48-42.17c2.87-1.44,4.76-6.48,4.76-11.25,0-10.46-3.05-22.15-5-28.63a4.77,4.77,0,0,1,3.72-6.1c2.94-.54,6.89-1.17,11.25-1.63a149.27,149.27,0,0,1,21.62-.32A131.51,131.51,0,0,1,314.5,317.9Z" style="opacity:0.2"></path><path d="M321.14,323.91c2.08,7.27,4.09,14.6,6.09,21.9s4,14.62,6.11,21.82a211.3,211.3,0,0,0,7.56,20.95q2.12,5.24,4.39,10.42c1.49,3.46,3,6.93,4.55,10.36l0,0a2.48,2.48,0,0,1-4.34,2.35c-2.11-3.25-4-6.53-6-9.86s-3.73-6.71-5.51-10.12a162.66,162.66,0,0,1-9.33-21.36c-1.27-3.64-2.46-7.27-3.6-10.92s-2.27-7.29-3.35-10.94c-2.2-7.3-4.29-14.61-6.23-22a5,5,0,0,1,9.61-2.65Z" style="fill:#ce7a63"></path><path d="M296.76,292.08c-1.26,7-2.43,19.75,2.5,24.32,0,0-5.7,5.8-21.44,10.07-2.87-6.4-.18-9.75-.18-9.75,7.73-2,7.45-7.72,6-13.11Z" style="fill:#ce7a63"></path><path d="M291.42,296.79l-7.76,6.81a21.88,21.88,0,0,1,.73,3.83c2.95-.47,7.38-3.19,7.65-6.3A12.56,12.56,0,0,0,291.42,296.79Z" style="fill:#bc6753"></path><path d="M298.21,276.13c.55,11.62,1,16.53-4.14,23.1-7.8,9.87-22.19,8-26.21-3.21-3.62-10.1-3.92-27.41,6.87-33.24A15.87,15.87,0,0,1,298.21,276.13Z" style="fill:#ce7a63"></path><path d="M282.78,264.67c-1.85,6.4,10.76,30.46,17.54,19.27,8.6-14.23-12.05-23.22-12.05-23.22Z" style="fill:#263238"></path><path d="M288.77,260.8c-2.14,4.22-4.8,10.73-22.25,11.9.21-3-.09-10.5,6.81-12.59A22.51,22.51,0,0,1,288.77,260.8Z" style="fill:#263238"></path><path d="M301.75,285.85a8.51,8.51,0,0,1-3.68,5.36c-2.51,1.61-4.63-.43-4.66-3.26,0-2.54,1.25-6.44,4.12-6.91S302.3,283.15,301.75,285.85Z" style="fill:#ce7a63"></path><path d="M266.51,373.27s-7.62-6.1-27-24.7l-7.91,48.79c17,10.65,39.62,21.3,53.8,9.14Z" style="fill:#407BFF"></path><path d="M266.51,373.27s-7.62-6.1-27-24.7l-7.91,48.79c17,10.65,39.62,21.3,53.8,9.14Z" style="fill:#fafafa;opacity:0.6000000000000001"></path><path d="M281.18,282.93c.1.94-.32,1.76-.93,1.82s-1.2-.64-1.3-1.58.31-1.75.93-1.82S281.07,282,281.18,282.93Z" style="fill:#263238"></path><path d="M270.55,284.1c.1.94-.31,1.75-.93,1.82s-1.19-.64-1.29-1.58.31-1.76.92-1.82S270.45,283.16,270.55,284.1Z" style="fill:#263238"></path><path d="M269.53,282.54l-2.33-.41S268.55,283.77,269.53,282.54Z" style="fill:#263238"></path><path d="M274.34,284.74a26.76,26.76,0,0,1-3.94,6c1.11,1.3,3.28,1,3.28,1Z" style="fill:#ba4d3c"></path><path d="M278,295.33a.23.23,0,0,1-.23-.21.21.21,0,0,1,.2-.25,7.54,7.54,0,0,0,5.79-3.61.23.23,0,0,1,.41.21,7.86,7.86,0,0,1-6.15,3.85Z" style="fill:#263238"></path><path d="M283.79,278.5a.42.42,0,0,1-.3-.12,4.53,4.53,0,0,0-3.95-1.13.46.46,0,0,1-.24-.89,5.41,5.41,0,0,1,4.8,1.33.46.46,0,0,1,0,.65A.44.44,0,0,1,283.79,278.5Z" style="fill:#263238"></path><path d="M264.92,280.15a.44.44,0,0,1-.32-.13.46.46,0,0,1,0-.65,5.42,5.42,0,0,1,4.66-1.75.46.46,0,0,1,.37.54.46.46,0,0,1-.53.37h0a4.47,4.47,0,0,0-3.83,1.48A.47.47,0,0,1,264.92,280.15Z" style="fill:#263238"></path><path d="M280.15,281.37l-2.33-.4S279.18,282.61,280.15,281.37Z" style="fill:#263238"></path></g></svg>