<svg xmlns="http://www.w3.org/2000/svg" viewBox="0 0 500 500"><g id="Floor"><path id="Floor-2" d="M96.97,445.91c-84.52-49.95-84.52-130.93,0-180.88,84.52-49.95,221.54-49.95,306.06,0,84.52,49.95,84.52,130.93,0,180.88-84.52,49.95-221.55,49.95-306.06,0Z" style="fill:#fafafa;"></path></g><g id="Shadow"><path id="Shadow-2" d="M111.85,364.17c-3.84,3.22-6.65,8.07-6.17,13.06,.45,4.72,3.76,8.78,7.72,11.38,3.97,2.6,8.58,3.99,13.09,5.46,24.89,8.13,48.65,19.75,70.35,34.4,13.44,9.07,26.85,18.21,40.92,26.32,22.69,13.08,40.9,17.59,63.13,12.66,8.46-1.87,17.29-6.51,23.18-13.05,1.8-2,5.99-9.07,5.22-21.36,8.85,1.54,21.25,3.26,30.15,2.04,8.88-1.22,23.2-6.14,26.32-15.67,2.59-7.93-3.17-16.01-8.97-22.01-1.95-2.02-3.96-4-6-5.93-19.76-18.63-43.41-30.09-68.38-40.26-25.4-10.35-52.57-17.91-80.21-17.09-10.12,.3-20.48,3.08-28.19,9.65-1.44,1.23-2.8,2.6-3.71,4.26-1.01,1.82-1.45,3.94-2.62,5.66-5.68,8.43-29.8,3.15-38.15,2.58-13.02-.89-27.13-.96-37.7,7.88Z" style="fill:#e0e0e0;"></path></g><g id="Exclamation_marks"><g id="Exclamation"><path d="M430,187.5c-.26,.46-.65,.77-1.17,.91-.53,.15-1.02,.09-1.48-.17l-7.94-4.46c-.46-.26-.77-.65-.91-1.18-.15-.52-.09-1.02,.17-1.48l3.57-6.36c.26-.46,.65-.77,1.18-.92,.52-.14,1.01-.09,1.48,.17l7.94,4.46c.46,.26,.76,.65,.91,1.17,.15,.53,.09,1.02-.17,1.48l-3.57,6.36Zm7.6-13.55c-.26,.46-.65,.77-1.18,.91-.52,.15-1.02,.09-1.48-.17l-7.94-4.46c-.46-.26-.77-.65-.91-1.18-.15-.52-.09-1.02,.17-1.48l15.25-27.16c.26-.46,.65-.77,1.18-.91,.52-.15,1.02-.09,1.48,.17l7.94,4.46c.46,.26,.77,.65,.91,1.18,.15,.52,.09,1.02-.17,1.48l-15.25,27.16Z" style="fill:#e0e0e0;"></path><path d="M413.63,168.84c-.17,.5-.49,.88-.98,1.12-.49,.25-.98,.29-1.48,.12l-8.65-2.84c-.5-.17-.88-.49-1.12-.98-.25-.48-.29-.98-.12-1.48l2.27-6.93c.16-.5,.49-.88,.98-1.13,.48-.24,.98-.28,1.48-.12l8.65,2.84c.5,.16,.88,.49,1.12,.98,.25,.49,.28,.98,.12,1.49l-2.27,6.93Zm4.84-14.76c-.16,.5-.49,.88-.98,1.12-.49,.25-.98,.28-1.48,.12l-8.65-2.84c-.5-.17-.88-.49-1.12-.98-.25-.49-.29-.98-.12-1.48l9.71-29.6c.16-.5,.49-.88,.98-1.12,.48-.25,.98-.29,1.48-.12l8.65,2.84c.5,.16,.88,.49,1.12,.98,.25,.49,.28,.98,.12,1.48l-9.71,29.6Z" style="fill:#f0f0f0;"></path></g><g id="Exclamation-2"><path d="M70.36,191.3c-.26-.46-.32-.95-.17-1.48,.15-.52,.45-.92,.91-1.17l7.94-4.46c.46-.26,.96-.31,1.48-.17,.53,.15,.92,.45,1.18,.92l3.57,6.36c.26,.46,.32,.96,.17,1.48-.14,.53-.45,.92-.91,1.18l-7.94,4.46c-.46,.26-.95,.32-1.48,.17-.52-.15-.91-.45-1.17-.91l-3.57-6.36Zm-19.28-34.34c-.26-.46-.32-.95-.17-1.48,.15-.53,.45-.92,.91-1.18l7.94-4.46c.46-.26,.96-.31,1.48-.17,.53,.15,.92,.45,1.18,.91l15.25,27.16c.26,.46,.32,.95,.17,1.48-.15,.53-.45,.92-.91,1.18l-7.94,4.46c-.46,.26-.95,.32-1.48,.17-.53-.15-.92-.45-1.18-.91l-15.25-27.16Z" style="fill:#e0e0e0;"></path><path d="M88.02,172.07c-.16-.5-.13-1,.12-1.49,.25-.48,.62-.81,1.12-.98l8.65-2.84c.5-.17,1-.12,1.48,.12,.49,.25,.82,.62,.98,1.13l2.27,6.93c.17,.51,.13,1-.12,1.48-.24,.49-.62,.81-1.12,.98l-8.65,2.84c-.5,.16-1,.13-1.48-.12-.49-.24-.81-.62-.98-1.12l-2.27-6.93Zm-12.27-37.42c-.16-.5-.13-1,.12-1.48,.25-.49,.62-.81,1.12-.98l8.65-2.84c.5-.17,1-.12,1.48,.12,.49,.25,.81,.62,.98,1.12l9.71,29.6c.16,.5,.13,1-.12,1.48-.24,.49-.62,.81-1.12,.98l-8.65,2.84c-.5,.16-1,.13-1.48-.12-.49-.24-.81-.62-.98-1.12l-9.71-29.6Z" style="fill:#f0f0f0;"></path></g></g><g id="Plants"><g id="Plants-2"><g><path d="M107.79,253.58c9.35,24.57,29.02,41.21,35.99,91.69,1.33,9.64,.13,24.74,0,32.52h20.87c3.95-23.64,6.69-59.25,1.3-91.35-6.34-37.67-26.48-58.25-40.38-62.4-15.6-4.65-27.61,3.67-17.77,29.54Z" style="fill:#e0e0e0;"></path><path d="M120.75,236.7c.41-.39,1.05-.36,1.43,.04,20.98,22.27,42.24,78.39,31.04,141.04h-2.2c11.63-62.48-9.49-117.54-30.31-139.65-.38-.41-.36-1.05,.04-1.43Z" style="fill:#fff;"></path></g><g><path d="M114.56,335.91c8.81,13.38,15.91,21.53,22.81,41.88h13.18c0-45.89-17.68-72.38-26.21-81.99-9.32-10.49-22.88-20.2-33.26-11.03-6.52,5.76-3.22,15.29,1.17,22.87,4.96,8.56,14.29,16.1,22.32,28.27Z" style="fill:#ebebeb;"></path><path d="M101.96,294.82c.31-.48,.95-.63,1.43-.31,14.7,9.52,37.87,49.6,42.35,83.27h-2.08c-4.43-32.9-27.34-72.43-41.39-81.53-.48-.31-.62-.95-.31-1.43Z" style="fill:#fff;"></path></g></g><g id="Plants-3"><g><path d="M336.71,380.7l-16.62-9.6s-9.89-41.1-5.95-78.08c5.54-51.99,39.76-71.55,52.78-67.07,13.01,4.48,16.78,19.61-4.75,50.58-12.7,18.27-28.31,56.32-25.46,104.17Z" style="fill:#ebebeb;"></path><path d="M329.82,360.51c.05,0,.11,0,.16-.02,.63-.12,1.04-.72,.92-1.35-9.11-47.95,7.64-101.84,28.39-124.26,.43-.47,.4-1.2-.06-1.63-.47-.43-1.2-.4-1.63,.06-21.12,22.83-38.2,77.6-28.96,126.26,.11,.57,.62,.97,1.19,.94Z" style="fill:#fff;"></path></g><g><path d="M378.53,404.85c2.48,1.26,9.08-4.39,10.92-5.76,3.15-2.35,5.64-5.58,7.21-9.18,1.84-4.18,2.13-8.58,1.26-13.06-.45-2.32-1.22-4.57-1.99-6.81-.75-2.2-1.51-4.39-2.26-6.59-.74-2.17-1.5-4.41-1.32-6.7,.35-4.6,4.25-8.01,7.81-10.96,3.93-3.26,7.98-7.51,7.67-13.02-.23-4.25-2.63-8.08-5.43-11.29-2.8-3.2-6.08-5.99-8.63-9.39-1.84-2.45-3.33-5.36-3.2-8.42,.08-1.9,.77-3.72,1.59-5.44,1.76-3.68,4.16-7.1,5.31-11.02,1.15-3.92,.71-8.7-2.43-11.31-2.58-2.14-6.27-2.27-9.6-1.88-3.08,.36-6.03,1.91-8.66,3.55-8.5,5.3-12.97,15.91-22.05,20.12-3.51,1.62-7.41,2.14-11.09,3.31-3.68,1.17-7.39,3.27-8.94,6.81-3.06,6.97,3.68,15.04,1.65,22.38-1.8,6.5-7.88,9.26-11.08,15.19-1.4,2.6-1.6,5.53-1.21,8.45,.67,4.95,1.58,8.55,4.24,13.96,2.2,4.47,8.39,12.91,8.39,12.91,0,0,41.44,23.95,41.82,24.15Z" style="fill:#e0e0e0;"></path><path d="M354.48,392.31h.03c.62-.06,1.06-.59,1-1.19-3.98-43.13,13.98-91.88,28.09-106.49,.42-.43,.41-1.12-.03-1.54-.43-.42-1.12-.4-1.54,.03-14.39,14.9-32.73,64.46-28.69,108.2,.06,.59,.56,1.02,1.14,.99Z" style="fill:#fff;"></path><path d="M358.76,339.13c.11,0,.21-.03,.32-.07,13.67-4.99,30.94-6.62,31.11-6.64,.6-.06,1.04-.59,.99-1.19-.06-.6-.53-1.05-1.19-.99-.18,.02-17.72,1.67-31.66,6.76-.57,.21-.86,.83-.65,1.4,.17,.46,.61,.74,1.08,.72Z" style="fill:#fff;"></path></g></g></g><g id="Speech_Bubble"><g id="Speech_Bubble-2"><path d="M168.04,62.2c-4.99-8.25-18.34-15.1-34.85-15.28-15.01-.16-33.29,4.85-37.85,21.23-3.9,13.97,8.1,26.95,20.55,29.71,5.4,1.2,10.43,1.72,15.02,1.8,2.31,4.89,7.72,7.9,11.79,8.22-2.11-2.83-2.66-6.1-2.7-8.61,4.59-.49,8.49-1.35,11.54-2.21,21.61-6.13,22.09-25.63,16.5-34.87Z" style="fill:#BA68C8;"></path><path d="M168.04,62.2c-4.99-8.25-18.34-15.1-34.85-15.28-15.01-.16-33.29,4.85-37.85,21.23-3.9,13.97,8.1,26.95,20.55,29.71,5.4,1.2,10.43,1.72,15.02,1.8,2.31,4.89,7.72,7.9,11.79,8.22-2.11-2.83-2.66-6.1-2.7-8.61,4.59-.49,8.49-1.35,11.54-2.21,21.61-6.13,22.09-25.63,16.5-34.87Z" style="fill:#fff; opacity:.4;"></path><path d="M111.04,68.89c-2.57,0-4.65,2.08-4.65,4.65s2.08,4.65,4.65,4.65,4.65-2.08,4.65-4.65-2.08-4.65-4.65-4.65Zm21.79,0c-2.57,0-4.65,2.08-4.65,4.65s2.08,4.65,4.65,4.65,4.65-2.08,4.65-4.65-2.08-4.65-4.65-4.65Zm21.79,0c-2.57,0-4.65,2.08-4.65,4.65s2.08,4.65,4.65,4.65,4.65-2.08,4.65-4.65-2.08-4.65-4.65-4.65Z" style="fill:#fff;"></path></g></g><g id="Character"><g id="Character-2"><g id="Bottom"><g><path d="M253.59,392.52c-1.74,1.65-8.68-1.23-12.9-4.5-4.22-3.27-15.67-8.55-20.18-10.95-4.51-2.4-15.1-6.07-19.14-7.02-10.45-2.47-15.03-2.82-20.13-8.09-3.91-4.04-3.22-8.77-3.22-8.77,0,0,4.01,4.89,19.75,2.47,15.74-2.42,24.08-6.87,29.78-6.03,5.69,.84,20.56,5.15,30.36-2.58,3.05-2.4,1.78-6.1,.46-6.53,2.48,1.37,3.2,3.4,3.89,5.5,.44,1.35,.98,3.21,1.38,4.46,1.02,3.18,2.68,9.18,6.93,12.12,2.32,1.61,3.15,2.1,2.3,3.99l-19.3,25.93Z" style="fill:#37474f;"></path><path d="M181.45,346.41c-4.66,3.92-4.12,6.01-3.57,9.04,.54,3.03,1.85,3.93,4.94,5.03,3.86,1.37,10.83,1.38,17.68-.02,6.85-1.41,21.06-6.89,25.37-6.48,4.31,.41,11.5,3.33,20.2,2.48,8.69-.84,12.24-3.25,14.45-5.41,2.4-2.35,1.79-4.96,1.79-4.96,0,0-.1-5.4-7.05-7.09-6.03-1.46-73.8,7.4-73.8,7.4Z" style="fill:#263238;"></path><path d="M271.99,366.24c-6.68-2.63-10.03,6.48-13.36,10.31-3.36,3.87-5.33,4.08-12.32,2.11-5.83-1.65-11.02-1.5-11.02-1.5,0,0,5.82,2.06,8.12,4.62,2.3,2.56-.73,4.27,2.52,6.19,5.09,3.01,10.29,6.13,13.52,8.06l7.94,5.25,21.18,6.77,7.92-32.17-24.5-9.64Z" style="fill:#ffa8a7;"></path><path d="M178.03,353.19c-1.49-5.35,12.85-16.38,29.62-16.91,16.77-.53,15.26,3.11,27.1,2.26,11.84-.84,17.23-1.81,23.64,1.98,3.13,1.81,4.06,8.2-7.37,10.94-11.42,2.74-19.59-1.1-24.93-1.41-5.34-.31-14.85,4.5-30.25,6.92-12.39,1.95-16.56,.74-17.81-3.78Z"></path></g><g><path d="M185.01,407.24c-1.74,1.65-8.68-1.23-12.9-4.5-4.22-3.27-15.67-8.55-20.18-10.95-4.51-2.4-15.1-6.07-19.14-7.02-10.45-2.47-15.03-2.82-20.12-8.09-3.91-4.04-3.22-8.77-3.22-8.77,0,0,4.01,4.89,19.75,2.47,15.74-2.42,24.08-6.87,29.78-6.03,5.69,.84,20.56,5.15,30.36-2.58,3.05-2.4,1.78-6.1,.46-6.53,2.48,1.37,3.2,3.4,3.89,5.5,.44,1.35,.98,3.21,1.38,4.46,1.02,3.18,2.68,9.18,6.93,12.12,2.32,1.61,3.14,2.1,2.3,3.99l-19.3,25.93Z" style="fill:#455a64;"></path><path d="M112.88,361.13c-4.66,3.92-4.12,6.01-3.57,9.04,.54,3.03,1.85,3.93,4.94,5.03,3.86,1.37,10.83,1.38,17.68-.02,6.85-1.41,21.06-6.89,25.37-6.48,4.31,.41,11.5,3.33,20.2,2.48,8.69-.85,12.24-3.25,14.45-5.41,2.4-2.35,1.79-4.96,1.79-4.96,0,0-.1-5.4-7.05-7.09-6.03-1.46-73.8,7.4-73.8,7.4Z" style="fill:#263238;"></path><path d="M203.42,380.96c-6.68-2.63-10.03,6.48-13.36,10.31-3.36,3.87-5.33,4.08-12.32,2.11-5.83-1.65-11.02-1.5-11.02-1.5,0,0,5.82,2.06,8.12,4.62s-.73,4.27,2.52,6.19c5.09,3.01,10.29,6.13,13.52,8.06l7.94,5.25,19.77,12.48,9.33-37.88-24.5-9.64Z" style="fill:#ffa8a7;"></path><path d="M109.45,367.91c-1.49-5.35,12.85-16.38,29.62-16.91,16.77-.53,15.26,3.11,27.1,2.26,11.84-.84,17.23-1.81,23.64,1.97,3.13,1.81,4.06,8.2-7.37,10.94-11.42,2.74-19.59-1.1-24.93-1.41-5.34-.31-14.85,4.5-30.25,6.92-12.39,1.95-16.56,.74-17.81-3.78Z"></path></g><g id="Leg"><g><path d="M239,367.2c2.92-10.48,9.99-11.51,9.99-11.51l37.58,9.07s-89.73-50.04-89.7-60.35l99.53-28.64s65.85,75.22,78.04,102.89c7.19,16.31,8.31,28.63,1.79,36.97-11.03,14.12-27.92,13.21-56.45,4.15-28.87-9.17-74.25-23.16-74.25-23.16,0,0-11.14-12.86-6.53-29.41Z" style="fill:#455a64;"></path><path d="M238.32,370.26c.17-1,.4-2.02,.69-3.06,.18-.65,.38-1.27,.59-1.85,.06-.16,.12-.29,.18-.45,.16-.41,.32-.82,.49-1.2,.06-.13,.13-.25,.19-.38,.18-.37,.36-.74,.54-1.07,.06-.11,.12-.2,.19-.3,.2-.33,.4-.67,.6-.97,.05-.08,.11-.14,.16-.21,.22-.31,.44-.61,.66-.88,.05-.06,.09-.1,.14-.16,.23-.27,.46-.54,.69-.78,.04-.04,.08-.07,.12-.11,.24-.24,.48-.47,.71-.67,.03-.03,.06-.05,.09-.08,.24-.21,.48-.4,.72-.58,.03-.02,.05-.04,.08-.05,.24-.17,.47-.33,.7-.48,.02-.01,.04-.02,.05-.03,.23-.14,.46-.27,.68-.39l.04-.02c.22-.11,.43-.22,.62-.3l.04-.02c.19-.08,.37-.16,.54-.22l.05-.02c.16-.06,.3-.11,.43-.14,.02,0,.03,0,.05-.02,.12-.03,.22-.06,.31-.08h.06c.07-.03,.13-.04,.17-.05h.08v-.02h.01l5.42,1.31,32.16,7.76h0s-8.84-9.67-16.92-20.17l-.02-.03h0c-.33-.43-.66-.86-.98-1.28l-.02-.03s-.03-.04-.05-.06c-.31-.41-.62-.83-.93-1.24l-.05-.06c-1.46-1.96-2.86-3.92-4.15-5.82-.03-.04-.05-.08-.08-.12-.42-.62-.83-1.24-1.22-1.85l35.96-33.8c3.91,20.55-10.42,39.07-10.42,39.07,0,0,34.84,43.34,48.26,62.91,10.53,15.36,24.45,17.34,34.62,12.15,9.06-4.63,9.86-12.6,9.93-13.65,.23,5.88-1.12,10.84-4.26,14.86-11.03,14.12-27.92,13.21-56.45,4.15-28.86-9.17-74.23-23.16-74.25-23.16h0s-9.15-10.56-7.43-24.86c.06-.49,.13-.99,.22-1.49Z" style="fill:#37474f;"></path><path d="M278.59,379.44c-11.96-11.46-42.44-25.11-49.16-28.25,3.65-4.67,7.8-4.96,7.9-4.97h.01l18.31,6.21,18.31,6.21s21.65,33.26,35.84,36.74c0,0-17.37-2.68-31.21-15.94Z" style="opacity:.15;"></path></g></g><g id="Le"><g><path d="M205.4,400.39c2.29-9.34,9.16-15.15,9.16-15.15l6.01,2.28s-14.32-18.73-24.19-32.57c-16.49-23.11-20.78-53.18-7.02-81.02l68.43,18.06,38.62-16.21c11,39.42-21,64.5-21,64.5,0,0,31.93,50.58,39.36,69.19,7,17.53,5.89,31.65-1.35,39.38-12.26,13.07-31.5,16.1-58.1,2.35-25.22-13.03-50.89-31.5-50.89-31.5,0,0-2.36-5.73,.97-19.3Z" style="fill:#455a64;"></path><path d="M214.56,385.24l6.01,2.27h0s29.78,35.86,43.97,39.34c0,0-17.83-2.22-31.21-15.94-8.74-8.96-18.78-25.68-18.78-25.68Z" style="fill:#37474f;"></path></g></g><path d="M206.03,301.55c-.25,.72-.48,1.45-.72,2.18-.21,.73-.38,1.48-.57,2.22-.69,2.97-1.02,6-1.19,9.03-.12,3.03-.07,6.08,.34,9.11,.41,3.01,1.09,6.07,2.55,8.76-.38-3.01-.43-5.95-.45-8.9,.02-.74,.04-1.48,.03-2.21,0-.74,.04-1.47,.06-2.21,.04-1.47,.06-2.95,.17-4.42,.03-1.47,.15-2.94,.24-4.42l.15-2.21c.08-.73,.13-1.47,.18-2.21,.31-2.94,.5-5.87,1.42-8.75-1.03,1.15-1.62,2.61-2.21,4.02Zm8.47,17.07c.2,2.14,.49,4.28,.82,6.4,.38,2.11,.77,4.23,1.3,6.31,1.02,4.16,2.32,8.29,4.18,12.16-.79-4.21-1.49-8.38-2.11-12.56-.15-1.05-.27-2.09-.44-3.13-.15-1.04-.26-2.09-.4-3.14-.25-2.09-.51-4.18-.66-6.27-.4-4.18-.61-8.37-.6-12.57,.03-4.19,.31-8.38,1.18-12.58-1.94,3.85-2.85,8.18-3.28,12.47-.44,4.31-.35,8.64,0,12.93Zm91.09,107.24c-2.58-7.53-5.97-14.73-9.66-21.74-3.75-6.98-7.83-13.77-12.21-20.35-4.37-6.59-9.01-13-13.98-19.14l12.2,20.26c4,6.77,7.94,13.57,11.61,20.5,1.86,3.45,3.62,6.95,5.32,10.48,.82,1.78,1.69,3.53,2.47,5.33l1.15,2.7c.39,.9,.8,1.79,1.14,2.7,2.88,7.26,5.3,14.74,6.11,22.61l.02-2.97c0-.5,0-.99-.02-1.49l-.14-1.48-.31-2.97-.53-2.93c-.73-3.92-1.87-7.74-3.14-11.51Zm58.53-27.37c-1.18-3.8-2.75-7.47-4.45-11.06-3.43-7.18-7.63-13.94-12.12-20.48-4.53-6.5-9.37-12.78-14.49-18.8-5.11-6.04-10.45-11.87-16.1-17.39l14.46,18.71c4.75,6.27,9.46,12.56,13.9,19.02,2.25,3.21,4.4,6.49,6.49,9.8,1.02,1.67,2.09,3.31,3.07,5.01l1.45,2.55c.49,.85,1,1.68,1.44,2.55,3.7,6.88,6.97,14.02,8.68,21.75l-.32-2.95c-.06-.49-.11-.99-.19-1.48l-.31-1.45-.65-2.91-.87-2.85Z" style="fill:#37474f;"></path></g><g id="Top"><g><g><path d="M260.61,161.33c12.16-1.83,68.4-11.55,68.4-11.55l34.76,12.36c-.78,8.13-7.06,14.89-38.85,22.3-30.72,7.16-47.34,17.51-47.34,17.51l-16.97-40.63Z" style="fill:#ffa8a7;"></path><path d="M312.7,152.59c3.4,3.54,8.98,8.88,11.96,11.67,8.89,8.31,15.35,9.08,22.61,8.56l-6.17-17.8-1.12-1.33-10.96-3.9s-6.87,1.19-16.32,2.81Z" style="fill:#f28f8f;"></path></g><g><path d="M281.92,91.56s-1.04,.05-2.22-1.53c-1.19-1.58-1.69-2.86-2.98-4.64-1.29-1.78-3.89-4.52-5.88-3.86-1.99,.66-.65,5.18,1.09,8.49,1.75,3.3,2.77,5.25,2.59,10.16-.18,4.91,1.61,10.1,6.19,12.97l1.21-21.59Z" style="fill:#f28f8f;"></path><path d="M313.68,145.76c6.42,8.2,8.84,11.07,12.63,15.54,2.1,2.48,7.41,8.03,12.96,9.99,4.88,1.73,8.19,1.85,14.3,1.12,1.66-.2,4.13-.81,5.39-1.89,3.1-2.65,5.69-6.87,4.54-11.12-2.31-8.58-6.1-13.85-11.54-19.28-2.57-2.56-3.9-3.61-11.79-9.41-6.41-4.71-11.35-7.91-20.3-15.03-8.12-6.46-15.64-12.94-19.15-17.3-3.52-4.36-5.31-7.69-6.01-10.81-1.06-4.75-.33-4.97-4.34-9.07-2.75-2.65-4.87-6.73-6.62-9.08s-3.75-4.07-6.23-6c-2.47-1.93-5.14-4.78-6.24-4.6-1.11,.18-2.11,2.06-.92,4.02,0,0-2.03-.8-3.92-1.76-1.89-.96-3.66-2.48-5.31-2-1.65,.47-1.08,3.13,.32,4.43,1.4,1.3,2.31,1.98,2.31,1.98,0,0-1.07,1.43,1.77,3.58,1.54,1.16,2.67,1.56,3.8,2.08,1.7,1.92,2.39,2.95,4.49,4.13,1.78,1.72,3.11,3.27,5.01,4.43,.33,1.79,.09,4.26,1.57,6.85,1.48,2.59,2.24,2.96,.93,7.79-.88,3.25-3.06,7.61-3.37,11.59-.32,3.98,.81,6.42,4.29,8.78,2.97,2.02,7.17,2.36,11.78,7.23,3.65,3.86,8.23,9.2,19.67,23.82Z" style="fill:#ffa8a7;"></path><path d="M270.35,62.83c.68,.81,1.44,1.5,2.23,2.17,.79,.66,1.62,1.29,2.44,1.86l.12,.09,.07,.19c.18,.48,.43,1,.7,1.48,.27,.49,.59,.94,.92,1.38,.67,.88,1.49,1.64,2.42,2.27l.23,.15v.23c.03,.39,.1,.84,.19,1.26,.09,.42,.19,.85,.34,1.27,.14,.41,.28,.84,.48,1.24,.18,.41,.41,.79,.64,1.19-.7-.6-1.27-1.35-1.72-2.17-.22-.41-.42-.84-.57-1.29-.15-.45-.28-.89-.36-1.4l.24,.38c-1.09-.61-2.07-1.43-2.83-2.41-.39-.48-.72-1.01-1.01-1.55-.3-.55-.53-1.1-.71-1.74l.2,.28c-.86-.68-1.61-1.42-2.31-2.22-.69-.81-1.31-1.7-1.71-2.68Z" style="fill:#f28f8f;"></path><path d="M263.75,65.48c.54,.27,1.09,.49,1.66,.65,.57,.15,1.16,.28,1.72,.33h.11l.12,.14c.85,.87,1.86,1.65,2.92,2.26,1.06,.63,2.22,1.04,3.41,1.24l.37,.06,.11,.36c.18,.59,.47,1.26,.79,1.87,.33,.61,.7,1.21,1.11,1.79,.42,.57,.86,1.13,1.35,1.66,.47,.55,1.01,1.03,1.53,1.55-.66-.33-1.29-.73-1.89-1.17-.61-.44-1.15-.95-1.67-1.5-.51-.55-.97-1.15-1.37-1.79-.4-.65-.75-1.3-.99-2.1l.48,.42c-.69-.11-1.38-.24-2.02-.51-.64-.26-1.26-.55-1.82-.93-.56-.37-1.1-.78-1.59-1.24-.48-.47-.93-.94-1.33-1.51l.23,.14c-.63-.16-1.2-.38-1.75-.68-.55-.28-1.07-.62-1.5-1.05Z" style="fill:#f28f8f;"></path><path d="M281.55,82.75c.65,1.16,.93,2.51,.99,3.84,.04,1.34-.16,2.67-.54,3.95-.05-.67-.03-1.32-.03-1.98,0-.65,0-1.3-.02-1.94-.03-1.29-.18-2.56-.38-3.87Z" style="fill:#f28f8f;"></path><path d="M278.73,101.45c.5,2.42,1.28,4.65,2.67,6.5,.67,.94,1.49,1.76,2.41,2.5,.92,.73,1.95,1.36,3.03,2-1.25-.17-2.47-.59-3.57-1.23-1.11-.63-2.08-1.52-2.85-2.55-1.52-2.07-2.15-4.75-1.69-7.21Z" style="fill:#f28f8f;"></path></g></g><g><path d="M289.13,228.01c10.39-17.06,5.92-31.73-.42-40.57-9.72-13.53-28.09-26.11-28.09-26.11,0,0-6.69,.24-13.27-.68-6.58-.92-26.02-.15-40.54,4.75-16.46,5.55-24.49,8.59-24.49,8.59,0,0-.85,14.75,.1,27.56,1.31,17.55,2.33,34.06,2.33,34.06,.43,6.61,7.07,22.02,2.46,35.8-4.84,14.47-6.41,27.55-6.41,27.55,37.39,19.18,92.45,16.07,121.13-17.13-4.45-17.57-12.37-29.52-12.37-29.52,0,0,.2-15.37-.42-24.29Z" style="fill:#BA68C8;"></path><path d="M260.12,231.36s-6.1,11.61-23.99,12.08c-17.88,.46-23.83-11.95-23.83-11.95,0,0,2.23,17.02,23.59,16.39,21.04-.62,24.22-16.51,24.22-16.51Z" style="opacity:.2;"></path></g><g id="Hair"><path d="M249,129.81c1.05-3.4,1.82-7.19,3.9-10.15,2.05-2.91,5.16-4.83,7.73-7.22,2.76-2.56,7.04-5.44,9.27-8.48,9.58-13.06,6.77-23.25,1.87-30.07-11.32-15.75-30.09-18.41-41.74-16.74-22.09,3.16-31.64,10.97-31.63,22.8-6.72,1.36-9.98,5.3-12.59,10.77-2.14,4.49-2.36,7.89-.29,20.21,.44,2.6,.52,6.41-.05,8.97-.92,4.12-3.62,8.59-4.28,12.75-.77,4.85-.55,10.3,2.18,14.49,5.14,7.9,11.02,7.7,11.06,7.76-1.89-3.28-2.04-7.52-.37-10.92,.37,3.17,.77,6.45,2.42,9.17,2.75,4.53,8.36,6.48,13.62,6.91,4.48,.37,9.07-.12,13.26-1.74,4.19-1.63,7.98-4.43,10.5-8.17,2.53-3.76,3.75-8.32,6.64-11.85,1.42-1.73,3.16-1.98,4.79-3.31,1.6-1.3,3.08-3.22,3.7-5.21Z" style="fill:#37474f;"></path><path d="M240.53,83.89c.05-3.86,1.14-7.42,4.05-10.1,3.97-3.65,10.22-4.88,14.93-3.83,4.92,1.09,9.44,4.03,12.28,8.18,5.4,7.9,4.06,18.23,.46,26.56-.49,1.13-1.02,2.26-1.26,3.47-.49,2.55,.41,5.19,1.7,7.45,1.29,2.26,2.97,4.28,4.25,6.54,4.88,8.62,3.69,24.11-6.21,28.76,.32-1.12,.02-3.19-.43-4.26-.26,2.52-.79,6.45-9.38,10.7-6.8,3.37-18.99,1.09-18.99,1.09,0,0-.82-18.21-.94-21.43-.14-3.85-.24-7.7-.32-11.55-.26-12.59-.29-25.18-.18-37.78,.01-1.27,.02-2.54,.04-3.81Z" style="fill:#263238;"></path></g><g id="Head"><path d="M246.21,151.81s.07,1.62,.18,4.48c.08,2,1.51,2.94,3.85,3.07,4.42,1.72,16.58,13.25,.57,18.42-27.68,8.95-42.17-9.63-44.02-12.38,4.73-1.89,5.88-4.22,5.33-12.3-.51-7.42-1.61-21.85-1.61-21.85-.08,1.38-6.56,5.49-12.88-1.31-6.49-6.98-6.01-17.17-1.77-21.43,6.54-6.58,16.47-1.35,17.93,7.61,5.25,2.6,6.84-3.88,3.22-11.11,1.42-1.05,6.56-1.4,5.69-14.35,.47-6.48,10.09-11.28,17.84-6.72,6.74-6.96,18.92-4.68,23.1,2.96,3.64,7.4,4.34,7.38,3.76,16.8-.21,3.33,1.69,8.25,2.1,12.66,1.83,19.57-3.89,28.19-9.96,31.81-4.07,2.43-6,3.38-13.33,3.63" style="fill:#ffa8a7;"></path><path d="M246.59,91.16c-.24-.33-.5,.04-.5,.32,0,.3-.04,.51,.01,.8,.02,.14,.06,.29,.08,.43,.04,.25,.07,.49,.11,.74,.07,.47,.12,.95,.13,1.43,.01,.49,0,.97-.04,1.46-.02,.32-.07,.64-.07,.96-.01,.35,.05,.67,.09,1.01,.02,.16,.14,.33,.29,.17,.23-.26,.43-.47,.54-.81,.09-.3,.14-.62,.18-.92,.08-.59,.1-1.19,.09-1.78-.03-1.26-.15-2.74-.91-3.79Z" style="fill:#f28f8f;"></path><path d="M246.21,151.81c-9.76,.1-16.81-2.53-21.24-5.3-3.79-2.37-6.52-6.45-8.02-9.15,0,0-.42,6.56,7.17,12.89,8.78,7.33,22.28,6.04,22.28,6.04l-.18-4.48Z" style="fill:#f28f8f;"></path><g><path d="M242.23,99.11c.04-.25,.04-.52,0-.78-.08-.52-.22-1.02-.45-1.5-.47-.99-1.38-2.11-2.52-2.3-.21-.04-.35,.23-.37,.4-.02,.24,.1,.47,.28,.62,.12,.09,.24,.2,.36,.29l.03,.02s0,0,.02,.02c.04,.04,.08,.07,.12,.11,.08,.07,.15,.14,.23,.21l.05,.05s.06,.06,.07,.07c.13,.15,.24,.3,.35,.47l.02,.04s.05,.09,.07,.13c.05,.09,.09,.18,.13,.27,.02,.04,.03,.07,.05,.11,0,.02,0,.02,.01,.03v.03c.04,.1,.07,.19,.1,.29,.03,.1,.05,.2,.07,.3v.07s.02,.07,.02,.08c.02,.22,.04,.44,.07,.66,.01,.11,.02,.22,.04,.32,.01,.07,.05,.27,.04,.14,0,.05,0,.1,0,.15,0,.24,.12,.51,.34,.63,.18,.1,.45,.08,.54-.13,.12-.26,.26-.51,.3-.8Z" style="fill:#f28f8f;"></path><path d="M252.21,94.51c.21-.17-.12,.09-.15,.12-.12,.1-.22,.21-.32,.32-.14,.16-.27,.35-.37,.54-.18,.35-.34,.73-.45,1.11-.12,.4-.2,.8-.2,1.22,0,.24,.04,.45,.09,.68,.02,.08,.03,.16,.05,.25,.04,.17,.13,.28,.24,.38,.09,.19,.18,.38,.3,.55,.09,.12,.28,.21,.37,.03,.08-.15,.07-.31,.12-.46,.05-.15,.11-.21,.14-.36,.04-.28,.08-.56,.12-.85,.05-.33,.1-.66,.18-.98,.18-.71,.5-1.25,.75-1.93,.15-.4-.52-.92-.86-.64Z" style="fill:#f28f8f;"></path><path d="M237.58,115.6c.42,2.72-2.43,5.43-6.37,6.03-3.94,.61-7.47-1.11-7.89-3.83-.42-2.72,2.43-5.43,6.37-6.03,3.94-.61,7.47,1.11,7.89,3.83Z" style="fill:#f28f8f;"></path><path d="M274.33,114.46c-.37,2.73-3.87,4.52-7.82,3.98-3.95-.53-6.85-3.18-6.48-5.91,.37-2.73,3.87-4.52,7.82-3.98,3.95,.53,6.85,3.18,6.48,5.91Z" style="fill:#f28f8f;"></path><path d="M238.6,97.04l-7.99,6.47c1.18,.55,5.14,.52,6.93-.62,2.28-1.46,2.62-4.09,1.06-5.84Z" style="fill:#263238;"></path><path d="M254.47,96.41l8.48,5.81c-1.13,.65-5.08,.93-6.95-.07-2.39-1.27-2.94-3.87-1.52-5.74Z" style="fill:#263238;"></path><path d="M258.37,118.26l-9.56,4.72-4.66-18.23c4.11-.41,9.09,5.94,14.23,13.52Z" style="fill:#f28f8f;"></path><path d="M227.35,114.21s-.08,.09-.08,.1c-.05,.07-.11,.14-.15,.21-.07,.12-.13,.25-.19,.37-.13,.26-.26,.51-.37,.77-.11,.26-.22,.52-.33,.78-.11,.26-.25,.6-.23,.89,.01,.14,.25,.45,.41,.3,.13-.12,.19-.27,.26-.43,.06-.13,.12-.25,.17-.38,.1-.25,.21-.5,.32-.75,.22-.5,.48-1,.61-1.52,.04-.18-.24-.54-.41-.34Zm2.11,.1c-.4,.56-.71,1.15-.94,1.8-.11,.32-.23,.64-.29,.98-.03,.18-.11,.36-.05,.55,.07,.23,.46,.27,.62,.11,.13-.13,.15-.47,.2-.65,.07-.29,.16-.57,.26-.85,.18-.5,.4-1.01,.65-1.48,.07-.14,.03-.31-.08-.42-.09-.09-.27-.16-.37-.03Zm2.33,.55c-.04-.21-.4-.47-.55-.22-.08,.13-.1,.28-.14,.42-.03,.13-.07,.26-.1,.39-.06,.23-.13,.46-.2,.68-.08,.24-.16,.47-.25,.7-.04,.11-.07,.22-.11,.33-.02,.06-.04,.12-.06,.19-.04,.13,0,.23,.03,.36,.04,.14,.26,.32,.42,.22,.12-.09,.16-.13,.23-.25,.03-.05,.05-.1,.07-.15,.06-.12,.11-.23,.15-.35,.08-.24,.16-.47,.23-.72,.07-.26,.14-.52,.2-.78,.06-.26,.13-.56,.08-.82Z" style="fill:#b16668;"></path><path d="M269.33,111.12c.12,.53,.39,1.03,.61,1.52,.11,.25,.22,.5,.32,.75,.05,.13,.11,.26,.17,.38,.08,.15,.13,.31,.26,.43,.17,.15,.4-.16,.41-.3,.03-.29-.12-.62-.23-.89-.11-.26-.22-.52-.33-.78-.12-.26-.24-.52-.37-.77-.06-.12-.12-.25-.19-.37-.05-.07-.1-.14-.15-.21,0-.01-.05-.07-.08-.1-.18-.2-.46,.16-.41,.34Zm-2.07-.21c-.11,.11-.16,.28-.08,.42,.25,.47,.46,.98,.65,1.48,.1,.28,.19,.57,.26,.85,.05,.18,.07,.52,.2,.65,.16,.16,.55,.12,.62-.11,.06-.19-.02-.37-.05-.55-.06-.33-.17-.66-.29-.98-.23-.65-.54-1.24-.94-1.8-.09-.13-.28-.06-.37,.03Zm-1.89,1.34c.06,.26,.13,.52,.2,.78,.07,.24,.15,.48,.23,.72,.04,.12,.1,.24,.15,.35,.02,.05,.05,.1,.07,.15,.06,.12,.1,.17,.23,.25,.15,.11,.37-.07,.42-.22,.04-.13,.07-.23,.03-.36-.02-.06-.04-.12-.06-.19-.04-.11-.07-.22-.11-.33-.09-.23-.17-.46-.25-.7-.07-.23-.14-.45-.2-.68-.03-.13-.07-.26-.1-.39-.04-.14-.06-.3-.14-.42-.15-.25-.51,.02-.55,.22-.05,.26,.02,.56,.08,.82Z" style="fill:#b16668;"></path><g><path d="M238.73,127.84c.35-.4,1.07-.77,2.05-.63,.99,.14,1.72,.67,2.72,1.11,.71,.31,1.54,.46,2.32,.42,.99-.05,1.73-.22,2.62-.26,.83-.04,1.76,.17,2.25,.79,1.09,1.39-.07,2.79-1.25,3.64-1.45,1.05-3.34,1.57-5.22,1.39-2.12-.21-4.07-1.33-5.13-3.01-.67-1.05-1.06-2.64-.35-3.44Z" style="fill:#b16668;"></path><path d="M238.59,130.22c.13,.38,.3,.75,.5,1.06,1.07,1.69,3.01,2.8,5.13,3.01,.43,.04,.86,.04,1.28,.01-1.3-2.33-3.91-3.97-6.91-4.09Z" style="fill:#f28f8f;"></path><path d="M243.5,128.31c-.99-.44-1.73-.97-2.72-1.11-.59-.08-1.07,.03-1.45,.21,1.47,1.73,3.74,2.87,6.29,2.91,1.77,.03,3.39-.5,4.7-1.38-.51-.36-1.22-.5-1.89-.47-.89,.04-1.63,.21-2.62,.26-.78,.04-1.61-.11-2.32-.42Z" style="fill:#fafafa;"></path></g></g><path d="M239.33,110.37c.19,1.65-.98,3.14-2.63,3.33s-3.14-.98-3.33-2.63c-.19-1.65,.98-3.14,2.63-3.33,1.65-.19,3.14,.98,3.33,2.63Z" style="fill:#263238;"></path><path d="M262,108.9c.19,1.65-.98,3.14-2.63,3.33s-3.14-.98-3.33-2.63c-.19-1.65,.98-3.14,2.63-3.33,1.65-.19,3.14,.98,3.33,2.63Z" style="fill:#263238;"></path></g><g><path d="M182.31,173.99c-15.16,5-23.67,18.24-21.34,37.81,2.87,24.09,6.29,69.35,20.86,73.25l16.19-38.14-3.06-33.79s-2.52-29.87-12.64-39.13Z" style="fill:#ffa8a7;"></path><path d="M196.1,225.85l-1.15-12.73s-.4-4.65-1.49-10.84c-10.21,16.52-20.55,34.98-20.49,46.37l23.13-22.79Z" style="fill:#f28f8f;"></path><g><path d="M225.75,208.25c-1.95,4.6-10.64,31.3-14.21,43.26-2.07,6.92-5.74,17.48-12.47,24.45-7.07,7.32-12.85,10.02-15.39,9.62-2.8-.44-8.24-3.21-11.22-13.11-3.75-12.44-1.25-22.84,3.78-32.1,6.88-12.68,16.49-26.46,18.9-31.24,4.49-8.9,6.23-11.76,7.62-20.76,1.42-9.23,4.04-15.03,5.85-20.27,1.81-5.25,1.03-11.33,1.69-14.63,.46-2.29,3.91-1.29,5.86,2.42,1.34,2.56,1.54,6.52,1.02,10.92-.24,3.68,1.21,2.52,3.34-.59,2.14-3.12,10.84-12.82,13.79-15.24,2.95-2.42,6.4-4.2,7.78-2.16,0,0,3.64-4.85,6.21-2.95,2.57,1.9,1.19,6.84,1.19,6.84,0,0,2.12,1.62,.16,6.15-1.11,2.55-5.59,9.25-6.96,11.85-1.56,2.97-2.95,6.38-2.95,6.38,0,0,6.75-8.13,9.34-10.32,2.94-2.49,4.57-.31,2.93,4.17-1.72,4.7-5.56,8.83-8.44,12.85-4.36,6.07-8.5,12.37-13.42,18.06-1.65,1.91-3.41,4.08-4.4,6.41Z" style="fill:#ffa8a7;"></path><path d="M218.58,168.63c-1,.91-1.56,.57-1.4-1.82,.52-4.4,.32-8.36-1.02-10.92,.37,1.78,.37,5.69-.75,8.96-1.12,3.27-2.44,6.29-1.5,7.03,.94,.74,3.45-1.52,4.67-3.25h0Z" style="fill:#f28f8f;"></path><path d="M222.61,174.15c1.57-1.82,3.07-3.69,4.5-5.61,1.46-1.89,2.81-3.88,4.29-5.65,1.52-1.86,5.09-6.3,6.51-8.22,1.44-1.91,2.79-3.89,4.19-5.86-3.69,3.04-8.87,9.31-11.92,12.94-1.57,1.91-2.85,3.94-4.11,6-1.26,2.06-2.41,4.19-3.46,6.39" style="fill:#f28f8f;"></path><path d="M249.5,152.7c-.22-.23-.5-.43-.83-.51-.34-.07-.69,0-1.01,.1-.65,.24-1.2,.64-1.72,1.06-1.02,.87-1.9,1.88-2.73,2.9-1.67,2.01-5.38,6.63-6.93,8.76-.76,1.08-1.52,2.16-2.21,3.31-.71,1.17-1.29,2.37-1.88,3.53-1.21,2.33-2.38,4.71-3.47,7.14,1.62-2.08,3.14-4.22,4.55-6.45,.74-1.11,1.34-2.28,2.07-3.31,.71-1.07,1.47-2.13,2.24-3.17,1.51-2.12,5.16-6.78,6.64-8.96,.74-1.07,1.45-2.15,2.28-3.11,.76-.92,1.81-2.03,3.01-1.29Z" style="fill:#f28f8f;"></path><path d="M234.87,183.06s2.19-3.8,3.38-6.02c1.18-2.23,5.86-8.77,5.86-8.77h0c-.36,.57-1.15,1.93-1.41,2.43-1.56,2.97-3.94,8.02-3.94,8.02-1.83,1.85-3.88,4.35-3.88,4.35Z" style="fill:#f28f8f;"></path><path d="M176.24,240.37c4.23-7.93,9.64-16.46,14.42-24.14,3.38-5.25,6.27-10.8,8.79-16.49,2.62-5.73,2.84-12.1,4.38-18.14,1.27-6.1,4.51-11.74,5.42-17.87,.52-3.46,.11-7.04,.76-10.57,.45-1.6,2.41-1.44,3.47-.74,5.17,3.26,4.4,10.12,4.06,15.36,0,.35,.07,.76,.18,.91,.05,.04-.03,.02,.08,0,.1-.03,.24-.12,.37-.23,1.08-.96,1.86-2.35,2.84-3.6,1.94-2.48,3.99-4.84,6.1-7.16,3.74-3.75,7.41-9.03,12.9-10.15,.88-.1,1.9,.26,2.39,1.05l-.62-.02c4.95-6.5,9.86-3.21,8.04,4.21l-.12-.37c3.29,3.83-1.45,9.31-3.33,12.76-1.19,1.94-2.44,3.85-3.51,5.83-1.04,2.01-1.98,4.08-2.86,6.17l-.49-.29c1.83-2.18,3.68-4.33,5.59-6.45,1.77-1.73,3.25-4.1,5.68-4.94,4.08-.39,1.22,6.64,.1,8.38-1.39,2.51-3.15,4.77-4.89,7.01-3.5,4.46-6.63,9.22-10.05,13.76-3.16,4.71-7.72,8.46-10.21,13.6,2.43-5.17,6.94-8.97,10.04-13.72,3.36-4.58,6.41-9.37,9.88-13.89,1.73-2.25,3.47-4.5,4.82-6.97,.94-1.82,3.02-5.92,1.26-7.58-.49-.29-1.19-.04-1.75,.3-4.18,3.39-7.7,8.25-11.26,12.32,1.1-2.68,2.25-5.4,3.58-7.97,1.08-2.03,2.32-3.94,3.5-5.88,1.68-3.1,6.41-8.81,3.27-12.03,.53-2.16,.88-5.25-1.09-6.72-2.21-1.26-4.67,1.77-5.95,3.36-2.77-4.72-12.19,6.53-14.33,8.8-2.08,2.32-4.16,4.65-6.08,7.09-.83,.81-3.11,5.34-4.57,3.8-.32-.52-.29-.93-.33-1.35,.07-2.37,.46-4.65,.23-7-.18-2.96-1.23-6.17-3.86-7.76-1.6-.89-2.58-.44-2.63,1.42-.41,4.59-.03,9.51-1.68,13.97-1.53,4.26-3.37,8.93-4.44,13.31-1.56,6.05-1.83,12.45-4.48,18.2-2.58,5.72-5.46,11.29-8.93,16.5-4.88,7.6-10.4,16.05-14.75,23.93h0Z" style="fill:#b16668;"></path></g></g></g><g><path d="M217.01,102.11c-.42,1.47-.63,3.46,.64,4.54,1.04,.88,2.64,1.05,3.59-.05,.99-1.14,.71-2.58,.38-3.91-.42-1.7-1.32-3.81-2.16-5.66-1.14,1.73-2.06,3.72-2.45,5.09Z" style="fill:#BA68C8;"></path><path d="M217.01,102.11c-.42,1.47-.63,3.46,.64,4.54,1.04,.88,2.64,1.05,3.59-.05,.99-1.14,.71-2.58,.38-3.91-.42-1.7-1.32-3.81-2.16-5.66-1.14,1.73-2.06,3.72-2.45,5.09Z" style="fill:#fff; opacity:.7;"></path></g></g></g></svg>
