<svg xmlns="http://www.w3.org/2000/svg" viewBox="0 0 500 500"><g id="Floor"><path id="Floor-2" d="M81.33,198.22c-93.16,53.78-93.16,140.98,0,194.77,93.16,53.78,244.19,53.78,337.35,0,93.16-53.78,93.16-140.98,0-194.77-93.16-53.78-244.19-53.78-337.35,0Z" style="fill:#f5f5f5;"></path></g><g id="Shadows"><path id="Shadow" d="M194.04,344.26c-6.33,0-12.38-.76-17.05-2.15l-.58-.17c-6.52-1.93-17.35-3.39-25.2-3.39-.83,0-1.63,.02-2.39,.05l-2.98,.14c-.63,.03-1.29,.05-1.95,.05-10.02,0-22.33-3.42-29.26-8.14-5.2-3.54-15.8-7.69-23.14-9.04l-1.95-.36c-9.36-1.73-21.24-7.81-25.83-16.07-1.88-3.38-8.56-9.4-14.69-12.4-9.44-4.62-16.04-13.7-16.05-22.07,0-.75,.05-1.49,.15-2.21,.4-2.79-1.5-8.81-4.44-12.12-6.97-7.83-6.97-20.1,0-27.92,2.95-3.31,4.84-9.33,4.44-12.1-1.26-8.81,5.58-19.26,15.89-24.31,6.13-3,12.81-9.02,14.69-12.4,4.59-8.26,16.47-14.33,25.83-16.07l1.95-.36c7.34-1.36,17.94-5.5,23.14-9.05,6.93-4.72,19.23-8.14,29.26-8.14,.67,0,1.32,.02,1.95,.05l2.97,.14c.75,.04,1.55,.05,2.38,.05,7.85,0,18.69-1.46,25.21-3.39l.58-.17c4.66-1.38,10.72-2.15,17.05-2.15s12.38,.76,17.04,2.15l.58,.17c6.52,1.93,17.36,3.39,25.21,3.39,.83,0,1.63-.02,2.38-.05l2.98-.14c.64-.03,1.29-.05,1.95-.05,10.02,0,22.33,3.42,29.26,8.14,5.2,3.54,15.8,7.69,23.14,9.05l1.95,.36c9.36,1.74,21.24,7.81,25.83,16.07,1.88,3.38,8.56,9.4,14.69,12.4,10.32,5.05,17.15,15.5,15.89,24.3-.4,2.78,1.5,8.8,4.44,12.11,6.97,7.83,6.97,20.1,0,27.93-2.95,3.31-4.84,9.33-4.44,12.1,1.26,8.81-5.58,19.26-15.89,24.31-6.13,3-12.81,9.02-14.69,12.4-4.59,8.26-16.47,14.33-25.83,16.07l-1.95,.36c-7.34,1.36-17.94,5.5-23.14,9.04-6.93,4.72-19.23,8.14-29.25,8.14-.67,0-1.32-.02-1.96-.05l-2.97-.14c-.76-.04-1.56-.05-2.39-.05-7.85,0-18.69,1.46-25.21,3.39l-.57,.17c-4.67,1.39-10.72,2.15-17.05,2.15Z" style="fill:#e0e0e0;"></path><path id="Shadow-2" d="M276.84,323.43c-44.76,25.84-44.75,67.74,0,93.58,44.76,25.84,117.32,25.84,162.08,0,44.76-25.84,44.75-67.74,0-93.58-44.76-25.84-117.32-25.84-162.08,0Z" style="fill:#e0e0e0;"></path></g><g id="Pumpkin_pie"><g id="Cake_Stand"><g><path d="M353.5,226.41c-4.28-4.81-7.13-13.08-6.36-18.47,.77-5.39-4.4-12.6-11.55-16.09-7.15-3.5-15.26-10.51-18.12-15.66-2.86-5.15-11.98-10.59-20.36-12.14l-1.95-.36c-8.38-1.55-20.09-6.16-26.15-10.28-6.06-4.13-17.87-7.14-26.39-6.74l-2.98,.14c-8.52,.4-22.04-1.23-30.22-3.66l-.58-.17c-8.17-2.43-21.42-2.43-29.6,0l-.58,.17c-8.17,2.43-21.7,4.06-30.22,3.66l-2.98-.14c-8.52-.4-20.33,2.61-26.39,6.74-6.06,4.13-17.77,8.73-26.15,10.28l-1.95,.36c-8.38,1.55-17.5,6.99-20.36,12.14-2.86,5.15-10.98,12.16-18.12,15.66-7.15,3.5-12.32,10.7-11.55,16.1,.77,5.39-2.08,13.66-6.36,18.47-2.15,2.42-3.22,5.59-3.21,8.76,0,1.2,0,5.93,0,7.13-.01,3.17,1.05,6.35,3.21,8.77,3.2,3.59,5.6,9.12,6.29,13.93v5.64c0,5.23,4.95,11.73,11.62,14.99,7.15,3.5,15.26,10.51,18.12,15.66,2.86,5.15,11.98,10.59,20.36,12.14l1.95,.36c8.38,1.55,20.09,6.16,26.15,10.28,6.06,4.13,17.87,7.14,26.39,6.74l2.98-.14c8.52-.4,22.04,1.23,30.22,3.66l.58,.17c8.17,2.43,21.42,2.43,29.6,0l.58-.17c8.17-2.43,21.7-4.06,30.22-3.66l2.98,.14c8.52,.4,20.33-2.61,26.39-6.74,6.06-4.13,17.77-8.73,26.15-10.28l1.95-.36c8.38-1.55,17.5-6.99,20.36-12.14,2.86-5.15,10.98-12.16,18.12-15.66,6.68-3.27,11.64-9.78,11.62-15.02,0-.36,0-5.61,0-5.61,.69-4.81,3.09-10.34,6.29-13.93,2.14-2.41,3.21-5.56,3.21-8.71,0-1.22,0-6.03,0-7.25,0-3.15-1.07-6.3-3.21-8.7Z" style="fill:#BA68C8;"></path><path d="M353.5,226.41c-4.28-4.81-7.13-13.08-6.36-18.47,.77-5.39-4.4-12.6-11.55-16.09-7.15-3.5-15.26-10.51-18.12-15.66-2.86-5.15-11.98-10.59-20.36-12.14l-1.95-.36c-8.38-1.55-20.09-6.16-26.15-10.28-6.06-4.13-17.87-7.14-26.39-6.74l-2.98,.14c-8.52,.4-22.04-1.23-30.22-3.66l-.58-.17c-8.17-2.43-21.42-2.43-29.6,0l-.58,.17c-8.17,2.43-21.7,4.06-30.22,3.66l-2.98-.14c-8.52-.4-20.33,2.61-26.39,6.74-6.06,4.13-17.77,8.73-26.15,10.28l-1.95,.36c-8.38,1.55-17.5,6.99-20.36,12.14-2.86,5.15-10.98,12.16-18.12,15.66-7.15,3.5-12.32,10.7-11.55,16.1,.77,5.39-2.08,13.66-6.36,18.47-2.15,2.42-3.22,5.59-3.21,8.76,0,1.2,0,5.93,0,7.13-.01,3.17,1.05,6.35,3.21,8.77,3.2,3.59,5.6,9.12,6.29,13.93v5.64c0,5.23,4.95,11.73,11.62,14.99,7.15,3.5,15.26,10.51,18.12,15.66,2.86,5.15,11.98,10.59,20.36,12.14l1.95,.36c8.38,1.55,20.09,6.16,26.15,10.28,6.06,4.13,17.87,7.14,26.39,6.74l2.98-.14c8.52-.4,22.04,1.23,30.22,3.66l.58,.17c8.17,2.43,21.42,2.43,29.6,0l.58-.17c8.17-2.43,21.7-4.06,30.22-3.66l2.98,.14c8.52,.4,20.33-2.61,26.39-6.74,6.06-4.13,17.77-8.73,26.15-10.28l1.95-.36c8.38-1.55,17.5-6.99,20.36-12.14,2.86-5.15,10.98-12.16,18.12-15.66,6.68-3.27,11.64-9.78,11.62-15.02,0-.36,0-5.61,0-5.61,.69-4.81,3.09-10.34,6.29-13.93,2.14-2.41,3.21-5.56,3.21-8.71,0-1.22,0-6.03,0-7.25,0-3.15-1.07-6.3-3.21-8.7Z" style="fill:#fff; opacity:.15;"></path><path d="M90.99,164.04l1.95-.36c8.38-1.55,20.09-6.16,26.15-10.28,6.06-4.13,17.87-7.14,26.39-6.74l2.98,.14c8.52,.4,22.04-1.23,30.22-3.66l.58-.17c8.17-2.43,21.42-2.43,29.6,0l.58,.17c8.17,2.43,21.7,4.06,30.22,3.66l2.98-.14c8.52-.4,20.33,2.61,26.39,6.74,6.06,4.13,17.77,8.73,26.15,10.28l1.95,.36c8.38,1.55,17.5,6.99,20.36,12.14,2.86,5.15,10.98,12.16,18.12,15.66,7.15,3.5,12.32,10.7,11.55,16.09-.77,5.39,2.08,13.66,6.36,18.47,4.28,4.81,4.28,12.61,0,17.42-4.28,4.81-7.13,13.08-6.36,18.47,.77,5.39-4.4,12.6-11.55,16.1-7.15,3.5-15.26,10.51-18.12,15.66-2.86,5.15-11.98,10.58-20.36,12.14l-1.95,.36c-8.38,1.55-20.09,6.16-26.15,10.28-6.06,4.13-17.87,7.14-26.39,6.74l-2.98-.14c-8.52-.41-22.04,1.23-30.22,3.66l-.58,.17c-8.17,2.43-21.42,2.43-29.6,0l-.58-.17c-8.17-2.43-21.7-4.06-30.22-3.66l-2.98,.14c-8.52,.4-20.33-2.61-26.39-6.74-6.06-4.13-17.77-8.73-26.15-10.28l-1.95-.36c-8.38-1.55-17.5-6.99-20.36-12.14-2.86-5.15-10.98-12.16-18.12-15.66-6.67-3.26-11.62-9.76-11.62-14.99,0-.38,.03-.74,.08-1.1,.77-5.39-2.08-13.66-6.36-18.47-4.28-4.81-4.28-12.61,0-17.42,4.28-4.81,7.13-13.08,6.36-18.47-.77-5.39,4.4-12.6,11.55-16.1,7.15-3.5,15.26-10.51,18.12-15.66,2.86-5.15,11.98-10.59,20.36-12.14Z" style="fill:#BA68C8;"></path><path d="M90.99,164.04l1.95-.36c8.38-1.55,20.09-6.16,26.15-10.28,6.06-4.13,17.87-7.14,26.39-6.74l2.98,.14c8.52,.4,22.04-1.23,30.22-3.66l.58-.17c8.17-2.43,21.42-2.43,29.6,0l.58,.17c8.17,2.43,21.7,4.06,30.22,3.66l2.98-.14c8.52-.4,20.33,2.61,26.39,6.74,6.06,4.13,17.77,8.73,26.15,10.28l1.95,.36c8.38,1.55,17.5,6.99,20.36,12.14,2.86,5.15,10.98,12.16,18.12,15.66,7.15,3.5,12.32,10.7,11.55,16.09-.77,5.39,2.08,13.66,6.36,18.47,4.28,4.81,4.28,12.61,0,17.42-4.28,4.81-7.13,13.08-6.36,18.47,.77,5.39-4.4,12.6-11.55,16.1-7.15,3.5-15.26,10.51-18.12,15.66-2.86,5.15-11.98,10.58-20.36,12.14l-1.95,.36c-8.38,1.55-20.09,6.16-26.15,10.28-6.06,4.13-17.87,7.14-26.39,6.74l-2.98-.14c-8.52-.41-22.04,1.23-30.22,3.66l-.58,.17c-8.17,2.43-21.42,2.43-29.6,0l-.58-.17c-8.17-2.43-21.7-4.06-30.22-3.66l-2.98,.14c-8.52,.4-20.33-2.61-26.39-6.74-6.06-4.13-17.77-8.73-26.15-10.28l-1.95-.36c-8.38-1.55-17.5-6.99-20.36-12.14-2.86-5.15-10.98-12.16-18.12-15.66-6.67-3.26-11.62-9.76-11.62-14.99,0-.38,.03-.74,.08-1.1,.77-5.39-2.08-13.66-6.36-18.47-4.28-4.81-4.28-12.61,0-17.42,4.28-4.81,7.13-13.08,6.36-18.47-.77-5.39,4.4-12.6,11.55-16.1,7.15-3.5,15.26-10.51,18.12-15.66,2.86-5.15,11.98-10.59,20.36-12.14Z" style="fill:#fff; opacity:.3;"></path><path d="M194.05,329.08v7.23c-5.36,0-10.71-.6-14.8-1.8l-.58-.18c-3.82-1.13-8.8-2.09-13.89-2.76v-7.23c5.09,.66,10.08,1.62,13.89,2.75l.58,.17c4.09,1.21,9.44,1.81,14.8,1.81Z" style="fill:#fff; opacity:.35;"></path><path d="M107.56,318.24c4.47,1.8,8.64,3.87,11.53,5.83,3.3,2.25,8.31,4.16,13.55,5.37v-7.24c-5.25-1.21-10.25-3.12-13.55-5.37-2.89-1.96-7.05-4.03-11.53-5.83v7.24Z" style="fill:#fff; opacity:.35;"></path><path d="M254.35,322.45c-4.05,.85-8.18,1.29-11.74,1.11l-2.97-.13c-2.71-.13-5.92-.05-9.31,.19v7.24c3.39-.24,6.6-.32,9.31-.2l2.97,.14c3.56,.17,7.69-.27,11.74-1.12v-7.24Z" style="fill:#fff; opacity:.35;"></path><path d="M308.45,301.98c-3.49,1.95-7.49,3.49-11.35,4.21l-1.95,.37c-3.01,.55-6.45,1.51-9.91,2.69v7.24c3.45-1.18,6.9-2.14,9.91-2.69l1.95-.36c3.86-.72,7.87-2.26,11.35-4.21v-7.24Z" style="fill:#fff; opacity:.35;"></path><g style="opacity:.35;"><path d="M347.21,263.36c.02,5.24-4.94,11.75-11.62,15.03-2.57,1.26-5.25,2.97-7.78,4.88v7.24c2.53-1.91,5.21-3.62,7.78-4.87,6.68-3.27,11.63-9.79,11.62-15.02v-5.61h0v-1.64Z" style="fill:#fff;"></path></g><path d="M78.65,301.42c-3.64-2.19-6.6-4.81-8.02-7.36-1.24-2.23-3.47-4.81-6.17-7.3v7.24c2.7,2.49,4.93,5.07,6.17,7.3,1.42,2.55,4.38,5.17,8.02,7.36v-7.24Z" style="opacity:.2;"></path><path d="M40.92,262.79c.01-.16,.01-.33,.03-.49,.71-4.99-1.67-12.43-5.43-17.32-.05-.07-.1-.14-.15-.21-.09-.11-.18-.22-.27-.33-.17-.21-.34-.42-.52-.62-.26-.29-.5-.6-.73-.91-.06-.08-.1-.16-.16-.24-.17-.24-.33-.48-.48-.73-.06-.1-.11-.2-.16-.3-.13-.24-.27-.48-.38-.73-.05-.11-.09-.21-.14-.32-.11-.25-.22-.49-.31-.75-.04-.11-.08-.22-.11-.33-.09-.26-.17-.51-.24-.78-.03-.11-.06-.22-.08-.33-.07-.27-.12-.53-.17-.8-.02-.11-.04-.22-.06-.33-.04-.27-.08-.54-.1-.81-.01-.12-.02-.23-.03-.35,0-.14-.03-.27-.03-.41v6.6c-.02,3.17,1.05,6.35,3.2,8.77,3.2,3.59,5.6,9.12,6.29,13.93v-1.6s0-.04,0-.05c0-.19,.02-.38,.04-.56Z" style="opacity:.2;"></path><path d="M347.17,262.79c-.01-.16,0-.33-.03-.49-.71-4.99,1.67-12.43,5.43-17.32,.05-.07,.1-.14,.15-.21,.09-.11,.18-.22,.27-.33,.17-.21,.34-.42,.51-.62,.26-.29,.5-.6,.73-.91,.06-.08,.11-.16,.16-.24,.17-.24,.33-.48,.48-.73,.06-.1,.11-.2,.16-.3,.13-.24,.26-.48,.38-.73,.05-.11,.09-.21,.14-.32,.11-.25,.22-.49,.31-.75,.04-.11,.07-.22,.11-.33,.09-.26,.17-.51,.24-.78,.03-.11,.06-.22,.08-.33,.07-.27,.13-.53,.17-.8,.02-.11,.04-.22,.05-.33,.04-.27,.08-.54,.1-.81,.01-.12,.02-.23,.03-.35,0-.14,.03-.27,.03-.41v6.6c.02,3.17-1.05,6.35-3.2,8.77-3.2,3.59-5.6,9.12-6.29,13.93v-1.6s0-.04,0-.05c0-.19-.02-.38-.04-.56Z" style="opacity:.2;"></path></g></g><path id="Shadow-3" d="M341.75,232.12c0,47.04-66.13,85.17-147.71,85.17S46.34,279.16,46.34,232.12s66.13-85.17,147.71-85.17,147.71,38.13,147.71,85.17Z" style="fill:#BA68C8;"></path><g id="Pie"><g id="Pie-2"><g><path d="M248.41,79.6c-4.57,.79-9.95,1.43-14.27-.51-4.51-2.03-8.68-4.93-13.55-6.08-3.71-.88-7.68-.66-11.27,.62-2.27,.81-4.39,2.03-6.73,2.65-8.64,2.28-17.69-4.15-26.44-2.31-4.8,1.01-8.9,4.43-13.76,5.04-4.28,.54-8.49-.98-12.64-1.71-4.57-.81-9.42-.08-13.52,2.13-2.45,1.32-4.62,3.14-7.16,4.28-8.02,3.6-18.45,.01-25.49,5.28-3.07,2.29-4.98,5.99-8.34,7.83-3.05,1.66-6.71,1.49-10.14,2.02-5.24,.81-10.19,3.39-13.85,7.22-2.24,2.35-4.12,5.22-7.05,6.61-2.34,1.11-5.02,1.11-7.55,1.66-3.8,.82-7.28,2.96-9.8,5.91-1.34,1.57-2.19,3-2.52,4.96-.4,2.32-.22,4.68-1.39,6.82-1.22,2.22-3.54,3.57-5.27,5.41-2.69,2.87-12.02,14.35-3.73,33.66,3.18-20.79,18.5-41.08,46.06-57,62.31-35.97,163.34-35.97,225.65,0,27.57,15.91,42.88,36.21,46.06,57,2.49-1.98,5.14-3.16,6.84-7.58,1.56-4.04,1.37-10.03-.86-13.39-1.82-2.74-4.74-4.23-6.27-7.11-1.63-3.09-2-6.69-3.94-9.65-1.91-2.91-4.87-4.4-7.38-6.6-2.35-2.07-2.93-5.21-4.15-7.98-1.98-4.52-5.86-8.17-10.49-9.87-4.01-1.47-8.49-1.54-12.3-3.46-4.41-2.23-7.27-6.59-10.72-10.13-2.7-2.77-6.43-5.34-10.46-5.27-3.93,.07-8.19,.51-12.15-.18-5.06-.89-9-4.7-13.27-7.56-5.31-3.54-12.04-3.77-18.17-2.71Z" style="fill:#f0997a;"></path><path d="M63.99,116.75c-1.28-.95-3.06-.72-4.63-.44-2.51,.45-5.37,.98-7.57,2.36-4.06,2.54-5.12,8.28-5.86,12.59-.17,.97-.14,2.26,1.13,2.32,.86,.04,2.02-.52,2.66-1.05,.71-.59,1.23-1.37,1.77-2.12,1.7-2.41,3.6-4.78,6.12-6.31,1.4-.85,2.97-1.43,4.33-2.35,.93-.63,1.75-1.41,2.41-2.31,.21-.28,.4-.58,.47-.92,.13-.67-.28-1.36-.84-1.77Zm7.68-4.03c-1.56-2.36-5.27,.62-5.42,2.57-.06,.73,.21,1.48,.75,1.97,1.35,1.22,3.57,0,4.44-1.25,.67-.96,.87-2.32,.23-3.29Zm15.83-12.69c-4.75,1.2-10.95,2.86-11.79,8.64-.05,.35-.08,.71,.04,1.04,.24,.71,1.03,1.08,1.77,1.18,1.47,.2,2.94-.35,4.23-1.09,1.7-.99,3.18-2.32,4.88-3.31,2.96-1.74,6.41-2.39,9.71-3.34,1.2-.34,2.39-.73,3.48-1.35,1.25-.71,2.31-1.69,3.3-2.73,1.54-1.62,2.96-3.51,3.27-5.73,.06-.44,.08-.9-.08-1.31-.15-.41-.51-.78-.95-.83-.49-.07-.95,.25-1.32,.58-1.28,1.14-2.16,2.66-3.41,3.84-1.7,1.61-3.97,2.49-6.24,3.04-2.28,.55-4.61,.81-6.88,1.38Zm20.67-9.44c-.1,.25-.17,.53-.08,.78,.08,.2,.25,.35,.43,.47,.79,.52,1.79,.64,2.74,.58s1.88-.28,2.82-.38c1.48-.16,2.98-.02,4.45-.22,.82-.11,1.79-.52,1.84-1.34,.04-.63-.51-1.14-1.05-1.48-2.1-1.33-4.2-1.31-6.58-1.21-1.95,.09-3.81,.84-4.57,2.81Zm22.93-3.79c-.4,.99-.51,2.21,.16,3.03,.75,.91,2.13,.96,3.29,.75,4.51-.79,8.33-4.04,12.87-4.64,1.66-.22,3.35-.07,5.02-.2s3.41-.57,4.6-1.75c1.55-1.53-2.22-3.37-3.23-3.76-2.11-.82-4.44-1.31-6.74-1.38-2.43-.08-4.62,.48-6.97,.98-2.26,.48-4.52,2.02-6.27,3.46-1.15,.95-2.18,2.09-2.74,3.5Zm28.63-3.59c-.26,.48-.3,1.11-.02,1.58,.23,.39,.65,.63,1.07,.81,.68,.29,1.44,.46,2.18,.35,.74-.11,1.45-.52,1.8-1.18,1.51-2.75-3.69-4.01-5.03-1.55Zm12.1-1.23c1.59,.78,3.46,.21,5.18-.21,3.71-.9,7.56-1.03,11.38-1.25,.51-.03,1.04-.06,1.5-.3,.46-.23,.83-.72,.77-1.23-.07-.59-.66-.96-1.2-1.22-4.44-2.07-10.58-2.47-15.11-.52-.88,.38-1.74,.85-2.35,1.58-.61,.73-1.3,2.58-.17,3.13Zm21.84-1.54c.08,.47,.54,.78,.97,.97,.77,.33,1.61,.49,2.44,.47,.74-.02,1.58-.27,1.88-.94,.82-1.82-1.84-2.27-3.02-2.21-.81,.04-2.45,.65-2.28,1.72Zm30.57-3.88c-3.23-1.85-7.16-2.51-10.87-2.05-3.06,.38-8.58,1.8-9.42,5.28-.18,.74,0,1.6,.6,2.07,.56,.45,1.35,.46,2.07,.39,3.64-.38,6.86-2.53,10.43-3.36,1.24-.29,2.52-.42,3.79-.48,1.13-.06,2.26-.07,3.39-.03,.22,0,.46,.01,.65-.1,.31-.19,.36-.66,.18-.99-.17-.33-.5-.54-.82-.72Zm2.7,5.25c.08,.29,.28,.53,.48,.75,2.45,2.71,6.47,3.89,10,2.92,.54-.15,1.13-.4,1.35-.91,.22-.51,0-1.12-.36-1.54-1.07-1.21-2.96-1.07-4.53-1.47-1.45-.36-2.47-1.52-3.82-1.94-1.21-.38-3.56,.63-3.12,2.19Zm16.07,3.98c.42,.46,1,.73,1.6,.92,1.39,.43,2.87,.38,4.32,.24,3.79-.38,7.51-1.42,11.31-1.49,1.28-.02,2.55,.06,3.82,.15,.66,.04,1.5-.03,1.7-.66,.12-.39-.09-.81-.35-1.12-.6-.71-1.45-1.16-2.3-1.52-2.67-1.12-5.61-1.51-8.51-1.47-2.67,.03-5.37,.42-8.01,.79-1.75,.24-5.59,1.98-3.57,4.17Zm24.65,6.56c.83,.86,2.14,1.22,3.29,.92,.34-.09,.68-.24,.91-.51,.32-.36,.4-.9,.32-1.38-.27-1.47-2.05-4.1-3.82-3.82-2.21,.36-1.86,3.58-.7,4.78Zm14.28,1.06c-.52,.25-1.03,.54-1.4,.99-.69,.83-.7,2.15-.04,3,.71,.9,1.94,1.18,3.08,1.31,2.76,.29,5.57,.01,8.3,.49,2.09,.36,4.09,1.16,6.01,2.08,1.32,.63,2.65,1.33,4.1,1.46,.35,.03,.71,.03,1.02-.15,.75-.43,.65-1.55,.33-2.35-1.13-2.89-3.67-5.09-6.54-6.27-4.55-1.88-10.27-2.73-14.86-.56Zm22.09,12.22c.34,.67,1.19,1.04,1.91,.83,1.29-.36,1.74-2.45,.43-3.08-1.37-.66-3.06,.83-2.34,2.25Zm9.21,6.11c.73,1.54,2.53,2.24,4.21,2.56,2.43,.46,4.95,.41,7.36,.97,.62,.14,1.28,.35,1.68,.85,1.02,1.26-.15,3.5,1.03,4.6,.85,.79,2.25,.36,3.34,.77,1.53,.57,2.06,2.64,3.56,3.28,.23,.1,.51,.16,.73,.04,.28-.15,.37-.51,.4-.82,.07-.67,.04-1.35-.08-2.01-.17-.92-.52-1.8-.93-2.64-1.51-3.09-3.84-5.78-6.72-7.64-2.33-1.51-4.82-2.23-7.52-2.74-2-.38-3.5-1-5.49-.18-1.28,.53-2.25,1.52-1.56,2.97Zm23.31,17.54c-.89,.41-1.57,1.41-1.33,2.36,.1,.42,.37,.78,.66,1.1,1.47,1.59,3.69,2.26,5.32,3.68,.95,.82,1.67,1.88,2.35,2.93,.66,1.03,1.29,2.07,1.89,3.13,.42,.75,1.09,1.62,1.93,1.41,.8-.21,.99-1.25,.95-2.07-.1-2.71-.9-5.42-2.44-7.66-1.09-1.59-2.57-2.92-4.28-3.82-1.59-.83-3.23-1.9-5.05-1.05Z" style="fill:#ffbda7;"></path></g><g><path d="M349.62,174.51c-2.44,2.88-5.68,5.13-6.38,9.89-.39,2.69-.18,5.63-1.7,7.88-1.93,2.86-5.75,3.46-8.87,5l-.02-.04c-.28,.07-.49,.21-.7,.35-8.05,4.65-8.4,17.36-16.53,21.66-3.13,1.7-6.87,1.74-10.48,2.26-.06,0-.13,.01-.19,.02h-.03s-.08,.02-.13,.03c-1.35,.2-2.67,.52-3.94,.98-.31,.11-.63,.18-.93,.31-6.18,2.78-9.1,10.21-14.93,13.68-1.72,1.04-3.57,1.65-5.49,2.03-1.32,.26-2.67,.41-4.05,.49-5.07,.3-10.44-.25-15.39,.96-1.73,.42-3.38,1.1-5.01,1.86-4.73,2.19-9.17,5.31-13.84,7.3-2.65,1.12-5.38,1.89-8.3,1.81-1.89-.02-3.72-.44-5.54-.94-3.66-1.02-7.25-2.48-11.03-2.68-.65-.03-1.28,.05-1.92,.08-4.01,.22-7.86,1.67-11.71,3.18-4.16,1.62-8.33,3.21-12.72,3.1-7.72-.19-14.42-5.54-22-6.86-.32-.06-.64-.15-.97-.2-5.42-.69-10.95,.94-16.42,1.76-3.28,.48-6.53,.67-9.74-.12-4.13-1.01-7.66-3.53-11.22-5.95-3.23-2.21-6.49-4.34-10.25-5.2-3.68-.81-7.56-.34-11.36-.12-3.37,.19-6.7,.2-9.78-1.09-.92-.38-1.78-.87-2.59-1.42-5.7-3.92-8.99-11.38-15.37-14.18-3.1-1.34-6.67-1.48-10.06-1.93-2.92-.4-5.7-1.03-7.93-2.9-3.72-3.13-4.39-8.47-6.33-12.96,0-.02-.01-.04-.02-.06h0c-.65-1.5-1.44-2.91-2.53-4.1-.14-.14-.28-.28-.42-.35h0c-3.69-3.74-8.86-5.94-12.09-10.18-.47-.62-.91-1.48-1.36-2.29-1.5-4.14-2.86-8-3.88-11.1h-6.62c6.22,19.35,19.88,66.03,19.88,66.03,4.73,16.72,18.14,32.63,40.45,45.5,56.8,32.78,149.36,32.78,206.65-.14,22.39-12.82,36-28.69,40.94-45.29,0,0,13.64-46.75,19.86-66.1h-7.03Z" style="fill:#f0997a;"></path><path d="M349.62,174.51c-2.44,2.88-5.68,5.13-6.38,9.89-.39,2.69-.18,5.63-1.7,7.88-1.93,2.86-5.75,3.46-8.87,5l-.02-.04c-.28,.07-.49,.21-.7,.35-8.05,4.65-8.4,17.36-16.53,21.66-3.13,1.7-6.87,1.74-10.48,2.26-.06,0-.13,.01-.21,.03-.04,0-.08,.02-.13,.03-1.35,.2-2.67,.52-3.94,.98-.31,.11-.63,.18-.93,.31-6.18,2.78-9.1,10.21-14.93,13.68-1.72,1.04-3.57,1.65-5.49,2.03-1.32,.26-2.67,.41-4.05,.49-5.07,.3-10.44-.25-15.39,.96-1.73,.42-3.38,1.1-5.01,1.86-4.73,2.19-9.17,5.31-13.84,7.3-2.65,1.12-5.38,1.89-8.3,1.81-1.89-.02-3.72-.44-5.54-.94-3.66-1.02-7.25-2.48-11.03-2.68-.65-.03-1.28,.05-1.92,.08-4.01,.22-7.86,1.67-11.71,3.18-4.16,1.62-8.33,3.21-12.72,3.1-7.72-.19-14.42-5.54-22-6.86-.32-.06-.64-.15-.97-.2-5.42-.69-10.95,.94-16.42,1.76-3.28,.48-6.53,.67-9.74-.12-4.13-1.01-7.66-3.53-11.22-5.95-3.23-2.21-6.49-4.34-10.25-5.2-3.68-.81-7.56-.34-11.36-.12-3.37,.19-6.7,.2-9.78-1.09-.92-.38-1.78-.87-2.59-1.42-5.7-3.92-8.99-11.38-15.37-14.18-3.1-1.34-6.67-1.48-10.06-1.93-2.92-.4-5.7-1.03-7.93-2.9-3.72-3.13-4.39-8.47-6.33-12.96,0-.02-.01-.04-.03-.06-.65-1.5-1.44-2.9-2.53-4.1-.14-.14-.28-.28-.42-.34-3.69-3.75-8.86-5.95-12.09-10.19-.47-.62-.91-1.48-1.36-2.29-1.5-4.14-2.86-8-3.88-11.1h-6.62c6.22,19.35,19.88,66.03,19.88,66.03,2.36,8.34,6.88,16.48,13.59,24.14-.13-.73-.31-1.45-.48-2.14-1.98-7.79-3.42-16.63-1.72-24.59,.4-1.87,1.13-3.91,2.85-4.73,1.57-.75,3.49-.2,4.94,.76,2.53,1.68,4.13,4.43,5.42,7.18,2.3,4.91,3.93,10.13,4.82,15.48,1.12,6.72,1.22,14,5.17,19.55,.38,.53,.87,1.09,1.52,1.16,2.52,.26,2.14-5.52,2.3-6.91,.41-3.52,.99-7.04,2.16-10.4,.8-2.3,2.03-4.67,4.23-5.71,1.77-.83,3.47-.48,5.32-.36,1.55,.1,3.11-.13,4.67,.2,2.53,.54,4.09,.82,5.38,3.23,1.22,2.28,1.76,4.91,2.15,7.45,1.38,9.14,1.54,18.75,5.78,26.96,.72,1.39,3.01,4.36,4.72,2.23,.59-.74,.66-1.76,.7-2.71,.24-5.36,.48-10.72,.72-16.09,.1-2.15,.24-4.44,1.53-6.15,2.33-3.1,7.31-.62,10.33-.17,4.76,.7,9.56,1.09,14.36,1.18,1.09,.02,2.2,.03,3.23,.39,3.87,1.37,2.98,11.49,3.2,14.93,.38,5.83,.76,11.73,2.47,17.36,.38,1.24,1.25,2.73,2.52,2.48,1.12-.22,1.48-1.61,1.61-2.74,.58-5.06,.88-10.15,1.59-15.19,.58-4.1,.92-9.76,4.12-12.8,2.39-2.27,5.08-1.4,7.8-.75,3.02,.72,6.15,1.32,9.24,1.69,2.64,.32,4.97,.12,6.57,2.74,.99,1.64,1.29,3.59,1.57,5.49,.65,4.47,1.3,8.94,1.95,13.4,.32,2.17,.63,4.35,1.31,6.43,.3,.94,.8,1.96,1.75,2.22,.9,.25,1.87-.34,2.35-1.14s.6-1.76,.71-2.69c.54-4.74,1.09-9.48,1.63-14.22,.44-3.84,1.01-7.97,3.65-10.79,4.44-4.74,14.91-5.32,20.29-2.01,3.73,2.29,5.18,7.01,5.56,11.37,.38,4.36,0,8.86,1.36,13.03,.49,1.52,1.92,3.24,3.35,2.54,.5-.25,.83-.75,1.12-1.23,4.33-7.34,4.91-16.21,6.98-24.48,.8-3.19,1.86-6.39,3.88-8.99,3.32-4.26,8.8-6.33,14.17-6.95,1.31-.15,2.67-.23,3.93,.16,2.01,.61,3.54,2.33,4.38,4.25,.84,1.93,1.07,4.06,1.19,6.15,.3,5.16,0,10.35-.88,15.44-.17,1-.37,2.04-.1,3.02,.27,.98,1.16,1.87,2.17,1.77,.86-.09,1.5-.83,1.97-1.56,3.83-5.94,5.14-13.96,7.71-20.52,2.91-7.44,7.48-13.06,14.15-17.41,2.31-1.5,6.41-5.36,9.02-2.11,.77,.96,.99,2.24,1.07,3.47,.34,4.84-.87,9.68-.71,14.53,.03,1,.22,2.16,1.09,2.67,1.37,.8,2.92-.69,3.73-2.05,1.7-2.87,3.02-5.96,3.9-9.18,1.65-6.01,1.84-12.57,5.04-17.91,1.38-2.31,3.27-4.28,5.15-6.2,2.15-2.19,4.32-4.34,6.53-6.47,1-.96,2.9-2.46,4.37-1.52,1.31,.84,1.38,3.8,2.51,5.03,4.26-14.51,12.73-43.15,17.26-57.24h-7.03Z" style="opacity:.1;"></path></g><g><path d="M80,228.08c62.31,35.98,163.34,35.98,225.65,0,27.57-15.91,42.88-36.2,46.06-56.99-3.18-20.79-18.5-41.08-46.06-57-62.31-35.98-163.34-35.98-225.65,0-27.56,15.91-42.88,36.2-46.06,57,3.18,20.79,18.5,41.08,46.06,57Z" style="fill:#BA68C8;"></path><path d="M80,228.08c62.31,35.98,163.34,35.98,225.65,0,27.57-15.91,42.88-36.2,46.06-56.99-3.18-20.79-18.5-41.08-46.06-57-62.31-35.98-163.34-35.98-225.65,0-27.56,15.91-42.88,36.2-46.06,57,3.18,20.79,18.5,41.08,46.06,57Z" style="opacity:.15;"></path><path d="M351.65,171.44c-4.28-18.14-18.46-35.65-42.61-49.6-58.74-33.92-153.99-33.92-212.73,0-25.99,15-40.43,34.13-43.42,53.73,3,19.6,17.44,38.73,43.42,53.73,30.38,17.54,70.52,26.01,110.32,25.41,36.12-1.8,71.38-10.67,99.03-26.63,27.41-15.82,42.7-35.97,46-56.64Z" style="fill:#BA68C8;"></path><path d="M338.69,161.65c-.31-1.97-.74-3.94-1.62-5.72-2.54-5.14-9.05-7.94-14.53-6.23-2.64,.82-5.03,2.64-6.18,5.15-1.15,2.51-.97,5.3-.64,8.09,.14,1.15,.3,2.29,.4,3.42,.82,8.94-1.52,21.45-11.02,24.82-3.07,1.09-6.38,1.68-9.14,3.41-5.48,3.45-7.48,10.47-11.97,15.13-3.58,3.71-8.54,5.72-13.45,7.29-6.28,2.01-13.39,3.94-16.73,9.63-.42,.72-.78,1.55-.64,2.38,.38,2.3,3.64,2.38,5.91,1.86,7.67-1.77,18.53-2.38,24.89-7.14,5.45-4.04,10.77-8.81,17.42-10.11,2.32-.45,4.74-.46,6.99-1.2,6.52-2.15,9.35-9.24,12.99-14.43,2.14-3.05,4.83-4.54,7.4-7.07,3.07-3.01,6.01-6.26,7.9-10.16,2.83-5.86,3.04-12.69,2.02-19.11Zm-31.32-18.02c3.32,2.4,7.95,1.93,11.75,.39,1.12-.46,2.29-1.07,2.82-2.15,.65-1.3,.16-2.95-.82-4.02-2.14-2.34-7.6-4.02-10.71-3.07-3.91,1.19-7.2,5.85-3.04,8.85Zm-38.68-24.16c3.68,1.22,7.06,3.23,10.79,4.29,.46,.13,.98,.25,1.52,.35,2.51,.46,5.63,.42,7.17-1.6,1.23-1.62,.75-3.57-.39-5.06-2.49-3.29-7.22-5.18-11-6.47-7.57-2.58-15.69-3.1-23.63-3.08-3.09,0-6.2,.09-9.23-.51-3-.59-5.82-1.82-8.67-2.94-9.11-3.57-18.79-6.02-28.58-5.87-3.19,.05-6.45,.4-9.31,1.8-.95,.47-1.97,1.28-1.85,2.34,.15,1.29,1.78,1.72,3.07,1.83,4.5,.39,9.08,.62,13.34,2.11,7.37,2.57,13.16,8.63,20.61,10.97,4.43,1.39,9.17,1.37,13.8,.97,7.45-.65,15.11-1.54,22.37,.86Zm-83.82,118.21c-12.68-9.92-32.2-5.77-45.41-14.97-5.61-3.91-9.55-9.91-15.3-13.61-7.78-5.01-17.72-5.13-26.22-8.79-2.1-.9-4.14-2.05-5.71-3.71-3.55-3.75-4.11-9.47-3.28-14.56,.83-5.09,2.84-9.93,3.76-15,.76-4.19,.66-8.81-1.78-12.3-8.33-11.93-23.34-1.35-27.55,8.13-3.06,6.89-4.72,15.23-.94,21.75,1.49,2.58,3.73,4.66,5.25,7.22,2.88,4.85,3.02,11.09,6.48,15.54,5.64,7.25,16.9,6.38,24.75,11.15,4.75,2.89,8.24,7.87,13.51,9.64,4.59,1.54,9.68,.36,14.39,1.48,7.26,1.73,12.35,8.59,19.5,10.71,5.17,1.54,10.69,.41,16.06,.04,6.32-.43,12.71,.24,18.81,1.95,2.03,.57,4.98,.79,5.51-1.26,.34-1.33-.77-2.57-1.85-3.42Zm-94.04-92.05c2.17,.79,4.67,1.22,6.73,.18,1.15-.58,2.04-1.55,2.91-2.51,2.58-2.85,5.16-5.7,7.74-8.55,1.45-1.6,3-3.61,2.4-5.68-1.31-4.53-9.27-3.17-12.47-2.15-4.85,1.54-9.3,4.91-12.19,9.09-.11,.15-.21,.3-.31,.46-.4,.61-.77,1.26-.91,1.98-.66,3.59,3.16,6.12,6.1,7.19Z" style="fill:#fff; opacity:.1;"></path></g><g><path d="M352.84,145.01s5.24,16.79-2.53,28.65c-2.47,3.33-6.3,5.52-7.07,10.75-.39,2.69-.18,5.63-1.7,7.88-1.93,2.86-5.75,3.46-8.87,5l-.02-.04c-.28,.07-.49,.21-.7,.35-8.05,4.65-8.4,17.36-16.53,21.66-3.13,1.7-6.87,1.74-10.48,2.26-.06,0-.13,.01-.19,.02h-.03s-.08,.02-.13,.03c-1.35,.2-2.67,.52-3.94,.98-.31,.11-.63,.18-.93,.31-6.18,2.78-9.1,10.21-14.93,13.68-1.72,1.04-3.57,1.65-5.49,2.03-1.32,.26-2.67,.41-4.05,.49-5.07,.3-10.44-.25-15.39,.96-1.73,.42-3.38,1.1-5.01,1.86-4.73,2.19-9.17,5.31-13.84,7.3-2.65,1.12-5.38,1.89-8.3,1.81-1.89-.02-3.72-.44-5.54-.94-3.66-1.02-7.25-2.48-11.03-2.68-.65-.03-1.28,.05-1.92,.08-4.01,.22-7.86,1.67-11.71,3.18-4.16,1.62-8.33,3.21-12.72,3.1-7.72-.19-14.42-5.54-22-6.86-.32-.06-.64-.15-.97-.2-5.42-.69-10.95,.94-16.42,1.76-3.28,.48-6.53,.67-9.74-.12-4.13-1.01-7.66-3.53-11.22-5.95-3.23-2.21-6.49-4.34-10.25-5.2-3.68-.81-7.56-.34-11.36-.12-3.37,.19-6.7,.2-9.78-1.09-.92-.38-1.78-.87-2.59-1.42-5.7-3.92-8.99-11.38-15.37-14.18-3.1-1.34-6.67-1.48-10.06-1.93-2.92-.4-5.7-1.03-7.93-2.9-3.72-3.13-4.39-8.47-6.33-12.96,0-.02-.01-.04-.02-.06h0c-.65-1.5-1.44-2.91-2.53-4.1-.14-.14-.28-.28-.42-.35h0c-3.69-3.74-8.86-5.94-12.09-10.18-.47-.62-.91-1.48-1.36-2.29-1.63-4.49-3.02-9.16-3.67-12.47-2.84-14.47-.26-28.39,3.31-36.98-6.31,4.12-9.24,5.83-11.96,11.63-2.46,5.26-2.23,11.59-.64,17.47,1.52,5.61,1.59,10.78,1.59,15.83,0,3.95,.55,8.86,4.24,12.89,3.63,3.97,7.25,7.05,9.49,8.46,3.96,2.5,4.37,5.36,6.19,10.87,1.5,4.55,2.82,9.34,7.19,11.98,4.54,2.73,10.36,2.28,15.17,4.49,7.5,3.44,11,12.48,18.21,16.47,7.08,3.92,15.92,2.08,23.76,4.11,9.88,2.55,17.52,11.06,27.53,13.06,8.7,1.73,17.79-1.76,26.5-.12,6.08,1.14,11.58,4.73,17.74,5.34,8.3,.83,16.23-3.84,24.56-4.17,9.43-.37,19.01,4.8,28,1.91,5.78-1.86,10.09-6.75,15.61-9.28,11.59-5.32,27.14,.21,36.78-8.16,3.61-3.13,5.75-7.84,9.77-10.43,6.26-4.04,15.13-1.77,21.36-5.86,6.8-4.46,8.76-13.4,13.42-20.06,4.05-5.79,10.05-7.3,13.96-9.56,4.98-2.88,6.43-10.35,6.29-15-.26-8.61,4.32-10.42,7.45-16.94,4.69-9.78-1.2-20.67-8.37-26.08Z" style="fill:#ffbda7;"></path><path d="M43.41,193.23c-.13-.35-.46-.57-.77-.76-3.04-1.91-6.32-4.19-7.07-7.7-.38-1.77,.32-8.11-2.52-7.9-2.75,.2-3.58,5.84-3.47,7.76,.16,2.8,1.68,5.35,3.42,7.55,1.74,2.21,3.89,4.31,6.62,4.99,.6,.15,1.41,.11,1.6-.48,.17-.53-.36-1.01-.79-1.36-1.11-.9-2.02-2.04-2.65-3.33,.81-.19,1.59,.38,2.16,.99,.57,.6,1.12,1.31,1.92,1.52,.8,.21,1.85-.5,1.56-1.28Zm-11.05-48.06c.49,.14,1.04,.19,1.48-.07,.56-.34,.72-1.08,.7-1.73-.01-.33-.07-.68-.3-.91-.43-.43-1.15-.2-1.7,.05l.12,.03c-.57,.44-.92,1.16-.91,1.89,0,.16,.02,.33,.12,.46,.11,.16,.31,.23,.49,.28Zm-2.2,17.6c1.2-1.95,.49-4.48,.84-6.74,.21-1.37,.82-2.65,1.22-3.98,.3-1,.49-2.03,.56-3.07,.16-2.41-2-2.96-3.33-1.08-1.36,1.93-2.23,4.24-2.45,6.59-.21,2.35,.11,4.72,.53,7.04,.09,.48,.18,.98,.45,1.39,.27,.41,.76,.72,1.24,.62,.41-.08,.72-.42,.94-.77Zm21.77,45.63c-.33,.38-.45,.9-.53,1.4-.75,4.93,2.12,10.14,6.61,12.29,.76,.37,1.6,.66,2.44,.55s1.66-.72,1.76-1.56c.06-.51-.14-1.02-.39-1.47-.78-1.38-2.06-2.39-3.14-3.56-.95-1.02-1.75-2.18-2.37-3.43-.51-1.02-2.69-6.15-4.38-4.22Zm11.59,14.38c-.04,.62,.38,1.2,.91,1.52s1.16,.44,1.77,.55c.6,.1,1.25,.19,1.77-.13,.59-.36,.79-1.13,.72-1.82-.29-2.9-4.96-3.35-5.18-.13Zm44.12,16.92c-1.8-.3-3.64-.19-5.46-.34-5.36-.43-10.56-3.35-14.36-7.05-1.64-1.59-2.86-3.3-5.33-3.53-1-.09-2.09,.27-2.62,1.12-.52,.84-.38,1.94,.03,2.84,.41,.9,1.04,1.66,1.67,2.42,2.09,2.52,3.74,5.34,6.08,7.67,1.66,1.65,3.77,3.17,6.1,2.95,.48-.04,1.02-.21,1.22-.66,.1-.21,.09-.46,.19-.67,.24-.53,.93-.64,1.52-.65,2.1-.05,4.21,.21,6.31,.19,1.48-.01,7.49-.35,6.73-2.97-.32-1.1-1.13-1.16-2.08-1.32Zm4.5,1.53c-.12,.79,.33,1.59,.97,2.07s1.43,.71,2.22,.87c1,.2,2.02,.32,3.04,.34,.41,0,.84,0,1.18-.23,.58-.38,.66-1.22,.47-1.89-.72-2.61-7.28-5.01-7.88-1.17Zm20.42,9.57c-.75,0-1.54,.15-2.12,.63-.84,.72-.98,2.03-.57,3.05,.41,1.03,1.25,1.82,2.13,2.49,3.41,2.58,7.16,3.02,11.22,3.67,4.63,.74,9.41,.52,13.95-.66,.73-.19,1.46-.41,2.08-.84s1.11-1.1,1.14-1.85c.05-1.27-1.16-2.23-2.33-2.73-3.64-1.57-7.79-.98-11.74-1.19-2.44-.13-4.85-.57-7.22-1.12-2.1-.49-4.37-1.47-6.54-1.45Zm30.36,3.31c-.16,1.36,.85,2.87,1.87,3.71,.82,.68,1.89,1.09,2.96,.99,.91-.08,1.75-.52,2.56-.95,.84-.44,1.52-1.36,2.51-1.45,.55-.05,1.14,.16,1.65-.04,.79-.3,.95-1.43,.54-2.17-.41-.74-1.2-1.17-1.95-1.56-2.99-1.58-9.45-4.12-10.13,1.46Zm50.81-3.56c-.63,0-1.25,.02-1.85,.07-2.58,.23-5.32,.83-7.72,1.82-2.09,.86-4.3,1.49-6.25,2.7-1.07,.66-2.1,1.49-2.69,2.6s-.66,2.57,.09,3.59c.92,1.24,2.7,1.44,4.23,1.22,3.09-.45,5.84-2.14,8.83-3.02,3.64-1.08,7.52-.94,11.31-.67,1.3,.09,2.61,.19,3.89-.04,3.24-.58,1.44-3.84-.23-5.21-2.56-2.1-6.24-3.03-9.63-3.06Zm15.25,9.19c.02,.46,.14,.93,.4,1.32,.48,.73,1.39,1.11,2.27,1.08,.87-.03,1.7-.44,2.37-1.01,1.63-1.39,.86-3.82-1.1-4.49-1.9-.65-4,1.21-3.94,3.11Zm19.68-11.04c-.3,.4-.59,.84-.65,1.34-.17,1.23,1.08,2.26,2.31,2.38,1.23,.12,2.43-.38,3.6-.77,3.76-1.25,7.84-1.25,11.8-.98,1.76,.12,3.52,.33,5.28,.23,1.76-.1,3.55-.55,4.95-1.62,1.05-.8,.4-1.39-.63-1.48-.98-.09-2.05-.13-2.85-.77-.2-.16-.39-.4-.34-.65,.03-.14,.12-.25,.21-.35,.34-.34,.79-.54,1.25-.69,.77-.26,1.57-.42,2.36-.62,1.21-.31,2.39-.73,3.53-1.26,.35-.16,.71-.35,.97-.64,.26-.29,.4-.72,.25-1.08-.23-.56-.97-.67-1.58-.65-2.54,.08-5.02,.92-7.57,.75-1.24-.08-2.5,.01-3.75,0-1.3-.02-2.61-.04-3.91,.07-2.87,.24-5.76,.71-8.45,1.77-2.67,1.05-5.06,2.7-6.78,5.02Zm33.8-6.19c.4,.39,1.01,.46,1.56,.43,.45-.02,.91-.1,1.31-.31,1.5-.81,1.37-3.35-.52-3.42-1.37-.05-3.76,1.92-2.35,3.3Zm12.48-12.42c-.96,1.25-1.73,2.81-1.45,4.36,.08,.44,.25,.89,.59,1.19,.42,.37,1.01,.47,1.57,.46,3.29-.05,5.78-2.96,8.9-3.98,1.48-.49,3.07-.53,4.62-.68,3.03-.3,6.1-1.05,8.59-2.8,2.49-1.75,4.32-4.64,4.21-7.69-.01-.32-.05-.66-.25-.92-.34-.44-1-.44-1.55-.33-2.76,.53-4.93,2.63-7.54,3.67-3.38,1.33-7.11,.81-10.58,1.72-2.76,.73-5.4,2.76-7.11,5Zm35.75-28.15c-1.15,1.26-2.13,2.69-2.9,4.21-.46,.9-1.49,2.72-.46,3.56,1.02,.83,2.78-.06,3.58-.77,.84-.75,1.46-1.72,2.17-2.59,2.73-3.32,6.93-5.19,9.6-8.56,.18-.23,.36-.5,.31-.78-.07-.4-.53-.59-.93-.64-1.45-.17-3.05,.57-4.41,1-1.43,.45-2.77,1.13-4,1.98-1.08,.75-2.07,1.62-2.96,2.59Zm13.05-7.24c-.01,.18-.02,.37,.06,.53,.11,.22,.35,.33,.59,.38,.89,.2,1.84-.25,2.39-.97,.9-1.19,1.15-3.72-.99-3.28-1.46,.3-1.97,2.05-2.05,3.35Zm3.65-15.35c-.59,.8-1.15,1.7-1.13,2.69,0,.26,.06,.54,.23,.73,.16,.18,.41,.25,.65,.28,1.23,.12,2.25-.88,3.07-1.79,1.58-1.75,3.2-3.56,4.19-5.72,.39-.85,1.16-2.59,.23-3.36-1.12-.93-3.31,2.37-3.98,3.18-1.09,1.33-2.26,2.61-3.28,4Z" style="fill:#fff; opacity:.3;"></path></g></g><g id="Seeds"><path d="M194.04,207.33c-.31,0-7.75-.07-11.06-5.91-1.2-2.11-1.47-4.04-.82-5.73,1.04-2.71,4.12-4.01,6.35-4.75,.93-.31,1.42-.8,1.93-1.32,.75-.76,1.61-1.63,3.61-1.63s2.85,.86,3.61,1.63c.52,.52,1,1.01,1.93,1.32,2.23,.74,5.31,2.04,6.35,4.75,.65,1.69,.37,3.61-.82,5.73-3.31,5.85-10.74,5.92-11.06,5.92h0Z" style="opacity:.1;"></path><path d="M194.04,141.95c-1.99,0-2.85-.86-3.61-1.63-.51-.52-1-1.01-1.93-1.32-2.23-.74-5.31-2.04-6.35-4.75-.65-1.69-.37-3.61,.82-5.73,3.31-5.85,10.74-5.92,11.06-5.92s7.76,.07,11.06,5.91c1.2,2.11,1.47,4.04,.82,5.73-1.04,2.71-4.12,4.01-6.35,4.75-.93,.31-1.42,.8-1.93,1.32-.76,.76-1.61,1.63-3.61,1.63Z" style="opacity:.1;"></path><path d="M134.78,187.3c-7.07,0-11.67-1.38-13.68-4.09-.99-1.34-.79-2.52-.44-3.28,1.87-4.14,13.15-6.44,18.01-6.85,.41-.03,.81-.05,1.18-.05,2.27,0,3.99,.58,5.36,1.04,.91,.31,1.7,.57,2.42,.59,.31,0,.65,0,1.02,0h.47c2.88,0,5.34,.1,6.31,1.39l.05,.08c.98,1.66-.27,2.62-.94,3.14-.3,.23-.6,.46-.8,.73,0,.08-.01,.22-.01,.33,0,.63-.02,1.7-.94,2.67-2.05,2.16-7.27,3.44-11.48,3.92-1.22,.14-3.7,.37-6.54,.37h0Z" style="opacity:.1;"></path><path d="M152.32,150.23c-.63,0-1.21-.15-1.77-.29-.56-.14-1.09-.28-1.67-.28h-.12c-.34,.01-.81,.07-1.35,.13-.99,.12-2.35,.28-3.94,.28-2.61,0-5.1-.43-7.62-1.3-4.72-1.65-8.13-4.43-8.47-6.94-.16-1.2,.36-2.29,1.48-3.07,1.3-.9,3.58-1.36,6.78-1.36,4.05,0,9.19,.8,12.21,1.91,3.61,1.32,6.43,3.58,6.87,5.49,.16,.7,0,1.35-.46,1.82,0,.04,.17,.29,.27,.44,.27,.41,.64,.97,.48,1.63-.1,.42-.39,.77-.86,1.03-.58,.33-1.18,.49-1.83,.49Z" style="opacity:.1;"></path><g><path d="M199.31,190.9c-2.58-.86-2.36-2.9-5.27-2.9s-2.69,2.04-5.27,2.9c-2.58,.86-8.51,3.13-5.05,9.24,3.12,5.51,10.32,5.48,10.32,5.48,0,0,7.2,.03,10.32-5.48,3.45-6.11-2.47-8.38-5.05-9.24Z" style="fill:#BA68C8;"></path><path d="M199.31,190.04c-2.58-.86-2.36-2.9-5.27-2.9s-2.69,2.04-5.27,2.9c-2.58,.86-8.51,3.13-5.05,9.24,3.12,5.51,10.32,5.48,10.32,5.48,0,0,7.2,.03,10.32-5.48,3.45-6.11-2.47-8.38-5.05-9.24Z" style="fill:#BA68C8;"></path><path d="M199.31,190.04c-2.58-.86-2.36-2.9-5.27-2.9s-2.69,2.04-5.27,2.9c-2.58,.86-8.51,3.13-5.05,9.24,3.12,5.51,10.32,5.48,10.32,5.48,0,0,7.2,.03,10.32-5.48,3.45-6.11-2.47-8.38-5.05-9.24Z" style="fill:#fff; opacity:.6;"></path><path d="M202.86,193.07c1.14,2.04-.63,8.82-8.81,8.82s-9.95-6.78-8.81-8.82c-2.55,3.13,.27,10.45,8.81,10.45s11.36-7.32,8.81-10.45Z" style="fill:#BA68C8; opacity:.3;"></path></g><g><path d="M188.78,137.33c2.58,.86,2.36,2.9,5.27,2.9s2.69-2.04,5.27-2.9c2.58-.86,8.51-3.13,5.05-9.24-3.12-5.51-10.32-5.48-10.32-5.48,0,0-7.2-.03-10.32,5.48-3.45,6.11,2.47,8.38,5.05,9.24Z" style="fill:#BA68C8;"></path><path d="M188.78,136.47c2.58,.86,2.36,2.9,5.27,2.9s2.69-2.04,5.27-2.9c2.58-.86,8.51-3.13,5.05-9.24-3.12-5.51-10.32-5.48-10.32-5.48,0,0-7.2-.03-10.32,5.48-3.45,6.11,2.47,8.38,5.05,9.24Z" style="fill:#BA68C8;"></path><path d="M188.78,136.47c2.58,.86,2.36,2.9,5.27,2.9s2.69-2.04,5.27-2.9c2.58-.86,8.51-3.13,5.05-9.24-3.12-5.51-10.32-5.48-10.32-5.48,0,0-7.2-.03-10.32,5.48-3.45,6.11,2.47,8.38,5.05,9.24Z" style="fill:#fff; opacity:.6;"></path><path d="M203.64,128.68c.56,3.2-1.08,4.42-4.12,5.3-3.04,.88-3.96,3.49-5.47,3.49s-2.42-2.6-5.47-3.49c-3.04-.88-4.69-2.1-4.12-5.3-.93,2.7-.47,5.01,2.69,6.09,3.16,1.08,3.98,1.91,4.62,2.75,.64,.83,1.71,1.13,2.28,1.13s1.65-.29,2.28-1.13c.64-.83,1.47-1.67,4.62-2.75,3.16-1.08,3.62-3.39,2.69-6.09Z" style="fill:#BA68C8; opacity:.3;"></path></g><g><path d="M154.74,175.72c-.95-1.27-4.91-1-7.13-1.06-2.22-.05-4.5-1.95-8.87-1.58-7.34,.62-20.36,4.16-16.95,8.77,3.43,4.64,15.26,3.85,19.43,3.38,4.17-.48,9.14-1.74,10.95-3.66,1.06-1.12,.5-2.36,.82-2.84,.81-1.2,2.64-1.49,1.75-3.01Z" style="fill:#BA68C8;"></path><path d="M154.74,174.86c-.95-1.27-4.91-1-7.13-1.06-2.22-.05-4.5-1.95-8.87-1.58-7.34,.62-20.36,4.16-16.95,8.77,3.43,4.64,15.26,3.85,19.43,3.38,4.17-.48,9.14-1.74,10.95-3.66,1.06-1.12,.5-2.36,.82-2.84,.81-1.2,2.64-1.48,1.75-3.01Z" style="fill:#BA68C8;"></path><path d="M154.74,174.86c-.95-1.27-4.91-1-7.13-1.06-2.22-.05-4.5-1.95-8.87-1.58-7.34,.62-20.36,4.16-16.95,8.77,3.43,4.64,15.26,3.85,19.43,3.38,4.17-.48,9.14-1.74,10.95-3.66,1.06-1.12,.5-2.36,.82-2.84,.81-1.2,2.64-1.48,1.75-3.01Z" style="fill:#fff; opacity:.6;"></path><path d="M126.1,177.09c-3.19,2.13,.91,5.79,10.93,5.23,10.17-.56,12.39-1.97,12.98-3.03,.59-1.06,.24-2.79,2.79-3.5-.9,.55-1.57,1.81-1.34,2.91,.24,1.1-.51,4.33-14.32,5.03-13.81,.71-17.35-4.52-11.05-6.65Z" style="fill:#BA68C8; opacity:.3;"></path></g><g><path d="M153.74,148.14c-1.73,.97-3.06-.25-5.01-.18s-6.46,1.3-12.59-.84c-6.13-2.14-9.96-6.28-6.78-8.49,3.17-2.2,13.6-1.04,18.2,.65,4.6,1.68,7.27,4.7,6.09,5.91-1.03,1.06,1.55,2.13,.09,2.95Z" style="fill:#BA68C8;"></path><path d="M153.74,147.29c-1.73,.97-3.06-.25-5.01-.18s-6.46,1.3-12.59-.84-9.96-6.28-6.78-8.49,13.6-1.04,18.2,.65c4.6,1.68,7.27,4.7,6.09,5.91-1.03,1.06,1.55,2.13,.09,2.95Z" style="fill:#BA68C8;"></path><path d="M153.74,147.29c-1.73,.97-3.06-.25-5.01-.18s-6.46,1.3-12.59-.84-9.96-6.28-6.78-8.49,13.6-1.04,18.2,.65c4.6,1.68,7.27,4.7,6.09,5.91-1.03,1.06,1.55,2.13,.09,2.95Z" style="fill:#fff; opacity:.6;"></path><path d="M133.91,137.88c-3.29,.65-4.76,4.73,6.07,7.81-6.25-1.04-10.68-3.91-10.1-6.21,.21-.85,1.16-1.51,4.04-1.6Z" style="fill:#BA68C8; opacity:.3;"></path></g><path d="M253.3,187.3c7.07,0,11.67-1.38,13.68-4.09,.99-1.34,.79-2.52,.44-3.28-1.87-4.14-13.15-6.44-18.01-6.85-.41-.03-.81-.05-1.18-.05-2.27,0-3.99,.58-5.36,1.04-.91,.31-1.7,.57-2.42,.59-.31,0-.65,0-1.02,0h-.47c-2.88,0-5.34,.1-6.31,1.39l-.05,.08c-.98,1.66,.27,2.62,.94,3.14,.3,.23,.6,.46,.8,.73,0,.08,.01,.22,.01,.33,0,.63,.02,1.7,.94,2.67,2.05,2.16,7.27,3.44,11.48,3.92,1.22,.14,3.7,.37,6.54,.37h0Z" style="opacity:.1;"></path><path d="M235.77,150.23c.63,0,1.21-.15,1.77-.29,.56-.14,1.09-.28,1.67-.28h.12c.34,.01,.81,.07,1.35,.13,.99,.12,2.35,.28,3.94,.28,2.61,0,5.1-.43,7.62-1.3,4.72-1.65,8.13-4.43,8.47-6.94,.16-1.2-.36-2.29-1.48-3.07-1.3-.9-3.58-1.36-6.78-1.36-4.05,0-9.19,.8-12.21,1.91-3.61,1.32-6.43,3.58-6.87,5.49-.16,.7,0,1.35,.46,1.82,0,.04-.17,.29-.27,.44-.27,.41-.64,.97-.48,1.63,.1,.42,.39,.77,.86,1.03,.58,.33,1.18,.49,1.83,.49Z" style="opacity:.1;"></path><g><path d="M233.35,175.72c.95-1.27,4.91-1,7.13-1.06,2.22-.05,4.5-1.95,8.87-1.58,7.34,.62,20.36,4.16,16.95,8.77-3.43,4.64-15.26,3.85-19.43,3.38-4.17-.48-9.14-1.74-10.95-3.66-1.06-1.12-.5-2.36-.82-2.84-.81-1.2-2.64-1.49-1.75-3.01Z" style="fill:#BA68C8;"></path><path d="M233.35,174.86c.95-1.27,4.91-1,7.13-1.06,2.22-.05,4.5-1.95,8.87-1.58,7.34,.62,20.36,4.16,16.95,8.77-3.43,4.64-15.26,3.85-19.43,3.38-4.17-.48-9.14-1.74-10.95-3.66-1.06-1.12-.5-2.36-.82-2.84-.81-1.2-2.64-1.48-1.75-3.01Z" style="fill:#BA68C8;"></path><path d="M233.35,174.86c.95-1.27,4.91-1,7.13-1.06,2.22-.05,4.5-1.95,8.87-1.58,7.34,.62,20.36,4.16,16.95,8.77-3.43,4.64-15.26,3.85-19.43,3.38-4.17-.48-9.14-1.74-10.95-3.66-1.06-1.12-.5-2.36-.82-2.84-.81-1.2-2.64-1.48-1.75-3.01Z" style="fill:#fff; opacity:.6;"></path><path d="M261.99,177.09c3.19,2.13-.91,5.79-10.93,5.23-10.17-.56-12.39-1.97-12.98-3.03-.59-1.06-.24-2.79-2.79-3.5,.9,.55,1.57,1.81,1.34,2.91-.24,1.1,.51,4.33,14.32,5.03,13.81,.71,17.35-4.52,11.05-6.65Z" style="fill:#BA68C8; opacity:.3;"></path></g><g><path d="M234.35,148.14c1.73,.97,3.06-.25,5.01-.18s6.46,1.3,12.59-.84c6.13-2.14,9.96-6.28,6.78-8.49-3.17-2.2-13.61-1.04-18.2,.65-4.6,1.68-7.27,4.7-6.09,5.91,1.03,1.06-1.55,2.13-.09,2.95Z" style="fill:#BA68C8;"></path><path d="M234.35,147.29c1.73,.97,3.06-.25,5.01-.18s6.46,1.3,12.59-.84c6.13-2.14,9.96-6.28,6.78-8.49s-13.61-1.04-18.2,.65c-4.6,1.68-7.27,4.7-6.09,5.91,1.03,1.06-1.55,2.13-.09,2.95Z" style="fill:#BA68C8;"></path><path d="M234.35,147.29c1.73,.97,3.06-.25,5.01-.18s6.46,1.3,12.59-.84c6.13-2.14,9.96-6.28,6.78-8.49s-13.61-1.04-18.2,.65c-4.6,1.68-7.27,4.7-6.09,5.91,1.03,1.06-1.55,2.13-.09,2.95Z" style="fill:#fff; opacity:.6;"></path><path d="M254.18,137.88c3.29,.65,4.76,4.73-6.07,7.81,6.25-1.04,10.68-3.91,10.1-6.21-.21-.85-1.16-1.51-4.04-1.6Z" style="fill:#BA68C8; opacity:.3;"></path></g></g><g id="Whipped_Cream"><path d="M167,146.79c14.94-8.62,39.15-8.62,54.09,0,14.94,8.62,14.94,22.61,0,31.23-14.94,8.62-39.15,8.62-54.09,0-14.94-8.62-14.94-22.61,0-31.23Z" style="opacity:.1;"></path><g id="Cream"><path d="M230.87,152.42c-.39-2.68-1.04-5.2-2.42-7.27-1.37-2.14-3.49-3.82-6.76-4.79-.69-.21-1.44-.39-2.25-.52-.02-.21-.06-.43-.09-.64-.88-5.19-5.6-9.92-11.37-10.05,0-4.89-2.98-5.98-6.27-9.03-3.86-3.57-3.86-6.14-5.29-6.14s-3,7.86-12.15,13.58c-9.15,5.72-17.58,5.43-18.44,13.72-6.25,2.26-9.9,6.99-8.41,12.12,.1,.39,.24,.78,.41,1.16-.55,.96-.84,2.12-.76,3.37,.02,.28,.06,.54,.11,.81v.03c.82,4.97,4.53,9.8,11.11,13.6,15.03,8.68,39.41,8.68,54.44,0,6.87-3.97,10.61-9.08,11.17-14.28v-.02c.28-2.04-.7-4-3.03-5.65Z" style="fill:#fff;"></path><path d="M188.87,130.36c4.16-5.95,6.08-13.42,6.53-15.37-.32,.51-.69,1.18-1.15,1.97-2.14,3.92-6.83,11.44-12.82,14.64-8.27,4.41-12.41,4.16-15.59,9.66,8.42-2.49,18.2-4.01,23.03-10.9Z" style="fill:#f0f0f0;"></path><path d="M189.74,141.89c8.64-2.56,15.86-5.42,18.25-12.74,0-4.89-2.98-5.98-6.27-9.03l-.03-.03-11.95,21.8Z" style="fill:#f0f0f0;"></path><path d="M204.27,122.28c-.8-.66-1.66-1.34-2.56-2.17l-.03-.03-3.34,6.1-1.19,5.29-7.42,10.42c12.09-5.87,16.01-11.57,14.54-19.61Z" style="fill:#fff;"></path><path d="M192.31,133.81c-5.52,4.96-14.2,6.76-22.2,8.96-8,2.21-12.28,6.19-12.28,11.78,4.28-5.58,7.73-6.54,20-8.89s20.41-7.72,22.61-14.2c1.5-4.41,1.77-8.35,1.24-11.39-3.83-3.55-3.83-6.11-5.26-6.11,1.18,2.05,1.4,14.88-4.11,19.84Z" style="fill:#e6e6e6;"></path><path d="M157.83,154.55c6.65-2.73,13.19-2.04,20.89-1.68,12.38,.58,22.84-.58,29.66-5.37s10.07-14.89-.4-18.36c4.01,3.54,2.09,10.94-9.12,16.15-6.28,2.92-15.66,3.46-24.92,3.97-9.62,.53-13.76,3.24-16.1,5.3Z" style="fill:#f0f0f0;"></path><path d="M219.45,139.84c.65,6.58-3.81,16.62-23.05,20.08-14.25,2.57-30.21,.97-30.21,.97,0,0,19.32,.3,30.08-2.96,12.76-3.87,20.47-10.55,23.17-18.09Z" style="fill:#e6e6e6;"></path><g><path d="M163.52,169.01c.29,.15,.65,.34,1.08,.54-.36-.18-.73-.35-1.08-.54h0Z" style="fill:#f0f0f0;"></path><path d="M205.28,169.84c-21.92,6.56-35.78,1.99-40.67-.29,13.27,6.65,29.8,8.05,46.4,2.05,17.06-6.16,19.49-13.94,19.87-19.19-.39-2.68-1.04-5.2-2.42-7.27-1.37-2.14-3.49-3.82-6.76-4.79,3.62,2.96,7.47,22.33-16.42,29.48Z" style="fill:#f0f0f0;"></path></g><path d="M212.29,160.4c-5.04,3.87-21.67,8.9-37.61,5.85-15.93-3.05-17.5-7.49-16.85-11.7-.55,.96-.84,2.12-.76,3.37,.02,.28,.06,.54,.11,.81v.03c.45,2.73,1.78,5.41,3.97,7.91,2.44,1.23,5.74,2.26,10.13,2.87,20.27,2.83,34.91-2.36,41.01-9.15Z" style="fill:#f0f0f0;"></path></g></g></g></g><g id="Leaves"><g id="Leaves-2"><g><g><path d="M447.03,256.98c-1,2.99-3.64,5.27-6.63,6.26-4.83,1.61-10.85,.77-15.23-1.61-2.07-1.13-4.24-2.67-5.02-5.24-.54-1.76-.35-3.79-1.1-5.45-1.53-3.38-5.83-3.15-7.94-6.05-2.27-3.13-.48-8.53,2.7-9.94,.85-.38,1.8-.56,2.51-1.23,1.66-1.56,1.21-4.86,0-6.99-2.45-4.28-10.43-8.29-11.41-.64-.34,2.65-.17,5.83-1.91,7.46-.7,.66-1.61,.92-2.49,1.1-5.14,1.08-10.6,.09-15.32-2.77-1.29-.78-2.65-1.99-3.06-3.49-.4-1.47,.4-2.64,.42-4.07,.03-3.15-2.58-5.44-4.25-7.8-3.92-5.54-2.84-14.01,2.34-18.38,2.82-2.38,8.24-3.31,10.22-6.42,2.01-3.16,1.51-7.25,2.46-10.87,.76-2.92,2.55-5.61,5.07-7.28s5.78-2.25,8.67-1.38c2.84,.86,4.91,3.08,7.57,4.23,2.9,1.25,5.95,1.59,9.03,.82,3.04-.77,5.82-2.32,8.63-3.72,4.4-2.19,8.97-4.03,13.66-5.5,3.99-1.25,8.16-2.24,12.32-1.84,3.57,.34,6.98,1.7,10.15,3.39,2.93,1.57,6.02,4.03,5.93,7.35-.09,3.33-3.34,5.65-4.63,8.72-1.88,4.5,.69,9.53,.86,14.41,.1,2.89-.68,5.8-2.22,8.25-2.09,3.31-5.65,6.24-5.4,10.14,.19,2.92,2.49,6.15,3.68,8.78,1.07,2.37,2.15,4.8,2.38,7.39,.24,2.8-.58,5.69-2.32,7.9-1.74,2.21-4.39,3.69-7.19,3.94-2.9,.26-6.77-.53-9.28,1.3-2.82,2.05-2.18,6.28-3.17,9.21Z" style="fill:#BA68C8;"></path><path d="M447.03,256.98c-1,2.99-3.64,5.27-6.63,6.26-4.83,1.61-10.85,.77-15.23-1.61-2.07-1.13-4.24-2.67-5.02-5.24-.54-1.76-.35-3.79-1.1-5.45-1.53-3.38-5.83-3.15-7.94-6.05-2.27-3.13-.48-8.53,2.7-9.94,.85-.38,1.8-.56,2.51-1.23,1.66-1.56,1.21-4.86,0-6.99-2.45-4.28-10.43-8.29-11.41-.64-.34,2.65-.17,5.83-1.91,7.46-.7,.66-1.61,.92-2.49,1.1-5.14,1.08-10.6,.09-15.32-2.77-1.29-.78-2.65-1.99-3.06-3.49-.4-1.47,.4-2.64,.42-4.07,.03-3.15-2.58-5.44-4.25-7.8-3.92-5.54-2.84-14.01,2.34-18.38,2.82-2.38,8.24-3.31,10.22-6.42,2.01-3.16,1.51-7.25,2.46-10.87,.76-2.92,2.55-5.61,5.07-7.28s5.78-2.25,8.67-1.38c2.84,.86,4.91,3.08,7.57,4.23,2.9,1.25,5.95,1.59,9.03,.82,3.04-.77,5.82-2.32,8.63-3.72,4.4-2.19,8.97-4.03,13.66-5.5,3.99-1.25,8.16-2.24,12.32-1.84,3.57,.34,6.98,1.7,10.15,3.39,2.93,1.57,6.02,4.03,5.93,7.35-.09,3.33-3.34,5.65-4.63,8.72-1.88,4.5,.69,9.53,.86,14.41,.1,2.89-.68,5.8-2.22,8.25-2.09,3.31-5.65,6.24-5.4,10.14,.19,2.92,2.49,6.15,3.68,8.78,1.07,2.37,2.15,4.8,2.38,7.39,.24,2.8-.58,5.69-2.32,7.9-1.74,2.21-4.39,3.69-7.19,3.94-2.9,.26-6.77-.53-9.28,1.3-2.82,2.05-2.18,6.28-3.17,9.21Z" style="opacity:.3;"></path><path d="M448.86,191.16c-.65,.47-1.39,1.16-1.17,1.93,.18,.64,.9,.91,1.5,1.19,.6,.28,1.22,.89,.99,1.5-2.85-.24-5.91,.32-8.06,2.21-1.65,1.45-2.61,3.5-3.49,5.51-1.15,2.61-2.26,5.24-3.32,7.89-.52,1.31-1.04,2.76-.57,4.09,.96,2.75,5.26,2.95,6.45,5.61-4.22-.48-8.59-2.27-12.55-.73-.97,.38-1.91,.99-2.36,1.93-.28,.58-.35,1.23-.36,1.87-.06,3.3,1.16,7.01-.84,9.63-1.57,2.05-6.31,3.37-6.55,6.22-.1,1.23,.51,2.41,1.26,3.4,.75,.98,1.65,1.85,2.29,2.91,1.83,3.02,1.4,7.3,4.04,9.65,1.25,1.11,2.94,1.54,4.58,1.87,2.32,.47,4.84,.79,6.95-.27,2.8-1.4,3.98-4.75,4.61-7.82,.96-4.63,4.89-6.9,9.07-8.35,1.38-.48,2.94-1.07,3.45-2.43,.38-1,.05-2.12-.34-3.12-.55-1.42-1.23-2.79-2.01-4.09-.82-1.35-1.78-2.7-1.93-4.27-.02-.25-.02-.51,.09-.73,.18-.35,.59-.51,.98-.56,1.18-.13,2.28,.54,3.39,.98,1.11,.44,2.57,.56,3.29-.39,.64-.84,.33-2.03-.01-3.02-.77-2.22-1.6-4.53-1.27-6.85,.28-1.91,1.32-3.62,2.37-5.24,1.04-1.63,2.13-3.3,2.5-5.19,.37-1.9-.15-4.11-1.77-5.17-.99-.65-2.23-.79-3.31-1.27-1.08-.48-2.09-1.61-1.74-2.74,.09-.3,.29-.58,.59-.67,.22-.07,.46-.03,.69,.01,1.94,.39,3.86,1.11,5.84,.99,.29-.02,.59-.06,.84-.21,.78-.49,.54-1.66,.26-2.55-.72-2.33-.94-4.81-.66-7.23,.15-1.26,1.55-4.21,.06-5.15-1.73-1.1-4.73,2.29-6,3.17-2.6,1.81-5.19,3.64-7.77,5.48Z" style="fill:#BA68C8; opacity:.4;"></path><path d="M397.29,183.79c-.23,2.96-.15,6.07-1.55,8.68-2.68,4.99-11.47,6.13-13.48,11.43-.92,2.43-.5,5.17,.38,7.62,.88,2.44,2.2,4.71,3.13,7.13,.83,2.17,1.43,4.56,3.13,6.14,2.1,1.95,5.5,2.05,8.03,.69,2.53-1.36,4.23-3.92,5.13-6.64,.69-2.08,2.59-4.01,4.01-5.68,2.03-2.4,5.54-3.39,6.83-6.6,.69-1.71,.38-3.63,.07-5.45-.55-3.18-1.11-6.35-1.66-9.53,.74,.43,1.26,1.14,1.76,1.83,1.11,1.54,2.23,3.08,3.34,4.61,.81,1.12,1.64,2.26,2.72,3.13,1.96,1.58,4.27,2.06,6.17,.32,5.41-4.95,8.13-12.15,10.1-19.21,.17-.62,.37-1.28,.84-1.72,.48-.44,1.34-.52,1.72,.01,.16,.22,.2,.5,.22,.77,.1,1.26-.16,2.54,.04,3.78,.2,1.25,1.11,2.54,2.38,2.54,1.03,0,1.84-.84,2.55-1.6,3.92-4.18,8.72-7.53,13.99-9.78,1.06-.45,2.17-.88,2.96-1.71s1.15-2.21,.48-3.14c-.4-.55-1.07-.83-1.71-1.05-3.92-1.31-8.23-1.05-12.2,.11-3.96,1.16-7.62,3.17-11.13,5.35-3.08,1.92-6.14,4-9.64,4.96-4.81,1.32-10.1,.32-14.41-2.2-2.62-1.53-5.82-4.05-9.17-3.43-3.77,.71-4.77,5.37-5.02,8.63Z" style="fill:#BA68C8; opacity:.4;"></path></g><g><path d="M460.8,178.45c-6.72,3.13-12.84,7.52-18.48,12.29-5.77,4.88-11.08,10.28-16.06,15.96-5.1,5.82-9.99,11.9-14.4,18.26-4.5,6.5-8.42,13.5-10.71,21.1-2.28,7.58-2.9,15.74-.9,23.45,2.03,7.84,6.67,14.61,9.7,22.04,2.94,7.21,4.14,15.12,.23,22.21-3.25,5.89-8.76,10.19-13.89,14.36-10.53,8.56-21.31,19.27-23.54,33.29-.27,1.73-.31,3.48-.25,5.22,.02,.75,1.61,1.14,1.66,.26,.88-14.55,10.5-26.18,21.26-35.15,5.07-4.23,10.53-8.21,14.57-13.5,1.9-2.49,3.43-5.22,4.33-8.23,1.09-3.65,1.07-7.56,.36-11.29-1.52-7.89-5.86-14.7-9.17-21.89-1.67-3.63-3.05-7.39-3.66-11.36-.59-3.85-.56-7.79,0-11.64,2.21-15.58,11.99-28.77,21.64-40.68,9.56-11.81,20.36-22.61,33.1-30.98,1.53-1,3.08-1.97,4.62-2.94,.3-.19-.04-.95-.38-.79Z" style="fill:#263238;"></path><path d="M417.25,203.38c-.67-3.15-1.68-6.18-3.15-9.05-1.54-2.99-3.09-6.31-5.43-8.77-.16-.16-.23,.21-.18,.31,1.43,2.73,3.12,5.25,4.19,8.17,1.14,3.09,2.07,6.32,2.75,9.54,.63,3.02,.95,6.11,1,9.2,.02,1.51-.03,3.01-.15,4.52-.06,.74-.15,1.47-.21,2.21-.08,.89-.09,1.21,.53,1.83,.09,.09,.26,.16,.38,.09,1.22-.65,1.08-2.85,1.19-4.09,.13-1.52,.18-3.04,.17-4.56-.04-3.16-.42-6.31-1.08-9.4Z" style="fill:#263238;"></path><path d="M455.92,230.1c-5.13-4.44-10.51-8.47-16.81-11.08-6.34-2.63-13.98-4.1-20.77-2.53-1.25,.29-.41,1.84,.62,1.74,3.1-.3,6.13-.48,9.24-.14,3.93,.42,7.85,1.47,11.51,2.95,5.76,2.32,11.24,5.64,16.01,9.62,.25,.21,.37-.39,.19-.55Z" style="fill:#263238;"></path><path d="M437.71,181.11c-.03-.2-.22-.03-.21,.11,.17,3.91-.76,8.12-2.01,11.8-.6,1.77-1.33,3.5-2.16,5.18-.79,1.59-2.06,3.21-2.37,4.98-.04,.23,.23,.69,.5,.49,1.51-1.16,2.36-3.38,3.17-5.06,.84-1.76,1.57-3.57,2.16-5.44,.58-1.83,1.03-3.72,1.24-5.62,.24-2.15,0-4.31-.31-6.44Z" style="fill:#263238;"></path><path d="M457.89,197.1c-3.62-.91-7.27-1.61-11-1.88-3.64-.26-7.54-.2-11.02,1-.9,.31,.12,1.54,.83,1.37,3.5-.83,6.9-1.25,10.51-1.07,3.57,.18,7.12,.75,10.68,1.13,.23,.02,.21-.51,0-.56Z" style="fill:#263238;"></path></g></g><g id="Leaf"><g><path d="M153.12,411.26c3.45-1.24,6.04-4.36,7.13-7.87,1.75-5.66,.64-12.65-2.23-17.68-1.36-2.38-3.21-4.87-6.22-5.72-2.06-.59-4.42-.32-6.36-1.15-3.97-1.7-3.81-6.71-7.23-9.09-3.69-2.57-9.94-.36-11.5,3.38-.42,1-.61,2.1-1.38,2.95-1.78,1.97-5.62,1.53-8.13,.16-5.03-2.75-9.41-10.11-.54-11.42,3.08-.46,6.78-.33,8.63-2.4,.75-.84,1.03-1.89,1.22-2.92,1.13-6.01-.15-12.33-3.59-17.76-.94-1.48-2.38-3.04-4.14-3.48-1.72-.43-3.06,.53-4.73,.58-3.66,.11-6.39-2.87-9.17-4.76-6.54-4.43-16.36-2.97-21.33,3.16-2.7,3.34-4.13,7.83-7.71,10.2-3.63,2.41-8.4,1.93-12.59,3.12-3.38,.96-6.46,3.1-8.34,6.07s-2.48,6.78-1.39,10.12c1.07,3.29,3.7,5.64,5.11,8.71,1.53,3.34,2,6.89,1.17,10.49-.82,3.56-2.56,6.82-4.12,10.13-2.44,5.17-4.47,10.53-6.07,16.03-1.36,4.67-2.41,9.54-1.84,14.38,.48,4.15,2.14,8.08,4.19,11.73,1.89,3.37,4.83,6.91,8.69,6.72,3.88-.19,6.49-4.02,10.04-5.59,5.19-2.3,11.11,.58,16.78,.66,3.36,.05,6.74-.93,9.55-2.78,3.81-2.51,7.12-6.73,11.67-6.52,3.4,.15,7.22,2.75,10.31,4.07,2.78,1.19,5.64,2.39,8.66,2.59,3.26,.22,6.61-.81,9.14-2.89s4.19-5.2,4.42-8.46c.24-3.38-.78-7.86,1.3-10.83,2.32-3.33,7.25-2.69,10.65-3.9Z" style="fill:#BA68C8;"></path><path d="M153.12,411.26c3.45-1.24,6.04-4.36,7.13-7.87,1.75-5.66,.64-12.65-2.23-17.68-1.36-2.38-3.21-4.87-6.22-5.72-2.06-.59-4.42-.32-6.36-1.15-3.97-1.7-3.81-6.71-7.23-9.09-3.69-2.57-9.94-.36-11.5,3.38-.42,1-.61,2.1-1.38,2.95-1.78,1.97-5.62,1.53-8.13,.16-5.03-2.75-9.41-10.11-.54-11.42,3.08-.46,6.78-.33,8.63-2.4,.75-.84,1.03-1.89,1.22-2.92,1.13-6.01-.15-12.33-3.59-17.76-.94-1.48-2.38-3.04-4.14-3.48-1.72-.43-3.06,.53-4.73,.58-3.66,.11-6.39-2.87-9.17-4.76-6.54-4.43-16.36-2.97-21.33,3.16-2.7,3.34-4.13,7.83-7.71,10.2-3.63,2.41-8.4,1.93-12.59,3.12-3.38,.96-6.46,3.1-8.34,6.07s-2.48,6.78-1.39,10.12c1.07,3.29,3.7,5.64,5.11,8.71,1.53,3.34,2,6.89,1.17,10.49-.82,3.56-2.56,6.82-4.12,10.13-2.44,5.17-4.47,10.53-6.07,16.03-1.36,4.67-2.41,9.54-1.84,14.38,.48,4.15,2.14,8.08,4.19,11.73,1.89,3.37,4.83,6.91,8.69,6.72,3.88-.19,6.49-4.02,10.04-5.59,5.19-2.3,11.11,.58,16.78,.66,3.36,.05,6.74-.93,9.55-2.78,3.81-2.51,7.12-6.73,11.67-6.52,3.4,.15,7.22,2.75,10.31,4.07,2.78,1.19,5.64,2.39,8.66,2.59,3.26,.22,6.61-.81,9.14-2.89s4.19-5.2,4.42-8.46c.24-3.38-.78-7.86,1.3-10.83,2.32-3.33,7.25-2.69,10.65-3.9Z" style="opacity:.3;"></path><path d="M76.59,414.96c.53-.77,1.31-1.65,2.22-1.41,.74,.2,1.08,1.03,1.42,1.72s1.06,1.4,1.77,1.11c-.35-3.31,.23-6.88,2.38-9.43,1.64-1.95,4.01-3.12,6.32-4.19,3.01-1.4,6.04-2.75,9.1-4.05,1.51-.64,3.19-1.28,4.75-.77,3.23,1.06,3.56,6.05,6.69,7.37-.66-4.9-2.84-9.94-1.15-14.59,.41-1.14,1.11-2.25,2.19-2.79,.67-.34,1.42-.43,2.17-.46,3.83-.15,8.18,1.18,11.18-1.21,2.35-1.87,3.77-7.42,7.08-7.77,1.43-.15,2.82,.53,3.98,1.38s2.19,1.88,3.44,2.6c3.55,2.06,8.53,1.46,11.32,4.47,1.32,1.42,1.86,3.39,2.28,5.28,.6,2.68,1.04,5.61-.14,8.09-1.57,3.3-5.43,4.74-8.99,5.56-5.37,1.23-7.91,5.85-9.5,10.75-.52,1.61-1.17,3.45-2.75,4.08-1.16,.46-2.47,.11-3.64-.32-1.66-.61-3.27-1.36-4.8-2.24-1.59-.92-3.19-2.01-5.02-2.15-.29-.02-.59-.02-.84,.12-.4,.21-.58,.7-.62,1.15-.13,1.38,.69,2.64,1.23,3.92s.71,2.98-.37,3.84c-.96,.76-2.35,.43-3.52,.05-2.6-.84-5.31-1.76-8-1.31-2.22,.37-4.18,1.63-6.05,2.88s-3.78,2.55-5.98,3.03c-2.2,.48-4.78-.08-6.06-1.93-.78-1.14-.97-2.57-1.56-3.82-.59-1.25-1.92-2.39-3.23-1.96-.34,.11-.66,.35-.77,.7-.08,.26-.03,.54,.03,.8,.5,2.25,1.38,4.47,1.3,6.77-.01,.34-.05,.69-.23,.99-.55,.92-1.92,.66-2.96,.37-2.73-.78-5.62-.98-8.42-.6-1.47,.2-4.86,1.9-5.99,.19-1.32-1.99,2.56-5.56,3.55-7.05,2.04-3.07,4.11-6.13,6.2-9.17Z" style="fill:#BA68C8; opacity:.4;"></path><path d="M66.78,355.13c3.43-.34,7.06-.32,10.06-2.01,5.74-3.24,7.35-11.66,13.46-14.12,2.8-1.13,6.01-.71,8.87,.26,2.86,.97,5.53,2.45,8.37,3.47,2.54,.92,5.34,1.55,7.22,3.5,2.32,2.4,2.51,6.36,.99,9.33-1.52,2.97-4.46,5.02-7.61,6.13-2.41,.85-5.08,1.28-7,2.97-2.74,2.42-3.81,6.52-7.52,8.11-1.97,.84-4.22,.53-6.34,.21-3.71-.57-7.42-1.14-11.13-1.71,.52,.85,1.36,1.44,2.17,2,1.82,1.26,3.63,2.52,5.45,3.78,1.33,.92,2.67,1.85,3.71,3.09,1.88,2.25,2.5,4.92,.52,7.17-5.63,6.41-13.94,9.75-22.11,12.21-.72,.22-1.49,.46-1.98,1.02-.5,.57-.57,1.58,.05,2,.26,.18,.59,.22,.9,.24,1.47,.09,2.95-.25,4.4-.05s2.99,1.23,3.01,2.7c.02,1.2-.94,2.16-1.8,3-4.77,4.66-8.56,10.33-11.04,16.52-.5,1.24-.97,2.55-1.92,3.49-.95,.94-2.54,1.39-3.64,.63-.65-.45-.99-1.22-1.26-1.97-1.61-4.53-1.42-9.55-.16-14.19,1.25-4.64,3.5-8.94,5.96-13.08,2.16-3.63,4.51-7.24,5.54-11.34,1.42-5.63,.13-11.76-2.9-16.71-1.84-3.01-4.86-6.68-4.21-10.59,.73-4.4,6.13-5.68,9.93-6.05Z" style="fill:#BA68C8; opacity:.4;"></path></g><path d="M60.35,403.26c1.19-1.39,2.87-1.7,4.49-2.36,1.61-.65,3.3-.95,5.02-1.15,1.93-.22,3.86-.37,5.8-.4,1.04-.02,2.08,0,3.12,0,.92,.01,1.96-.12,2.82,.23,.69,.28,1.25,1.76,.25,2.01-.85,.21-1.89-.06-2.76-.13-.87-.08-1.74-.15-2.61-.2-1.84-.11-3.7-.19-5.54-.05-1.8,.14-3.6,.48-5.37,.83-.83,.16-1.61,.53-2.39,.84-.81,.33-1.56,.59-2.42,.79-.18,.04-.61-.18-.43-.4Z" style="fill:#263238;"></path><path d="M72.57,368.96c-.6-.51-.15-1.1,.51-.68,8.86,5.58,19.07,9.13,29.55,9.84,.67,.05,2.07,.18,2.59,.12,.78-.09-1.67,2.87-2.52,2.81-11.09-.75-21.65-4.84-30.13-12.09Z" style="fill:#263238;"></path><path d="M106.75,392.83c-.38-2.31-.64-4.63-.82-6.94-.23-3-.66-6.18,1.73-8.42,.49-.46,1-.91,1.52-1.34,.31-.25,.64-.51,1.04-.54-.25,1.32-.76,2.56-1.02,3.88-.26,1.31-.44,2.62-.55,3.95-.28,3.25-.14,6.62,.39,9.83,.41,2.53,.79,5.06,1.41,7.55,.69,2.74,1.6,5.31,2.67,7.92,.17,.43-.46,.26-.61,.06-2.04-2.82-3.36-6.1-4.32-9.43-.61-2.13-1.08-4.32-1.44-6.53Z" style="fill:#263238;"></path><path d="M82.62,421.61c-.95-2.25-1.69-4.57-2.17-6.97-.86-4.28-1.05-8.76-.42-13.09,.29-1.96,2.55-1.18,2.3,.55-.64,4.31-.67,8.63,.1,12.93,.38,2.09,.88,4.17,1.55,6.19,.67,2.02,1.33,4.17,2.27,6.08,.07,.14-.21,.1-.26,.03-1.27-1.86-2.5-3.63-3.38-5.72Z" style="fill:#263238;"></path><path d="M278.73,384.09c-1.85,3.53-3.92,6.85-6.93,9.52-2.72,2.42-6.02,4.19-9.46,5.37-7.97,2.74-16.48,1.91-24.31-.91-17.89-6.44-30.91-21.17-47.37-30.15-15.66-8.54-34.09-10.29-51.42-6.71-17.58,3.63-33.49,12.56-46.72,24.56-13.12,11.89-23.67,26.4-31.78,42.09-1.01,1.96-1.99,3.93-2.94,5.92-.14,.3,.32,.99,.56,.58,8.92-15.49,19.09-30.49,31.95-43.01,13-12.65,28.77-22.12,46.46-26.41,17.17-4.17,35.67-2.94,51.44,5.37,16.7,8.8,29.66,23.64,47.55,30.39,7.96,3,16.52,4.17,24.83,2.03,7.14-1.84,14.2-6.11,18.04-12.56,1.01-1.7,1.72-3.4,1.9-5.39,.07-.84-1.35-1.55-1.8-.69Z" style="fill:#263238;"></path><path d="M194.41,353.22c-2.59-1.44-5.65-1.98-8.58-1.46-.79,.14-1.57,.36-2.32,.65-.56-2.02-.48-4.23,.27-6.2,.22-.58,.49-1.15,.8-1.69,1.68,1.07,3.64,1.74,5.66,1.88,2.33,.16,4.82-.44,6.67-1.91,1.77-1.41,2.74-4.02,1.35-6.04-1.52-2.2-4.74-2.04-7.05-1.52-2.7,.61-5.2,2.16-7.05,4.21-.09,.1-.18,.22-.27,.32-.37-.41-.71-.84-1-1.32-.6-1-.96-2.12-1.15-3.28,2.76-.16,5.45-1.41,7.35-3.63,1.46-1.72,2.72-4.35,1.7-6.59-1.04-2.29-3.96-2.69-6.02-1.62-3.67,1.91-5.44,6.42-5.3,10.51-1.44-.13-2.87-.57-4.18-1.33-.4-.23-.39,.56-.13,.74,1.34,.98,2.86,1.58,4.42,1.82,.06,.46,.14,.91,.25,1.34,.5,1.93,1.54,3.6,2.91,4.94-1.93,3.12-2.56,6.97-1.34,10.41-1.2,.74-2.28,1.67-3.16,2.76-.9,1.11-1.64,2.45-1.95,3.86-.43,1.94,.04,3.09,1.18,4.6,.21,.28,.55,.11,.57-.21,.07-1.74,.23-3.7,.98-5.3,.72-1.54,1.88-2.84,3.28-3.8,.05,.08,.08,.15,.13,.23,2.71,4.26,8.41,6.11,12.95,3.56,1.12-.63,2.73-1.83,2.13-3.31-.48-1.19-2.03-2.03-3.09-2.61Zm-11.42-23.42c.89-1.59,3.13-4.48,5.29-3.57,2.49,1.05,.32,4.83-.82,6.14-1.57,1.81-3.66,2.85-5.85,3.13-.05-1.99,.42-4,1.38-5.7Zm9.99,8.83c1.05-.13,2.64-.27,3.33,.73,.53,.77,.38,1.88-.08,2.64-.92,1.54-2.9,2.3-4.61,2.49-2.1,.23-4.24-.36-6-1.52,1.81-2.3,4.44-3.99,7.36-4.34Zm2.23,17.97c-.1,.33-.79,.65-1.09,.82-.83,.49-1.77,.78-2.73,.87-1.9,.18-3.8-.41-5.25-1.64-.79-.67-1.41-1.47-1.88-2.35,3.29-1.37,7.17-1.06,10.08,1.12,.34,.25,1.03,.65,.87,1.18Z" style="fill:#263238;"></path></g></g></g><g id="Pumpkin_pie_slice"><g id="Slice_of_Pie"><g id="Plate"><path d="M279.52,317.38c43.28-24.99,113.45-24.99,156.73,0h0v-4.5c22.63,13.07,33.4,30.38,32.37,47.5,1.04,17.12-9.74,34.42-32.36,47.49-43.28,24.99-113.45,24.99-156.73,0-43.28-24.98-43.28-65.5,0-90.48Z" style="fill:#BA68C8;"></path><path d="M279.52,317.38c43.28-24.99,113.45-24.99,156.73,0h0v-4.5c22.63,13.07,33.4,30.38,32.37,47.5,1.04,17.12-9.74,34.42-32.36,47.49-43.28,24.99-113.45,24.99-156.73,0-43.28-24.98-43.28-65.5,0-90.48Z" style="fill:#fff; opacity:.3;"></path><g><path d="M279.48,312.99c-43.28,24.99-43.27,65.5,0,90.48,43.28,24.99,113.45,24.98,156.73,0,43.28-24.99,43.28-65.5,0-90.48-43.28-24.99-113.45-24.99-156.73,0Z" style="fill:#fafafa;"></path><path d="M357.88,294.77h0c29.5,0,57.22,6.63,78.05,18.66,20.73,11.97,32.15,27.84,32.15,44.7s-11.42,32.73-32.14,44.7c-20.84,12.03-48.56,18.66-78.05,18.66s-57.21-6.62-78.05-18.65c-20.73-11.97-32.15-27.84-32.15-44.7,0-16.86,11.41-32.73,32.14-44.7,20.84-12.03,48.55-18.66,78.04-18.66m0-.63c-28.37,0-56.72,6.25-78.36,18.74-43.28,24.99-43.27,65.5,0,90.48,21.64,12.49,50,18.74,78.36,18.74s56.72-6.25,78.36-18.74c43.28-24.99,43.28-65.5,0-90.48-21.64-12.49-50-18.74-78.36-18.74h0Z" style="fill:#ebebeb;"></path></g><path d="M411.02,329.8c29.74,17.17,29.74,45.01,0,62.18-29.74,17.17-77.96,17.17-107.71,0-29.74-17.17-29.74-45.01,0-62.18,29.74-17.17,77.96-17.17,107.71,0Z" style="fill:#BA68C8;"></path><path d="M411.02,329.8c29.74,17.17,29.74,45.01,0,62.18-29.74,17.17-77.96,17.17-107.71,0-29.74-17.17-29.74-45.01,0-62.18,29.74-17.17,77.96-17.17,107.71,0Z" style="fill:#fff; opacity:.5;"></path><path d="M407.36,332.98c27.72,15.42,27.72,40.41,0,55.83-27.72,15.42-72.66,15.42-100.38,0-27.72-15.42-27.72-40.41,0-55.83,27.72-15.42,72.66-15.42,100.38,0Z" style="fill:#fafafa;"></path></g><path id="Shadow-4" d="M282.95,378.04c-8.56,5.34-13.2,13.48-.96,12.5,27.75-2.21,138.12-11.81,163.06-13.89,7.38-.62,8.14-5.27,3.83-16.27-4.31-11-26.06-44.01-56.09-48.28,0,0-101.85,60.95-109.84,65.93Z" style="opacity:.15;"></path><g id="Slice"><g><g><path d="M429.71,360.92c-.23-.16,0-2.25,0-2.52v-6.77c0-2.92-.03-5.86,.15-8.76,.18-3.03-.39-6.04,0-9.11,.2-1.55,.56-3.09,.63-4.65,.14-2.95-.48-5.78-.63-8.73-.19-3.66,.84-7.69,4.82-8.22,2-.27,2.15,.99,2.16,1.18,0-2.35,.07-5.02-.28-7.33-.53-3.5-2.93-6.9-5.61-9.08-1.86-1.51-3.9-2.88-5.29-4.83-1.31-1.84-1.96-4.11-3.36-5.88-3.88-4.92-11.95-4.49-16.18-9.12-1.1-1.2-1.85-2.66-2.86-3.94-2.38-3.02-6.07-4.82-9.86-5.51-2.17-.4-4.39-.46-6.53-.94-4.04-.9-6.43-4.46-10.55-5.23-3.66-.68-7.75-.68-10.43,2.18-4.53,4.86-3.35,12.63-3.35,18.77v30.12l67.18,48.37Z" style="fill:#ffbda7;"></path><path d="M371.87,262.62c-.64,.08-4.41,1.2-3.44,2.26,.17,.19,.42,.28,.66,.35,.05,.02,.1,.03,.15,.05,2.61,.8,5.46,.66,7.99,1.69,1.51,.62,3.09,2.01,4.75,2.16,2.23,.2,.81-2.41,.01-3.25-2.48-2.63-6.57-3.71-10.1-3.26Zm48.17,23.01c-3.21-2.63-6.84-3.48-10.6-4.93-1.31-.5-2.54-1.2-3.65-2.07-2.15-1.69-3.77-3.98-5.83-5.79-2.13-1.87-4.73-3.18-7.48-3.82-.97-.23-7.32-1.45-6.55,1.16,.17,.58,.82,.84,1.41,.98,2.47,.62,5.14,.63,7.38,1.84,2.67,1.45,4.2,4.31,6.3,6.5,1.68,1.76,3.78,3.12,6.07,3.94,2.38,.85,4.94,1.12,7.33,1.94,1.62,.56,3.21,1.27,4.86,1.72,1.64,.45,2.14-.36,.77-1.49Zm7.37,11.12c-3.41-.32,.75,3.72,1.39,4.74,1.29,2.02,1.68,4.49,2.76,6.63,.38,.76,1.06,1.57,1.9,1.42,.55-.1,.94-.6,1.18-1.1,2.07-4.2-2.78-11.26-7.24-11.68Z" style="fill:#fff; opacity:.2;"></path><path d="M427.89,306.39c-.71-1.23-1.53-2.4-2.46-3.48-1.48-1.73-3.21-3.23-4.63-5.01-2.14-2.68-3.54-5.97-6.1-8.25-2.94-2.6-6.97-3.52-10.39-5.44-3.29-1.85-5.95-4.56-8.98-6.77-3.18-2.32-6.45-3.08-10.17-4.11-2.65-.73-5.72-1.11-7.92-2.78-2.08-1.58-4.41-2.96-7.06-3.32-3.79-.52-6.1,1.56-7.57,4.44-.41,3.58-.07,7.41-.07,10.75v30.12l67.18,48.37c-.23-.16,0-2.25,0-2.52v-6.77c0-2.92-.03-5.86,.15-8.76,.18-3.03-.39-6.04,0-9.11,.2-1.55,.56-3.09,.63-4.65,.14-2.95-.48-5.78-.63-8.73-.09-1.78,.14-3.2,.58-4.88,.38-1.47,0-2.81-.45-4.29-.51-1.68-1.22-3.3-2.1-4.83Z" style="fill:#f0997a; opacity:.5;"></path></g><path d="M436.84,313.34v48.28c0,3.16-2.34,5.84-5.47,6.26l-150.98,20.46c-1.8,.24-3.4-1.16-3.4-2.97v-7.06c0,1.58,1.38,3.09,3.28,2.86l143.29-19.42c2.09-.29,4.69-1.1,5.5-3.28,.3-.82,.35-1.7,.39-2.58l.31-6.76c.18-3.87,.35-7.74,.1-11.6-.14-2.18-.42-4.36-.28-6.55,.14-2.1,.78-4.11,.6-6.23-.19-2.27-.64-4.67-.45-6.95,.26-3.17,2.2-5.29,4.96-5.66,1.78-.24,2.1,.74,2.15,1.09,0,.02,0,.04,0,.05,0,.01,0,.02,0,.04Z" style="fill:#f0997a;"></path><path d="M430.65,329.36v28.76c0,1.9-1.71,4.75-4.55,5.24-2.86,.5-138.28,19.47-143.63,20.09-2.99,.34-5.48,.38-5.48-5.14v-31.63c0,2.8,4.79,.28,20.09-1.3,15.3-1.57,100.78-13.43,115.34-14.76,9.19-.84,15.12-1.15,18.24-1.26Z" style="fill:#BA68C8;"></path><path d="M430.65,335.55v15.89c-45.33,9.52-91.05,18.63-137.33,18.61-5.45,0-10.94-.14-16.33-.81v-12.32c1.02,.09,1.9,.17,2.58,.22,15.33,.98,31.77-1.21,45.55-2.43,32.03-2.87,67.64-10.44,98.98-17.28,2.18-.47,4.39-1.14,6.55-1.88Z" style="fill:#BA68C8;"></path><path d="M430.65,329.36v6.2c-2.17,.74-4.38,1.41-6.55,1.88-31.34,6.84-66.94,14.41-98.98,17.28-13.78,1.23-30.21,3.41-45.55,2.43-.68-.05-1.57-.12-2.58-.22v-10.24c0,2.8,4.79,.28,20.09-1.3,15.3-1.57,100.78-13.43,115.34-14.76,9.19-.84,15.12-1.15,18.24-1.26Z" style="fill:#fff; opacity:.15;"></path><path d="M293.31,370.05c46.28,.03,92-9.09,137.33-18.61v6.68c0,1.9-1.71,4.75-4.55,5.24-2.86,.5-138.28,19.47-143.63,20.09-2.99,.34-5.48,.38-5.48-5.14v-9.07c5.39,.67,10.88,.8,16.33,.81Z" style="opacity:.1;"></path><path d="M430.65,326.2v3.16c-3.12,.11-9.04,.42-18.24,1.26-14.56,1.33-100.04,13.18-115.34,14.76-15.3,1.58-20.09,4.1-20.09,1.3,0-2.6,2.35-3.43,5.17-5.66,1.44-1.14,79.3-61.48,79.3-61.48,2.01-2.2,5.36-2.51,7.74-.73l60.3,45.07c.73,.55,1.16,1.4,1.16,2.31Z" style="fill:#BA68C8;"></path><path d="M430.65,326.2v3.16c-3.12,.11-9.04,.42-18.24,1.26-14.56,1.33-100.04,13.18-115.34,14.76-15.3,1.58-20.09,4.1-20.09,1.3,0-2.6,2.35-3.43,5.17-5.66,1.44-1.14,79.3-61.48,79.3-61.48,2.01-2.2,5.36-2.51,7.74-.73l60.3,45.07c.73,.55,1.16,1.4,1.16,2.31Z" style="opacity:.1;"></path><path d="M430.64,326.17c-.02-2.11-149.01,18.79-152.13,19.21-.52,.07-.84-.54-.49-.93,0,0,85.64-67.6,85.63-67.72,2.16-.72,3.97-.25,5.8,.36,9.53,3.19,18.5,7.14,26.65,11.85,17.13,9.89,28.45,21.85,33.99,34.49,.38,.86,.55,1.8,.56,2.74Z" style="fill:#BA68C8;"></path><g style="opacity:.1;"><path d="M430.64,326.17c-.02-2.11-149.01,18.79-152.13,19.21-.52,.07-.84-.54-.49-.93,0,0,85.64-67.6,85.63-67.72,2.16-.72,3.97-.25,5.8,.36,9.53,3.19,18.5,7.14,26.65,11.85,17.13,9.89,28.45,21.85,33.99,34.49,.38,.86,.55,1.8,.56,2.74Z" style="fill:#fff;"></path></g></g></g><g id="Whipped_Cream-2"><path d="M347.7,303.2c10.58-6.11,27.74-6.11,38.32,0,10.58,6.11,10.58,16.01,0,22.12-10.58,6.11-27.74,6.11-38.32,0-10.58-6.11-10.58-16.01,0-22.12Z" style="opacity:.1;"></path><g id="Cream-2"><path d="M392.95,307.19c-.27-1.9-.74-3.68-1.71-5.15-.97-1.52-2.47-2.71-4.79-3.39-.49-.15-1.02-.27-1.59-.37-.02-.15-.04-.31-.06-.46-.62-3.67-3.97-7.03-8.06-7.12,0-3.46-2.11-4.24-4.44-6.4-2.73-2.53-2.73-4.35-3.75-4.35s-2.13,5.57-8.61,9.62c-6.49,4.05-12.45,3.85-13.07,9.72-4.43,1.6-7.01,4.95-5.96,8.59,.07,.27,.17,.55,.29,.82-.39,.68-.6,1.5-.54,2.39,.02,.2,.04,.38,.08,.57v.02c.58,3.52,3.21,6.94,7.87,9.63,10.65,6.15,27.92,6.15,38.57,0,4.87-2.81,7.51-6.43,7.91-10.11h0c.2-1.46-.49-2.85-2.14-4.02Z" style="fill:#fff;"></path><path d="M363.19,291.56c2.95-4.21,4.31-9.51,4.62-10.89-.23,.36-.49,.83-.82,1.4-1.51,2.77-4.84,8.11-9.08,10.37-5.86,3.13-8.79,2.95-11.04,6.84,5.96-1.76,12.9-2.84,16.32-7.72Z" style="fill:#f0f0f0;"></path><path d="M363.81,299.73c6.12-1.81,11.23-3.84,12.93-9.03,0-3.46-2.11-4.24-4.44-6.4l-.02-.02-8.46,15.45Z" style="fill:#f0f0f0;"></path><path d="M374.11,285.83c-.56-.46-1.18-.95-1.81-1.54l-.02-.02-2.37,4.32-.84,3.74-5.25,7.38c8.57-4.16,11.34-8.19,10.3-13.89Z" style="fill:#fff;"></path><path d="M365.64,294.01c-3.91,3.52-10.06,4.79-15.73,6.35-5.67,1.56-8.7,4.38-8.7,8.35,3.03-3.95,5.48-4.63,14.17-6.29,8.69-1.66,14.46-5.47,16.02-10.06,1.06-3.12,1.25-5.91,.88-8.07-2.71-2.52-2.72-4.33-3.73-4.33,.84,1.45,.99,10.54-2.91,14.06Z" style="fill:#e6e6e6;"></path><path d="M341.21,308.7c4.71-1.93,9.35-1.45,14.8-1.19,8.77,.41,16.18-.41,21.01-3.8s7.13-10.55-.28-13.01c2.84,2.51,1.48,7.75-6.46,11.44-4.45,2.07-11.09,2.45-17.66,2.81-6.81,.38-9.75,2.3-11.41,3.75Z" style="fill:#f0f0f0;"></path><path d="M384.86,298.27c.46,4.66-2.7,11.77-16.33,14.23-10.1,1.82-21.4,.69-21.4,.69,0,0,13.69,.22,21.31-2.1,9.04-2.74,14.5-7.47,16.41-12.82Z" style="fill:#e6e6e6;"></path><g><path d="M345.24,318.94c.21,.11,.46,.24,.77,.38-.26-.13-.52-.25-.77-.38h0Z" style="fill:#f0f0f0;"></path><path d="M374.82,319.53c-15.53,4.65-25.35,1.41-28.81-.21,9.4,4.71,21.11,5.7,32.87,1.45,12.09-4.37,13.8-9.87,14.08-13.59-.27-1.9-.74-3.68-1.71-5.15-.97-1.52-2.47-2.71-4.79-3.39,2.56,2.09,5.29,15.82-11.63,20.89Z" style="fill:#f0f0f0;"></path></g><path d="M379.79,312.84c-3.57,2.74-15.35,6.3-26.64,4.14-11.29-2.16-12.4-5.3-11.93-8.29-.39,.68-.6,1.5-.54,2.39,.02,.2,.04,.38,.08,.57v.02c.32,1.93,1.26,3.83,2.81,5.6,1.73,.87,4.06,1.6,7.18,2.03,14.36,2,24.73-1.67,29.05-6.48Z" style="fill:#f0f0f0;"></path></g></g></g></g><g id="Spoon"><path id="Shadow-5" d="M473.62,355.47l-99.83,41.85c-7.8-5.65-19.01-7.74-31.9-3.68-13.56,4.27-26.75,16.75-17.23,24.28,9.53,7.54,34.9,4.7,46.6-1.05,9.01-4.43,10.85-9.62,7.53-14.62l104.41-39.2c3.65-1.45-5.93-9.03-9.58-7.58Z" style="opacity:.15;"></path><g id="Spoon-2"><g id="Tea_spoon"><path d="M325.01,409.14l-.04,.02c2.92,3.17,6.33,6.32,15.24,8.05,8.9,1.73,21.41,1.66,31.74-3.73,9.91-5.17,10.35-12.92,9.51-16.61-.1-.21-1.28-3.03-1.4-3.23l-5-4.93c-3.84-2.56-10.15-4.94-16.39-5.25-13.02-.64-29.18,5.55-34.93,16.25-2.01,3.74-1.19,6.91,1.27,9.42Z" style="fill:#37474f;"></path><path d="M484.25,355.89l-106.21,39.88c-1.59-1.64-3.52-3.15-5.74-4.54l.21-1.45,102.37-42.92c3.15-1.25,10.73,4.23,10.37,6.68-.03,.24-.17,1.21-.21,1.46-.05,.38-.31,.69-.8,.89Z" style="fill:#37474f;"></path><path d="M474.89,346.86c3.65-1.45,13.23,6.13,9.58,7.58l-106.21,39.88c-1.52-1.61-3.47-3.11-5.74-4.54l102.37-42.92Z" style="fill:#455a64;"></path><path d="M379.06,392.87s88.65-33.07,95.25-35.52c7.24-2.69,11.57-3.76,7.67-6.85-4.57-3.62-5.98-2.52-5.98-2.52,0,0,2.39,.51,4.45,2.3,2.28,1.98-.23,3.8-5.49,5.44-5.26,1.63-95.9,37.15-95.9,37.15Z" style="fill:#fff; opacity:.1;"></path><path d="M372.52,408.27c-11.69,5.75-37.07,8.59-46.6,1.05-9.53-7.54,3.66-20.01,17.23-24.28,13.42-4.23,25.03-1.79,32.86,4.4,7.83,6.2,8.08,13.14-3.49,18.83Z" style="fill:#455a64;"></path><path d="M323.28,406c2.66-5.68,12.19-12.04,21.05-14.95,12.55-4.12,22.11-2.43,27.6,2.64,5.49,5.07,4.25,11.05-7,16.37-1.98,.94-4.31,1.8-6.83,2.58-11.86,2.13-25.69,1.81-32.17-3.32-1.29-1.02-2.14-2.14-2.65-3.32Z" style="fill:#fff; opacity:.05;"></path><path d="M360.27,408.2c-8.06,3.81-24.11,6.19-28.85,1.81-4.74-4.37,5.25-12.34,14.24-15.29,8.9-2.92,15.68-1.72,19.57,1.87s3.01,7.84-4.97,11.61Z" style="fill:#fff; opacity:.05;"></path></g></g></g><g id="Sparkles"><g id="Sparkles-2"><g><path d="M393.39,81.26c.21-.69,.45-1.37,.6-2.07,.06-.3,.13-.59,.14-.89,0-.21-.05-.75-.35-.78-.4-.03-.54,.22-.71,.56-.19,.36-.36,.73-.51,1.1-.25,.64-.46,1.3-.68,1.94-.45,1.33-.47,1.4-.88,2.75-.24,.78,1.21,1.29,1.47,.44,.44-1.44,.48-1.61,.93-3.05Z" style="fill:#e0e0e0;"></path><path d="M385.67,82.08c-.49-.53-.96-1.07-1.49-1.56-.22-.2-.45-.41-.7-.57-.18-.11-.68-.34-.85-.08-.23,.32-.07,.58,.13,.89,.22,.34,.45,.68,.7,1,.43,.54,.89,1.04,1.34,1.56,.93,1.06,.98,1.11,1.94,2.14,.56,.6,1.72-.4,1.12-1.05-1.03-1.1-1.16-1.22-2.18-2.33Z" style="fill:#e0e0e0;"></path><path d="M382.52,89.18c-.7,.16-1.41,.29-2.09,.51-.29,.09-.58,.19-.85,.33-.19,.1-.63,.42-.5,.7,.17,.36,.46,.35,.83,.33,.41-.02,.81-.05,1.21-.11,.68-.1,1.35-.25,2.02-.39,1.38-.27,1.45-.29,2.82-.61,.8-.19,.52-1.69-.35-1.49-1.47,.34-1.64,.39-3.11,.72Z" style="fill:#e0e0e0;"></path><path d="M387.09,95.46c-.21,.69-.45,1.37-.6,2.07-.06,.3-.13,.59-.14,.89,0,.21,.05,.75,.35,.78,.4,.03,.54-.23,.71-.56,.19-.36,.36-.73,.51-1.1,.25-.64,.46-1.3,.68-1.94,.45-1.33,.47-1.4,.88-2.75,.24-.78-1.21-1.29-1.47-.44-.44,1.44-.48,1.61-.93,3.05Z" style="fill:#e0e0e0;"></path><path d="M394.81,94.64c.49,.53,.96,1.07,1.49,1.56,.22,.2,.45,.41,.7,.57,.18,.11,.68,.33,.85,.08,.23-.32,.07-.58-.13-.89-.22-.34-.45-.68-.7-1-.42-.54-.89-1.04-1.34-1.56-.93-1.06-.98-1.11-1.94-2.14-.56-.6-1.72,.4-1.12,1.05,1.03,1.1,1.16,1.22,2.18,2.33Z" style="fill:#e0e0e0;"></path><path d="M397.96,87.54c.7-.16,1.41-.29,2.09-.51,.29-.09,.58-.19,.85-.33,.19-.1,.63-.42,.5-.7-.17-.36-.46-.35-.83-.33-.41,.02-.81,.05-1.21,.11-.68,.1-1.35,.25-2.02,.38-1.38,.27-1.45,.29-2.82,.61-.8,.19-.52,1.69,.35,1.49,1.47-.34,1.64-.39,3.11-.72Z" style="fill:#e0e0e0;"></path></g><g><path d="M59.91,30.94c.21-.69,.45-1.37,.6-2.07,.06-.3,.13-.59,.14-.89,0-.21-.05-.75-.35-.78-.4-.03-.54,.22-.71,.56-.19,.36-.36,.73-.51,1.1-.25,.64-.46,1.3-.68,1.94-.45,1.33-.47,1.4-.88,2.75-.24,.78,1.21,1.29,1.47,.44,.44-1.44,.48-1.61,.93-3.05Z" style="fill:#e0e0e0;"></path><path d="M52.19,31.76c-.49-.53-.96-1.07-1.49-1.56-.22-.2-.45-.41-.7-.57-.18-.11-.68-.33-.85-.08-.23,.32-.07,.58,.13,.89,.22,.34,.45,.68,.7,1,.43,.54,.89,1.04,1.34,1.56,.93,1.06,.98,1.11,1.94,2.14,.56,.6,1.72-.4,1.12-1.05-1.03-1.1-1.16-1.22-2.18-2.33Z" style="fill:#e0e0e0;"></path><path d="M49.04,38.86c-.7,.16-1.41,.29-2.09,.51-.29,.09-.58,.19-.85,.33-.19,.1-.63,.42-.5,.7,.17,.36,.46,.35,.83,.33,.41-.02,.81-.05,1.21-.11,.68-.1,1.35-.25,2.02-.39,1.38-.27,1.45-.29,2.82-.61,.8-.19,.52-1.69-.35-1.49-1.47,.34-1.64,.39-3.11,.72Z" style="fill:#e0e0e0;"></path><path d="M53.61,45.14c-.21,.69-.45,1.37-.6,2.07-.06,.3-.13,.59-.14,.89,0,.21,.05,.75,.35,.78,.39,.03,.54-.23,.71-.56,.19-.36,.36-.73,.51-1.1,.25-.64,.46-1.3,.68-1.94,.45-1.33,.47-1.4,.88-2.75,.24-.78-1.21-1.29-1.47-.44-.44,1.44-.48,1.61-.93,3.05Z" style="fill:#e0e0e0;"></path><path d="M61.33,44.32c.49,.53,.96,1.07,1.49,1.55,.22,.2,.45,.41,.7,.57,.18,.11,.68,.33,.85,.08,.23-.32,.07-.58-.13-.89-.22-.34-.45-.68-.7-1-.43-.54-.89-1.04-1.34-1.56-.93-1.06-.98-1.11-1.94-2.14-.56-.6-1.72,.4-1.12,1.05,1.03,1.1,1.16,1.22,2.18,2.33Z" style="fill:#e0e0e0;"></path><path d="M64.48,37.22c.7-.16,1.41-.29,2.09-.51,.29-.09,.58-.19,.85-.33,.19-.1,.63-.42,.5-.7-.17-.36-.46-.35-.83-.33-.41,.02-.81,.05-1.21,.11-.68,.1-1.35,.25-2.02,.38-1.38,.27-1.45,.29-2.82,.61-.8,.19-.52,1.69,.35,1.49,1.47-.34,1.64-.39,3.11-.72Z" style="fill:#e0e0e0;"></path></g><g><path d="M465.04,446.09c.72,.05,1.43,.12,2.15,.11,.3,0,.61-.01,.9-.07,.21-.04,.72-.22,.68-.52-.06-.39-.34-.47-.7-.56-.39-.1-.79-.19-1.19-.25-.68-.1-1.37-.15-2.05-.21-1.4-.14-1.48-.14-2.88-.23-.82-.05-.98,1.47-.09,1.53,1.5,.1,1.68,.09,3.18,.2Z" style="fill:#e0e0e0;"></path><path d="M462.47,438.76c.4-.6,.82-1.18,1.17-1.81,.15-.26,.29-.53,.39-.82,.07-.2,.17-.73-.11-.85-.37-.15-.58,.06-.84,.33-.28,.29-.56,.59-.81,.91-.42,.54-.81,1.11-1.21,1.67-.82,1.14-.86,1.21-1.64,2.38-.45,.68,.78,1.59,1.28,.84,.83-1.25,.92-1.41,1.76-2.66Z" style="fill:#e0e0e0;"></path><path d="M454.84,437.32c-.32-.65-.61-1.3-.98-1.92-.16-.26-.31-.52-.51-.75-.14-.16-.55-.52-.79-.33-.31,.25-.24,.53-.13,.89,.11,.39,.23,.78,.38,1.16,.25,.64,.56,1.26,.84,1.88,.58,1.28,.62,1.35,1.24,2.61,.36,.73,1.77,.11,1.37-.69-.67-1.35-.76-1.5-1.42-2.86Z" style="fill:#e0e0e0;"></path><path d="M449.78,443.21c-.72-.05-1.43-.12-2.15-.11-.3,0-.61,.01-.9,.07-.21,.04-.72,.22-.68,.52,.06,.39,.34,.47,.7,.56,.39,.1,.79,.19,1.19,.25,.68,.1,1.37,.15,2.05,.21,1.4,.14,1.48,.14,2.88,.23,.82,.05,.98-1.47,.09-1.53-1.5-.1-1.68-.09-3.18-.2Z" style="fill:#e0e0e0;"></path><path d="M452.35,450.54c-.4,.6-.82,1.18-1.17,1.81-.15,.26-.29,.53-.39,.82-.07,.2-.17,.74,.11,.85,.37,.15,.58-.06,.84-.33,.28-.29,.56-.59,.81-.91,.42-.54,.81-1.11,1.21-1.67,.82-1.14,.86-1.21,1.64-2.38,.45-.68-.78-1.59-1.28-.84-.83,1.25-.92,1.41-1.76,2.66Z" style="fill:#e0e0e0;"></path><path d="M459.98,451.98c.32,.65,.61,1.3,.98,1.92,.16,.26,.31,.52,.51,.75,.14,.16,.55,.52,.79,.33,.31-.25,.24-.53,.13-.89-.11-.39-.23-.78-.38-1.16-.25-.64-.56-1.26-.84-1.88-.58-1.28-.62-1.35-1.24-2.61-.36-.73-1.77-.11-1.37,.68,.67,1.35,.76,1.5,1.42,2.86Z" style="fill:#e0e0e0;"></path></g><g><path d="M81.65,462.23c.21-.69,.45-1.37,.6-2.07,.06-.3,.13-.59,.14-.89,0-.21-.05-.75-.35-.78-.39-.03-.54,.22-.71,.55-.19,.36-.36,.73-.51,1.1-.25,.64-.46,1.3-.68,1.94-.45,1.33-.47,1.4-.88,2.75-.24,.78,1.21,1.29,1.47,.44,.44-1.44,.48-1.61,.93-3.05Z" style="fill:#e0e0e0;"></path><path d="M73.93,463.05c-.49-.53-.96-1.07-1.49-1.56-.22-.2-.45-.41-.7-.57-.18-.11-.68-.34-.85-.08-.23,.32-.07,.58,.13,.89,.22,.34,.45,.68,.7,1,.42,.54,.89,1.04,1.34,1.56,.93,1.06,.98,1.11,1.94,2.14,.56,.6,1.72-.4,1.12-1.05-1.03-1.1-1.16-1.22-2.18-2.33Z" style="fill:#e0e0e0;"></path><path d="M70.77,470.15c-.7,.16-1.41,.29-2.09,.51-.29,.09-.58,.19-.85,.33-.19,.1-.63,.42-.5,.7,.17,.36,.46,.35,.83,.33,.41-.02,.81-.05,1.21-.11,.68-.1,1.35-.25,2.02-.38,1.38-.27,1.45-.29,2.82-.61,.8-.19,.52-1.69-.35-1.49-1.47,.34-1.64,.39-3.11,.72Z" style="fill:#e0e0e0;"></path><path d="M75.34,476.42c-.21,.69-.45,1.37-.6,2.07-.06,.3-.13,.59-.14,.89,0,.21,.05,.75,.35,.78,.4,.03,.54-.22,.71-.56,.19-.36,.36-.73,.51-1.1,.25-.64,.46-1.3,.68-1.94,.45-1.33,.47-1.4,.88-2.75,.24-.78-1.21-1.29-1.47-.44-.44,1.44-.48,1.61-.93,3.05Z" style="fill:#e0e0e0;"></path><path d="M83.06,475.61c.49,.53,.96,1.07,1.49,1.56,.22,.2,.45,.41,.7,.57,.18,.11,.68,.34,.85,.08,.23-.32,.07-.58-.13-.89-.22-.34-.45-.68-.7-1-.43-.54-.89-1.04-1.34-1.56-.93-1.06-.98-1.11-1.94-2.14-.56-.6-1.72,.4-1.12,1.05,1.03,1.1,1.16,1.22,2.18,2.33Z" style="fill:#e0e0e0;"></path><path d="M86.22,468.51c.7-.16,1.41-.29,2.09-.51,.29-.09,.58-.19,.85-.33,.19-.1,.63-.42,.5-.7-.17-.36-.46-.35-.83-.33-.41,.02-.81,.05-1.21,.11-.68,.1-1.35,.25-2.02,.38-1.38,.27-1.45,.29-2.82,.61-.8,.19-.52,1.69,.35,1.49,1.47-.34,1.64-.39,3.11-.72Z" style="fill:#e0e0e0;"></path></g><g><path d="M453.22,106.19c-.07-.72-.12-1.43-.26-2.14-.06-.3-.11-.6-.22-.88-.08-.2-.34-.67-.63-.58-.38,.12-.4,.42-.43,.79-.03,.4-.05,.81-.04,1.22,.02,.68,.09,1.37,.14,2.05,.1,1.4,.11,1.48,.26,2.88,.09,.81,1.62,.72,1.52-.17-.16-1.5-.19-1.67-.34-3.17Z" style="fill:#e0e0e0;"></path><path d="M446.43,109.97c-.66-.29-1.3-.61-1.98-.85-.29-.1-.57-.2-.87-.25-.21-.03-.75-.04-.82,.26-.08,.39,.16,.56,.47,.77,.34,.23,.68,.45,1.03,.64,.6,.33,1.23,.61,1.85,.91,1.27,.61,1.34,.64,2.62,1.21,.75,.33,1.43-1.04,.61-1.4-1.38-.61-1.54-.67-2.92-1.29Z" style="fill:#e0e0e0;"></path><path d="M446.31,117.73c-.58,.42-1.18,.82-1.72,1.29-.23,.2-.46,.4-.65,.63-.14,.16-.41,.63-.19,.84,.3,.26,.56,.14,.9-.02,.37-.18,.73-.36,1.07-.57,.58-.36,1.14-.76,1.71-1.15,1.16-.79,1.22-.84,2.36-1.67,.66-.48-.19-1.76-.91-1.23-1.22,.89-1.35,1-2.57,1.88Z" style="fill:#e0e0e0;"></path><path d="M452.98,121.72c.07,.72,.12,1.43,.26,2.14,.06,.3,.11,.6,.22,.88,.08,.2,.34,.67,.63,.58,.38-.12,.4-.42,.43-.79,.03-.4,.05-.81,.04-1.22-.02-.68-.09-1.37-.14-2.05-.1-1.4-.11-1.48-.26-2.88-.09-.81-1.62-.72-1.52,.17,.16,1.5,.19,1.67,.34,3.17Z" style="fill:#e0e0e0;"></path><path d="M459.76,117.94c.66,.29,1.3,.61,1.98,.85,.29,.1,.57,.2,.87,.25,.21,.03,.75,.04,.82-.26,.08-.39-.16-.56-.47-.77-.34-.23-.68-.45-1.03-.64-.6-.33-1.23-.61-1.85-.91-1.27-.61-1.34-.64-2.62-1.21-.75-.33-1.43,1.04-.61,1.4,1.38,.61,1.54,.67,2.92,1.29Z" style="fill:#e0e0e0;"></path><path d="M459.88,110.18c.58-.42,1.18-.82,1.72-1.29,.23-.2,.46-.4,.65-.63,.14-.16,.41-.63,.19-.84-.3-.26-.56-.14-.9,.02-.37,.18-.73,.36-1.07,.57-.58,.36-1.14,.76-1.71,1.15-1.16,.79-1.22,.84-2.36,1.67-.66,.48,.19,1.76,.91,1.23,1.22-.89,1.35-1,2.57-1.88Z" style="fill:#e0e0e0;"></path></g><g><path d="M265.91,34.69c-.07-.72-.12-1.43-.26-2.14-.06-.3-.11-.6-.22-.88-.07-.2-.34-.67-.63-.58-.38,.12-.4,.42-.43,.79-.03,.4-.05,.81-.04,1.22,.02,.68,.09,1.37,.14,2.05,.1,1.4,.11,1.48,.26,2.88,.09,.81,1.62,.72,1.52-.17-.16-1.5-.19-1.67-.34-3.17Z" style="fill:#e0e0e0;"></path><path d="M259.13,38.47c-.66-.29-1.3-.61-1.98-.85-.29-.1-.57-.2-.87-.25-.21-.03-.75-.04-.82,.26-.08,.39,.16,.56,.47,.77,.34,.23,.68,.45,1.03,.64,.6,.33,1.23,.61,1.85,.91,1.27,.61,1.34,.64,2.62,1.21,.75,.33,1.43-1.04,.61-1.4-1.38-.61-1.54-.67-2.92-1.29Z" style="fill:#e0e0e0;"></path><path d="M259.01,46.23c-.58,.42-1.18,.82-1.72,1.29-.23,.2-.46,.4-.65,.63-.14,.16-.41,.63-.19,.84,.3,.26,.56,.14,.9-.02,.37-.18,.73-.36,1.07-.57,.58-.36,1.14-.76,1.71-1.15,1.16-.79,1.22-.84,2.36-1.67,.66-.48-.19-1.76-.91-1.23-1.22,.89-1.35,1-2.57,1.88Z" style="fill:#e0e0e0;"></path><path d="M265.68,50.22c.07,.72,.12,1.43,.26,2.14,.06,.3,.11,.6,.22,.88,.08,.2,.34,.67,.63,.58,.38-.12,.4-.42,.43-.79,.03-.4,.05-.81,.04-1.22-.02-.68-.09-1.37-.14-2.05-.1-1.4-.11-1.48-.26-2.88-.09-.81-1.62-.72-1.52,.17,.16,1.5,.19,1.67,.34,3.17Z" style="fill:#e0e0e0;"></path><path d="M272.46,46.44c.66,.29,1.3,.61,1.98,.85,.29,.1,.57,.2,.87,.25,.21,.03,.75,.04,.82-.26,.08-.39-.16-.56-.47-.77-.34-.23-.68-.45-1.03-.64-.6-.33-1.23-.61-1.85-.91-1.27-.61-1.34-.64-2.62-1.21-.75-.33-1.43,1.04-.61,1.4,1.38,.61,1.54,.67,2.92,1.29Z" style="fill:#e0e0e0;"></path><path d="M272.58,38.68c.58-.42,1.18-.82,1.72-1.29,.23-.2,.46-.4,.65-.63,.14-.16,.41-.63,.19-.84-.3-.26-.56-.14-.9,.02-.37,.18-.73,.36-1.07,.57-.58,.36-1.14,.76-1.71,1.15-1.16,.79-1.22,.84-2.36,1.67-.66,.48,.19,1.76,.91,1.23,1.22-.89,1.35-1,2.57-1.88Z" style="fill:#e0e0e0;"></path></g><path d="M410.67,151.74c-2.47,0-4.48-2.01-4.48-4.48s2.01-4.48,4.48-4.48,4.48,2.01,4.48,4.48-2.01,4.48-4.48,4.48Zm0-7.97c-1.92,0-3.48,1.56-3.48,3.48s1.56,3.48,3.48,3.48,3.48-1.56,3.48-3.48-1.56-3.48-3.48-3.48Z" style="fill:#e0e0e0;"></path><path d="M134.9,62.96c-2.47,0-4.48-2.01-4.48-4.48s2.01-4.48,4.48-4.48,4.48,2.01,4.48,4.48-2.01,4.48-4.48,4.48Zm0-7.97c-1.92,0-3.48,1.56-3.48,3.48s1.56,3.48,3.48,3.48,3.48-1.56,3.48-3.48-1.56-3.48-3.48-3.48Z" style="fill:#e0e0e0;"></path><path d="M322.68,82c-2.47,0-4.48-2.01-4.48-4.48s2.01-4.48,4.48-4.48,4.48,2.01,4.48,4.48-2.01,4.48-4.48,4.48Zm0-7.97c-1.92,0-3.48,1.56-3.48,3.48s1.56,3.48,3.48,3.48,3.48-1.56,3.48-3.48-1.56-3.48-3.48-3.48Z" style="fill:#e0e0e0;"></path><path d="M181.47,34.98c-2.47,0-4.48-2.01-4.48-4.48s2.01-4.48,4.48-4.48,4.48,2.01,4.48,4.48-2.01,4.48-4.48,4.48Zm0-7.97c-1.92,0-3.48,1.56-3.48,3.48s1.56,3.48,3.48,3.48,3.48-1.56,3.48-3.48-1.56-3.48-3.48-3.48Z" style="fill:#e0e0e0;"></path><path d="M368.26,38.47c-2.47,0-4.48-2.01-4.48-4.48s2.01-4.48,4.48-4.48,4.48,2.01,4.48,4.48-2.01,4.48-4.48,4.48Zm0-7.97c-1.92,0-3.48,1.56-3.48,3.48s1.56,3.48,3.48,3.48,3.48-1.56,3.48-3.48-1.56-3.48-3.48-3.48Z" style="fill:#e0e0e0;"></path><path d="M30.15,442.29c-2.47,0-4.48-2.01-4.48-4.48s2.01-4.48,4.48-4.48,4.48,2.01,4.48,4.48-2.01,4.48-4.48,4.48Zm0-7.97c-1.92,0-3.48,1.56-3.48,3.48s1.56,3.48,3.48,3.48,3.48-1.56,3.48-3.48-1.56-3.48-3.48-3.48Z" style="fill:#e0e0e0;"></path><path d="M406.31,471.14c-.57-2.41,.93-4.82,3.33-5.39,2.41-.57,4.82,.93,5.39,3.33s-.93,4.83-3.33,5.39c-2.41,.57-4.83-.93-5.39-3.33Zm7.75-1.83c-.44-1.87-2.32-3.03-4.19-2.59-1.87,.44-3.03,2.32-2.59,4.19,.44,1.87,2.32,3.03,4.19,2.59,1.87-.44,3.03-2.32,2.59-4.19Z" style="fill:#e0e0e0;"></path><path d="M441.23,55.54c-3.68,0-6.68-3-6.68-6.68s3-6.68,6.68-6.68,6.68,3,6.68,6.68-3,6.68-6.68,6.68Zm0-12.35c-3.13,0-5.68,2.55-5.68,5.68s2.55,5.68,5.68,5.68,5.68-2.55,5.68-5.68-2.55-5.68-5.68-5.68Z" style="fill:#e0e0e0;"></path><path d="M36.23,99.11c-3.68,0-6.68-3-6.68-6.68s3-6.68,6.68-6.68,6.68,3,6.68,6.68-3,6.68-6.68,6.68Zm0-12.35c-3.13,0-5.68,2.55-5.68,5.68s2.55,5.68,5.68,5.68,5.68-2.55,5.68-5.68-2.55-5.68-5.68-5.68Z" style="fill:#e0e0e0;"></path></g></g></svg>
