<svg xmlns="http://www.w3.org/2000/svg" viewBox="0 0 500 500"><g id="Floor"><ellipse id="Floor-2" cx="250" cy="273.81" rx="241.18" ry="139.24" style="fill:#fafafa;"></ellipse></g><g id="Lines"><path id="Lines-2" d="M126.86,94.5c-.59-.93-1.82-1.22-2.76-.62-.93,.59-1.21,1.82-.62,2.76l17.71,28.07c.4,.64,1.1,.97,1.81,.93,.33-.02,.66-.12,.95-.31,.93-.59,1.21-1.82,.62-2.76l-17.71-28.07Zm-62.28,64.93l-36.67-13.8c-1.03-.39-2.19,.13-2.58,1.16-.39,1.03,.13,2.19,1.16,2.58l36.67,13.8c.27,.1,.55,.14,.82,.13,.77-.04,1.47-.53,1.76-1.29,.39-1.03-.13-2.19-1.16-2.58ZM255.45,429.13c-1.02-.44-2.19,.02-2.63,1.03l-13.85,31.75c-.44,1.01,.02,2.19,1.03,2.63,.26,.11,.53,.17,.8,.17,.77,0,1.51-.45,1.83-1.2l13.85-31.75c.44-1.01-.02-2.19-1.03-2.63Zm217.4-23.25l-41.76-18.52c-1.01-.45-2.19,0-2.64,1.02-.45,1.01,0,2.19,1.02,2.64l41.76,18.52c.26,.12,.54,.17,.81,.17,.77,0,1.5-.44,1.83-1.19,.45-1.01,0-2.19-1.02-2.64Zm-121.82,15.51c-.54-.97-1.75-1.31-2.72-.78-.97,.54-1.31,1.75-.78,2.72l16.11,29.02c.37,.66,1.05,1.03,1.75,1.03,.33,0,.66-.08,.97-.25,.97-.54,1.31-1.75,.78-2.72l-16.11-29.02ZM249.62,75.39c-1.04-.39-2.19,.14-2.57,1.18l-12.05,32.47c-.38,1.04,.14,2.19,1.18,2.57,.27,.1,.54,.14,.81,.12,.77-.04,1.48-.53,1.76-1.3l12.05-32.47c.38-1.04-.14-2.19-1.18-2.57Z" style="fill:#f0f0f0;"></path></g><g id="Shadows"><path id="Shadow" d="M325.07,397.55c-1.8,0-5.19-.21-7.7-1.61-7.16-4.01-16.37-10.17-18.3-19.14-6.62-1.48-14.27-4.6-21.05-7.37-1.1-.45-2.17-.89-3.21-1.3-8.08,3.24-12.99,5.22-13,5.22l-1.91,.77-20.57-10.77-.82-10.2,3.94-3.15c2.33-1.86,5.09-3.93,8.22-6.17,6.51-4.65,29.26-20.3,48.6-26.59,8.3-2.68,14.95-4.28,20.3-5.56,6.77-1.62,11.67-2.8,15.75-5.15,3.82-2.2,5.53-4.59,8.38-8.53,2.28-3.16,5.11-7.1,9.89-12.02,11.05-11.35,38.23-24.53,46.3-28.3,3.39-1.59,6.96-3.18,10.62-4.71l1.56-.65,1.6,.55c.36,.12,8.93,3.1,15.31,9.73l4.88,5.07-3.8,1.28c1.43,1.33,3.42,2.95,5.5,4.65,5.06,4.14,10.8,8.84,13.5,13.13,1.46,2.32,3.37,5.85,3.58,10.25,5,1.74,9.93,4.07,14.98,7.07,2.55,1.52,4.08,4.31,3.99,7.28-.09,2.98-1.8,5.67-4.45,7.03l-5.62,2.88c-2.24,1.15-4.76,1.76-7.27,1.76h0c-2.92,0-5.78-.81-8.26-2.34-2.12-1.3-4.38-2.48-6.65-3.47-1.08,.72-2.21,1.42-3.38,2.09-3.8,2.19-7.67,4.03-11.53,5.47l-.88,.32c-3.92,1.4-7.94,2.44-12.01,3.12-.39,.06-.66,.1-.91,.13l-1.05,.16c-.37,.05-.7,.09-1.02,.12-.19,.03-.43,.07-.71,.08-.44,.05-.88,.09-1.32,.13-.32,.04-.72,.07-1.12,.09l-.48,.04c-.6,.05-1.18,.08-1.79,.1-1.02,.04-2.09,.07-3.16,.07h-1.71l-.04-.03c-4.79-.11-9.82-.68-15.34-1.74-.78-.15-1.6-.33-2.5-.55-5.43,2.04-11.45,4.33-17.94,6.82,.04,.06,.08,.12,.12,.18,.19,.27,.42,.65,.63,1.02,.78,1.36,1.42,2.65,1.95,3.93,.2,.48,.38,.99,.54,1.49,.14,.4,.3,.94,.43,1.47,.42,1.64,.62,3.21,.62,4.77,0,8.6-5.97,16.23-18.24,23.31-.73,.43-1.48,.83-2.23,1.24l-.39,.21c-.84,.44-1.62,.83-2.41,1.18-1.7,.83-3.61,1.63-5.57,2.35l-1.83,.65c-.49,.17-.91,.29-1.31,.42l-.62,.19-.52,.15c1.1,.72,2.3,1.43,3.6,2.13,4.18,2.26,5.15,5.09,5.23,7.07,.06,1.56-.4,4.55-4.21,7.03l-5,3.25c-2.53,1.65-6.21,1.89-8.18,1.89Zm-26.29-35.76c1.04,.31,2.11,.59,3.17,.83l.17,.04c.27-.43,.57-.86,.87-1.29,1.39-1.94,3.24-4.17,5.56-6.7-5.1,2.02-9.91,3.93-14.26,5.66,.68,.24,1.37,.48,2.11,.72,.58,.18,1.28,.4,2.01,.62l.31,.09,.06,.03Zm48.86-16.01c-8.75,7.77-13.85,12.59-16.83,15.57,2.06-.79,4.07-1.73,6.02-2.83,.39-.22,.77-.43,1.12-.65,1.04-.62,1.9-1.18,2.67-1.72,.28-.19,.43-.3,.59-.42,1.49-1.08,2.68-2.12,3.63-3.15,.21-.22,.36-.4,.52-.58,.2-.23,.35-.43,.51-.62l.45-.64c.06-.08,.11-.17,.16-.25l.09-.15c.07-.12,.17-.29,.25-.45,.08-.14,.14-.25,.18-.35l.09-.21c.04-.09,.08-.18,.12-.27,.39-1.01,.54-1.86,.49-2.7l-.02-.36c0-.07-.02-.14-.03-.21Zm-30.95-16.97c-.95,.18-1.86,.36-2.79,.58-.89,.2-1.77,.4-2.65,.63-2.61,.65-5.28,1.45-7.98,2.37-1,.34-1.99,.67-2.98,1.04-2.39,.86-4.81,1.86-7.26,2.98-.55,.24-1.01,.46-1.43,.68l-.15,.08c-8.97,4.29-13.95,8.12-16.51,10.76,13.01-5.54,29.96-12.66,47.73-19.88-1.23,.06-2.67,.22-4.21,.47-.35,.05-.61,.1-.89,.15l-.22,.04c-.26,.05-.46,.09-.66,.12Zm48.17-26.64c.06,.08,.17,.21,.32,.37,.23,.24,.58,.56,1.1,.95,13.02-10.57,25.41-20.33,34.69-27.54-.25,.07-1.21,.34-1.21,.34-.24,.07-.48,.14-.72,.21l-.39,.13c-.16,.05-.33,.1-.48,.16l-.19,.07-.19,.05c-.07,.02-.14,.04-.2,.07l-.08,.05s-1.23,.42-1.44,.49c-1.14,.43-2.37,.93-3.75,1.54-.62,.28-1.28,.58-1.95,.9-.39,.19-.78,.38-1.19,.58-.3,.15-.53,.27-.78,.4-.84,.43-1.62,.85-2.38,1.29l-.36,.2c-.13,.07-.27,.15-.4,.23l-.88,.51c-2.13,1.27-4.19,2.63-6.16,4.05-8.42,6.1-13.03,12.75-13.37,14.95Zm57.2-19.73c-4.29,3.56-10.9,9.07-18.65,15.57,3.97-1.2,7.46-2.16,10.45-2.88,5.49-1.31,11.02-1.98,16.44-1.98,.85,0,1.69,.02,2.54,.05-1.55-2.7-4.2-5.13-5.89-6.69-.78-.71-2.53-2.25-4.89-4.07Z" style="fill:#e0e0e0;"></path><path id="Shadow-2" d="M466.24,194.23L108.18,400.96c-7.66,4.42-16.85,5.48-25.26,2.76-25-8.09-45.22-20-60-36.27-2.11-2.33-1.55-6.01,1.17-7.59L387.44,150.09c8.24-4.76,18.02-6.12,27.24-3.78,22.62,5.72,40.66,16.29,54.26,31.55,4.5,5.06,3.17,12.99-2.69,16.38Z" style="fill:#e0e0e0;"></path><path id="Shadow-3" d="M157.43,229.8c14.43,0,28.06-3.29,38.39-9.25,11.15-6.43,17.28-15.27,17.28-24.89s-6.13-18.45-17.28-24.88c-10.33-5.96-23.97-9.25-38.39-9.25s-28.06,3.29-38.39,9.25c-11.15,6.43-17.28,15.27-17.28,24.89s6.14,18.45,17.28,24.88c10.33,5.96,23.97,9.25,38.39,9.25Z" style="fill:#e0e0e0;"></path></g><g id="Cup"><g id="Coffee"><g><path d="M113.96,182.87c-2.81-.43-15.63-3.38-28.61-22.65-6.59-9.79-11.86-27.71-8.64-41.65,1.59-6.89,5.21-12.13,10.46-15.16,3.92-2.26,7.97-3.41,12.04-3.41,8.66,0,15.91,5.16,19.63,9.72l-4.22,3.31-4.12,3.27c-1.27-1.47-5.41-5.64-11.23-5.64-2.28,0-4.56,.65-6.79,1.94-2.68,1.55-4.5,4.36-5.43,8.37-2.35,10.15,1.78,25.43,7.1,33.34,9.76,14.49,18.84,17.48,20.91,17.98l-1.1,10.59Z" style="fill:#fafafa;"></path><path d="M99.21,100.43c8.29,0,15.28,4.82,19.02,9.22l-3.82,3h0l-3.87,3.03c-1.58-1.72-5.65-5.46-11.26-5.46-2.35,0-4.71,.67-7.01,2-2.78,1.61-4.68,4.52-5.63,8.64-2.37,10.26,1.79,25.69,7.16,33.67,9.3,13.8,18.06,17.28,20.8,18.06l-1.02,9.77c-3.48-.64-15.57-4.13-27.87-22.39-6.54-9.71-11.77-27.49-8.58-41.31,1.57-6.77,5.11-11.92,10.26-14.89,3.85-2.22,7.83-3.35,11.82-3.35m0-.87c-3.82,0-7.96,.98-12.26,3.46-5.36,3.09-9.05,8.43-10.67,15.44-3.25,14.06,2.06,32.13,8.7,41.99,13.97,20.74,27.82,22.74,29.35,22.9l1.19-11.42c-.1,0-10.13-1.73-21.02-17.89-5.27-7.83-9.36-22.95-7.04-33,.9-3.88,2.65-6.61,5.22-8.09,2.35-1.36,4.57-1.88,6.58-1.88,6.25,0,10.57,5.06,11.17,5.81l4.44-3.52-4.46,3.49,4.52-3.54-.06,.05,4.57-3.59c-3.38-4.31-10.88-10.22-20.24-10.22h0Z" style="fill:#ebebeb;"></path></g><g><path d="M100.94,162.19c8.11,8.64,14.51,9.74,14.59,9.75l-1.19,11.42c-.84-.09-5.34-.73-11.53-4.65l-1.87-16.51Z" style="fill:#e0e0e0;"></path><path d="M110.44,116.89c-.73-.9-6.83-8.05-15.22-5.1l-1.32-11.59c11.8-2.84,21.55,4.48,25.54,9.58l-4.56,3.58-4.45,3.53Z" style="fill:#e0e0e0;"></path></g><g><path d="M157.43,218.98c-12.57,0-24.38-2.82-33.26-7.95-8.7-5.02-13.54-11.68-13.64-18.76v-.43h-.06l-10.43-91.88,114.8-.35-10.51,92.53c-.05,7.15-4.9,13.84-13.64,18.89-8.88,5.13-20.69,7.95-33.26,7.95Z" style="fill:#f5f5f5;"></path><path d="M214.36,100.05l-10.46,92.05v.09c-.06,6.94-4.82,13.5-13.43,18.47-8.81,5.09-20.55,7.89-33.05,7.89s-24.23-2.8-33.05-7.89c-8.56-4.94-13.33-11.47-13.42-18.39l-.03-.85h-.08l-10.33-91.02,113.84-.35m.97-.87l-115.77,.35,10.52,92.74h.02c.09,6.93,4.69,13.84,13.85,19.13,9.24,5.34,21.36,8.01,33.48,8.01s24.23-2.67,33.48-8.01c9.19-5.31,13.81-12.26,13.86-19.21l10.57-93.01h0Z" style="fill:#e0e0e0;"></path></g><path d="M183.29,192.78c-13.94,.4-27.96-4.77-38.3-14.12-11.08-10.02-17.63-24.22-21.27-38.71-3.33-13.24-4.47-26.9-5.99-40.47l-18.17,.06,10.52,92.74h.02c.09,6.93,4.69,13.84,13.85,19.13,18.49,10.68,48.47,10.68,66.96,0,9.19-5.31,13.81-12.26,13.86-19.21l.55-4.81c-6.87,3.28-14.41,5.17-22.02,5.39Z" style="fill:#ebebeb;"></path><g><path d="M157.43,130.42c-15.41,0-29.9-3.46-40.79-9.75-10.81-6.24-16.77-14.52-16.77-23.3,0-8.78,5.96-17.06,16.77-23.3,10.89-6.29,25.37-9.75,40.79-9.75s29.9,3.46,40.79,9.75c10.81,6.24,16.77,14.52,16.77,23.3s-5.96,17.06-16.77,23.3c-10.89,6.29-25.37,9.75-40.79,9.75h0Z" style="fill:#fafafa;"></path><path d="M157.43,64.76c15.34,0,29.75,3.44,40.57,9.69,10.67,6.16,16.55,14.31,16.55,22.93,0,8.62-5.88,16.76-16.55,22.93-10.82,6.25-25.23,9.69-40.57,9.69s-29.75-3.44-40.57-9.69c-10.67-6.16-16.55-14.3-16.55-22.93,0-8.62,5.88-16.76,16.55-22.93,10.82-6.25,25.23-9.69,40.57-9.69m0-.87c-14.84,0-29.68,3.27-41,9.81-22.65,13.08-22.65,34.28,0,47.35,11.32,6.54,26.16,9.81,41,9.81s29.68-3.27,41-9.81c22.65-13.08,22.65-34.28,0-47.35-11.32-6.54-26.16-9.81-41-9.81h0Z" style="fill:#ebebeb;"></path></g><path d="M207.76,97.32c0,2.63-.88,5.25-2.63,7.75-2.12,3.38-5.75,6.63-10.5,9.38-9.88,5.63-23.01,8.75-37.14,8.75s-27.39-3.13-37.27-8.75c-4.75-2.75-8.38-6-10.51-9.38-1.75-2.5-2.63-5.13-2.63-7.75,0-6,4.75-12.13,13.13-17.01,9.88-5.63,23.01-8.75,37.27-8.75s27.26,3.13,37.14,8.75c8.38,4.88,13.13,11,13.13,17.01Z" style="fill:#e0e0e0;"></path><path d="M205.13,105.07c-2.12,3.38-5.75,6.63-10.5,9.38-9.88,5.63-23.01,8.75-37.14,8.75s-27.39-3.13-37.27-8.75c-4.75-2.75-8.38-6-10.51-9.38,.5-.88,1.13-1.63,1.88-2.5,.75-.88,1.5-1.63,2.38-2.38,1.75-1.63,3.88-3.13,6.25-4.5,9.88-5.63,23.01-8.75,37.27-8.75s27.26,3.13,37.14,8.75c2.38,1.38,4.5,2.88,6.25,4.5,.87,.75,1.62,1.5,2.38,2.38,.75,.87,1.38,1.62,1.87,2.5Z" style="fill:#BA68C8;"></path><path d="M205.13,105.07c-2.12,3.38-5.75,6.63-10.5,9.38-9.88,5.63-23.01,8.75-37.14,8.75s-27.39-3.13-37.27-8.75c-4.75-2.75-8.38-6-10.51-9.38,.5-.88,1.13-1.63,1.88-2.5,.75-.88,1.5-1.63,2.38-2.38,1.75-1.63,3.88-3.13,6.25-4.5,9.88-5.63,23.01-8.75,37.27-8.75s27.26,3.13,37.14,8.75c2.38,1.38,4.5,2.88,6.25,4.5,.87,.75,1.62,1.5,2.38,2.38,.75,.87,1.38,1.62,1.87,2.5Z" style="opacity:.3;"></path><g><path d="M111.59,102.57c.75-.88,1.5-1.63,2.38-2.38,1.75-1.63,3.88-3.13,6.25-4.5,9.88-5.63,23.01-8.75,37.27-8.75s27.26,3.13,37.14,8.75c2.38,1.38,4.5,2.88,6.25,4.5,.87,.75,1.62,1.5,2.38,2.38,.75,.87,1.38,1.62,1.87,2.5-2.13,3.38-5.75,6.63-10.5,9.38-3.31,1.89-6.99,3.48-10.95,4.78,.73-1.03,1.26-2.18,1.53-3.46,.2-.96,.26-2.02,.89-2.78,1.1-1.34,3.57-1.28,4.18-2.9,.65-1.72-1.49-3.15-3.27-3.58-1.79-.43-4.04-1.04-4.3-2.86-.1-.66,.13-1.33,.12-2-.03-2.33-2.74-3.68-5.07-3.77-2.33-.08-4.74,.54-6.94-.21-2.92-1-4.56-4.07-7.1-5.82-2.96-2.04-6.82-2.1-10.41-1.92-15.59,.78-32.01,5.22-42.35,16.86-.45-.57-.87-1.14-1.23-1.71,.5-.88,1.13-1.63,1.88-2.5Z" style="fill:#BA68C8; opacity:.6;"></path><path d="M171.05,91.99c-1.62,.94-1.62,2.46,0,3.4,1.62,.94,4.26,.94,5.88,0,1.62-.94,1.62-2.46,0-3.4-1.62-.94-4.26-.94-5.88,0Z" style="fill:#BA68C8;"></path><path d="M171.05,91.99c-1.62,.94-1.62,2.46,0,3.4,1.62,.94,4.26,.94,5.88,0,1.62-.94,1.62-2.46,0-3.4-1.62-.94-4.26-.94-5.88,0Z" style="opacity:.3;"></path><path d="M192.53,106.47c-.84,.48-.84,1.27,0,1.75,.84,.48,2.2,.48,3.04,0,.84-.48,.84-1.27,0-1.75-.84-.49-2.2-.49-3.04,0Z" style="fill:#BA68C8;"></path><path d="M192.53,106.47c-.84,.48-.84,1.27,0,1.75,.84,.48,2.2,.48,3.04,0,.84-.48,.84-1.27,0-1.75-.84-.49-2.2-.49-3.04,0Z" style="opacity:.3;"></path><path d="M186.44,99.57c-2.23,1.29-2.23,3.38,0,4.67,2.23,1.29,5.85,1.29,8.09,0,2.23-1.29,2.23-3.38,0-4.67-2.23-1.29-5.85-1.29-8.09,0Z" style="fill:#BA68C8;"></path><path d="M186.44,99.57c-2.23,1.29-2.23,3.38,0,4.67,2.23,1.29,5.85,1.29,8.09,0,2.23-1.29,2.23-3.38,0-4.67-2.23-1.29-5.85-1.29-8.09,0Z" style="opacity:.3;"></path></g></g></g><g id="Glasses"><g id="Specs"><g><path d="M465.35,300.94c-9.84-5.85-27.23-13.96-50.45-8.41-41.52,9.93-165.28,64.24-165.28,64.24v4.68l6.95,3.56s141.39-54.12,162.03-59.14c14.03-3.41,26.85,2.55,33.63,6.72,3.39,2.09,7.62,2.22,11.16,.41l1.74-.87c1.35-.69,2.03-2.01,2.02-3.33,0-.83,0-3.86,0-4.7,0-1.22-.59-2.44-1.8-3.16Z" style="fill:#263238;"></path><path d="M256.58,360.33s141.39-54.12,162.03-59.14c14.03-3.41,26.85,2.55,33.63,6.72,3.39,2.09,7.62,2.22,11.16,.41l1.74-.87c2.61-1.34,2.73-5.01,.21-6.51-9.84-5.85-27.23-13.96-50.45-8.41-41.52,9.93-165.28,64.24-165.28,64.24l6.95,3.56Z" style="fill:#37474f;"></path></g><g><path d="M423.96,270.37v-4.91l-6.08-3.84s-94.06,71.45-111.26,95.43c-2.54,3.55-3.14,7.03-2.47,10.35-2.34,11.28,6.64,17.73,15.39,22.63,2.59,1.45,8.96,1.38,11.27-.12l1.64-1.05c1.46-.95,2.19-1.99,2.18-3.02,0-.83,0-4.1,0-4.94,0-1.18-.96-2.36-2.88-3.39-4.93-2.67-11.3-6.96-12.98-12,.29-.83,.72-1.66,1.33-2.51,8.7-11.92,103.86-92.62,103.86-92.62Z" style="fill:#263238;"></path><path d="M423.96,265.46s-95.16,80.7-103.86,92.62c-5.91,8.1,4.42,15.5,11.65,19.41,3.61,1.96,3.85,4.4,.71,6.44l-1.64,1.05c-2.31,1.5-8.68,1.58-11.27,.12-10.14-5.68-22.54-14.67-12.92-28.07,17.2-23.97,111.26-95.43,111.26-95.43l6.08,3.84Z" style="fill:#37474f;"></path></g><g><path d="M441.74,295.58c-1.84-4.84-6.12-8.76-8.69-11.11-5.61-5.09-17.81-14.41-24.59-14.19-1.76,.06-3.97,.36-6.57,.96-.17,.03-.29,.08-.45,.11-.8,.19-1.64,.4-2.5,.65-.46,.14-.97,.28-1.45,.43-.37,.12-.8,.25-1.17,.39-.28,.08-.53,.19-.77,.26-.12,.03-.22,.08-.29,.11-.37,.12-.74,.26-1.13,.4-1.45,.53-2.95,1.14-4.5,1.82-.76,.34-1.53,.7-2.3,1.07-.45,.22-.9,.43-1.36,.66-.36,.17-.68,.36-1.02,.53-.9,.46-1.82,.96-2.74,1.48-.32,.19-.65,.37-.97,.56-.29,.17-.6,.36-.91,.53-2.33,1.39-4.73,2.97-7.14,4.71-6.83,4.95-12.37,10.85-15.04,15.56-.8-.83-1.36-1.67-1.61-2.49-1.3-4.34,6.17-14.2,16.65-21.79,2.41-1.75,4.81-3.31,7.14-4.7,.31-.19,.62-.36,.91-.53,.32-.2,.65-.37,.97-.56,.91-.53,1.84-1.02,2.74-1.48,.34-.19,.66-.36,1.02-.53,.46-.23,.91-.45,1.36-.66,.77-.37,1.55-.73,2.3-1.07,1.55-.68,3.04-1.3,4.5-1.84,.39-.12,.76-.26,1.13-.39,.08-.05,.17-.08,.29-.11,.25-.09,.49-.19,.77-.26,.37-.14,.8-.26,1.17-.39,.48-.15,.99-.29,1.45-.43,.87-.25,1.7-.46,2.5-.65,.15-.05,.28-.08,.45-.11,2.6-.6,4.81-.9,6.57-.96,6.79-.23,18.98,9.1,24.59,14.19,3.97,3.65,12.16,11.11,8.69,19.82Z" style="fill:#263238;"></path><path d="M356.46,339.94l-.02,.02c.08,1.55-.17,3.17-.82,4.85-1.34-3.57-4.07-6.55-6.37-8.64-6.29-5.64-14.73-11.56-22.27-12.3-2.13-.22-5.05-.03-8.44,.53-.43,.05-.85,.12-1.3,.2-.25,.05-.46,.09-.7,.14-1.11,.2-2.24,.42-3.4,.7-.96,.22-1.98,.45-3,.71-2.97,.76-6.09,1.67-9.17,2.72-1.14,.39-2.29,.79-3.43,1.21-2.88,1.05-5.66,2.19-8.32,3.42-.63,.29-1.25,.57-1.81,.87-11.18,5.35-17.65,10.43-20.9,14.37-1.73-1.34-2.75-2.58-2.66-3.6,.37-3.77,6.52-11.33,23.56-19.48,.56-.29,1.17-.59,1.81-.87,2.66-1.22,5.44-2.38,8.32-3.42,1.14-.43,2.29-.82,3.43-1.21,3.08-1.05,6.2-1.98,9.17-2.72,1.02-.26,2.04-.49,3-.71,1.16-.28,2.29-.49,3.4-.71,.23-.03,.45-.08,.7-.12,.45-.08,.87-.15,1.3-.22,3.38-.54,6.31-.73,8.44-.53,7.54,.76,15.98,6.68,22.27,12.32,3.09,2.8,6.91,7.2,7.2,12.47Z" style="fill:#263238;"></path><path d="M448.21,290.83c0-3.45-1.49-6.41-2.92-8.68-3.52-5.59-14.37-13.05-18.95-17.55-4.61-4.5-.56-5.86-.56-5.86-5.71-5.93-13.54-8.61-13.54-8.61-3.21,1.35-6.76,2.9-10.46,4.64-16.5,7.71-36.52,18.67-44.99,27.37-10.57,10.89-11.08,16.6-19.23,21.31-8.16,4.71-18.03,4.99-36.9,11.09-15.03,4.89-34.03,16.44-47.39,25.98-3,2.15-5.73,4.19-8.03,6.03h-.01v7.91s4.64,4.53,14.93,7.82c0,0,2.33-2.34,10.14,.31,7.8,2.66,20.71,8.93,30.38,10.96,3.88,.81,8.92,1.65,14.79,1.68h.14c1.77,0,3.59-.07,5.48-.24h.03c.95-.1,1.91-.21,2.89-.34h.03c2.45-.34,4.98-.86,7.61-1.58,.39-.11,.79-.21,1.16-.34,.57-.18,1.19-.36,1.78-.56,.59-.2,1.18-.42,1.79-.63,1.72-.64,3.5-1.37,5.27-2.24,.71-.32,1.42-.67,2.12-1.04,.83-.43,1.67-.9,2.51-1.39,12.11-6.98,16-13.5,16.01-19.42v-7.92c0-1.26-.18-2.48-.49-3.69-.1-.41-.22-.8-.35-1.19-.13-.39-.27-.79-.42-1.16-.48-1.16-1.05-2.3-1.68-3.39-.15-.27-.32-.55-.51-.81-1.05-1.61-2.47-3.17-3.97-4.68-.24-.25-.49-.49-.73-.73-1.53-1.5-3.1-2.94-4.42-4.33-.22-.22-.43-.45-.63-.66-.22-.24-.42-.46-.62-.69,.14-.1,.28-.2,.45-.29,.29-.17,.57-.32,.88-.45,.28-.14,.59-.27,.88-.38,8.59-3.15,19.89,4.32,33.03,6.84,5.05,.97,10.49,1.68,16.23,1.68h.01c1.01,.01,2.02,0,3.04-.06,.53-.01,1.04-.04,1.56-.08,.52-.03,1.04-.07,1.56-.13,.46-.03,.91-.08,1.37-.14,.17,0,.31-.01,.45-.04,.34-.04,.67-.08,1-.13,.38-.06,.74-.1,1.11-.17,.25-.03,.5-.07,.77-.11,3.62-.59,7.35-1.53,11.16-2.89,.29-.11,.6-.22,.91-.34,3.55-1.32,7.16-3,10.85-5.15,11.37-6.56,14.52-12.69,14.47-17.76-.01-1.37,0-6.55,0-7.78Zm-73.79-14.71c2.3-1.66,4.58-3.15,6.8-4.48,6.42-3.78,13.31-6.9,20.55-8.57,2.47-.57,4.58-.85,6.26-.91,6.46-.22,18.08,8.67,23.42,13.51,3.78,3.47,11.59,10.58,8.27,18.87-.33,.84-.76,1.62-1.25,2.4-1.72,2.65-4.73,5.42-9.42,8.17-12.38,7.35-24.44,8.61-34.11,7.7-10.95-1.06-21.24-5.11-30.6-10.36-1.74-1.06-3.19-2.13-4.24-3.21-.77-.8-1.3-1.59-1.53-2.37-1.24-4.14,5.87-13.53,15.85-20.76Zm-20.18,63.06h-.01c.07,1.49-.16,3.03-.78,4.64-2.12,5.23-6.77,8.67-11.61,11.64-.44,.28-.91,.54-1.38,.81-10.92,6.17-21.73,7.21-30.81,6.34-3.1-.27-6.14-.83-9.14-1.53h-.02c-10.7-2.86-21.18-6.88-30.66-12.67-.44-.31-.85-.59-1.22-.87-1.65-1.28-2.62-2.46-2.53-3.43,.35-3.59,6.21-10.79,22.43-18.55,.53-.28,1.12-.56,1.72-.82,2.53-1.16,5.18-2.27,7.92-3.25,6.56-2.4,13.2-4.31,19.99-5.42,3.22-.52,6.01-.69,8.04-.5,7.18,.72,15.22,6.36,21.21,11.73,2.94,2.66,6.58,6.86,6.86,11.88Z" style="fill:#37474f;"></path><path d="M348.93,317.91l.86-.51h0c1.92-.99,4.13-1.45,6.32-1.42,2.2,.02,4.35,.44,6.46,.94,4.22,1.03,8.23,2.6,12.3,3.9,4.06,1.36,8.14,2.43,12.36,3.18,4.2,.78,8.44,1.32,12.73,1.61-4.3,.29-8.63,.02-12.9-.56-4.28-.5-8.54-1.57-12.63-2.91-4.1-1.33-8.09-2.93-12.16-4.15-4.02-1.22-8.38-2.04-12.43-.48h0l-.91,.39Z" style="fill:#263238;"></path><polygon points="425.78 258.74 425.78 266.63 412.24 258.03 412.24 250.13 425.78 258.74" style="fill:#37474f;"></polygon><path d="M445.3,282.16c-3.52-5.59-14.37-13.05-18.95-17.55-4.61-4.5-.56-5.86-.56-5.86-5.71-5.93-13.54-8.61-13.54-8.61-3.21,1.35-6.76,2.9-10.46,4.64-16.5,7.71-36.52,18.67-44.99,27.37-10.57,10.89-11.08,16.6-19.23,21.31-8.16,4.71-18.03,4.99-36.9,11.09-15.03,4.89-34.03,16.44-47.39,25.98-3,2.15-5.73,4.19-8.03,6.03,0,0,4.63,4.54,14.92,7.82,0,0,2.33-2.33,10.14,.32,7.8,2.66,20.71,8.93,30.38,10.95,3.88,.81,8.92,1.67,14.79,1.7,.04-.01,.1-.01,.14-.01,1.77,.01,3.59-.06,5.48-.24h.03c.95-.08,1.91-.2,2.89-.32h.03c2.45-.35,4.98-.86,7.61-1.58,.39-.11,.79-.22,1.16-.34,.57-.18,1.19-.36,1.78-.56,.59-.21,1.18-.42,1.79-.64,1.72-.63,3.5-1.37,5.27-2.23,.71-.32,1.42-.67,2.12-1.04,.83-.45,1.67-.9,2.51-1.39,12.13-7,16.01-13.53,16.01-19.45,0-1.26-.18-2.48-.49-3.69-.1-.39-.21-.8-.35-1.19-.13-.39-.27-.79-.42-1.16-.48-1.16-1.05-2.3-1.68-3.39-.15-.27-.32-.55-.51-.81-1.05-1.61-2.47-3.17-3.97-4.68-.24-.25-.49-.49-.73-.73-1.53-1.5-3.1-2.94-4.42-4.33-.22-.22-.43-.45-.63-.66-.22-.24-.42-.46-.62-.69-2.66-3.08-3.62-5.85,.45-8.19,.29-.17,.57-.32,.88-.45,.28-.14,.59-.27,.88-.38,8.59-3.15,19.89,4.3,33.03,6.84,5.05,.97,10.49,1.68,16.23,1.68h.01c1.01,.01,2.02-.01,3.04-.06,.53-.01,1.04-.04,1.56-.08,.52-.04,1.04-.07,1.56-.13,.46-.04,.91-.08,1.37-.14,.17,0,.31-.03,.45-.06,.34-.03,.67-.07,1-.11,.38-.06,.74-.11,1.11-.17,.25-.03,.5-.07,.77-.11,3.62-.6,7.35-1.53,11.16-2.89,.29-.11,.6-.22,.91-.34,3.55-1.32,7.16-3.01,10.85-5.15,11.27-6.52,14.47-12.6,14.47-17.65,0-3.45-1.49-6.41-2.92-8.68Zm-91.05,57.03h-.01c.19,8.05-7.36,13.37-13.78,17.09-10.92,6.17-21.73,7.21-30.81,6.34-3.1-.27-6.14-.83-9.14-1.53h-.02c-11.13-3.04-22.23-7.13-31.88-13.54-1.65-1.28-2.62-2.46-2.53-3.43,.35-3.59,6.21-10.79,22.43-18.55,9.28-4.46,19.51-7.78,29.63-9.49,3.22-.52,6.01-.69,8.04-.5,7.18,.72,15.22,6.36,21.21,11.73,2.94,2.66,6.58,6.86,6.86,11.88Zm85.48-44.63c-.07,.21-.16,.4-.26,.6-.01,.07-.06,.15-.1,.22-.1,.24-.24,.49-.38,.72-.15,.28-.31,.57-.5,.85-1.72,2.65-4.73,5.42-9.42,8.17-12.38,7.35-24.44,8.61-34.11,7.7-10.95-1.06-21.24-5.11-30.6-10.36-1.74-1.06-3.19-2.13-4.24-3.21-.77-.8-1.3-1.59-1.53-2.37-1.24-4.14,5.87-13.53,15.85-20.76,2.3-1.66,4.58-3.15,6.8-4.48,6.42-3.78,13.31-6.9,20.55-8.57,2.47-.57,4.58-.85,6.26-.91,6.46-.22,18.08,8.67,23.42,13.51,3.78,3.47,11.59,10.58,8.27,18.87Z" style="fill:#455a64;"></path><path d="M431.45,275.69c4.15,3.79,13.1,11.97,7.03,21.27-1.73,2.65-4.73,5.42-9.41,8.17-12.39,7.34-24.44,8.61-34.12,7.7-.06,0-.13-.01-.17-.02-.38-.03-.73-.07-1.07-.11-.42-.04-.83-.1-1.21-.15-.2-.02-.41-.05-.62-.08-.57-.08-1.16-.18-1.7-.28-.65-.11-1.28-.23-1.91-.37-.31-.06-.61-.12-.91-.19-.17-.04-.32-.08-.5-.12-.26-.06-.5-.12-.73-.18-.19-.05-.4-.09-.56-.14-2.59-.65-4.83-1.39-6.67-2.07-9.29-3.46-19.08-8.09-20.32-12.24-1.23-4.15,5.87-13.53,15.86-20.76,2.3-1.66,4.58-3.16,6.8-4.48,.29-.17,.58-.34,.86-.5,.32-.19,.63-.36,.93-.53,.87-.49,1.75-.97,2.6-1.41,.32-.17,.64-.34,.97-.5,.45-.22,.87-.43,1.3-.63,.73-.36,1.47-.7,2.2-1.02,1.47-.65,2.9-1.24,4.28-1.75,.36-.13,.72-.26,1.06-.38,.08-.03,.17-.07,.28-.1,.23-.08,.47-.17,.74-.25,.36-.13,.76-.25,1.12-.37,.46-.15,.94-.29,1.38-.42,.83-.24,1.62-.44,2.38-.62,.15-.04,.28-.07,.44-.1,2.46-.57,4.58-.85,6.26-.91,6.46-.22,18.08,8.67,23.41,13.52Z" style="fill:#BA68C8; opacity:.2;"></path><path d="M431.45,275.69c4.15,3.79,13.1,11.97,7.03,21.27-1.73,2.65-4.73,5.42-9.41,8.17-12.39,7.34-24.44,8.61-34.12,7.7-.06,0-.13-.01-.17-.02-.38-.03-.73-.07-1.07-.11-.42-.04-.83-.1-1.21-.15-.2-.02-.41-.05-.62-.08-.57-.08-1.16-.18-1.7-.28-.65-.11-1.28-.23-1.91-.37-.31-.06-.61-.12-.91-.19-.17-.04-.32-.08-.5-.12-.26-.06-.5-.12-.73-.18-.19-.05-.4-.09-.56-.14-2.59-.65-4.83-1.39-6.67-2.07-9.29-3.46-19.08-8.09-20.32-12.24-1.23-4.15,5.87-13.53,15.86-20.76,2.3-1.66,4.58-3.16,6.8-4.48,.29-.17,.58-.34,.86-.5,.32-.19,.63-.36,.93-.53,.87-.49,1.75-.97,2.6-1.41,.32-.17,.64-.34,.97-.5,.45-.22,.87-.43,1.3-.63,.73-.36,1.47-.7,2.2-1.02,1.47-.65,2.9-1.24,4.28-1.75,.36-.13,.72-.26,1.06-.38,.08-.03,.17-.07,.28-.1,.23-.08,.47-.17,.74-.25,.36-.13,.76-.25,1.12-.37,.46-.15,.94-.29,1.38-.42,.83-.24,1.62-.44,2.38-.62,.15-.04,.28-.07,.44-.1,2.46-.57,4.58-.85,6.26-.91,6.46-.22,18.08,8.67,23.41,13.52Z" style="fill:#fff; opacity:.5;"></path></g><path d="M347.39,327.31c2.94,2.67,6.58,6.85,6.85,11.89h0c.24,5.07-2.97,11-13.78,17.09-10.92,6.17-21.73,7.21-30.8,6.34-.57-.05-1.12-.11-1.64-.18-.56-.06-1.07-.13-1.58-.21-.49-.07-.96-.14-1.43-.23-.41-.07-.84-.15-1.25-.23-.34-.06-.66-.12-.97-.19-.31-.06-.6-.12-.87-.18-.47-.1-.96-.21-1.41-.32h-.01c-1.4-.34-2.7-.69-3.92-1.06-.03,0-.05-.02-.1-.03-.77-.23-1.53-.47-2.24-.69-1.28-.42-2.45-.83-3.46-1.2-.22-.08-.44-.16-.65-.24-.21-.07-.42-.15-.63-.22-8.42-3.07-23.77-9.78-23.41-13.52,.35-3.6,6.21-10.8,22.43-18.56,.53-.28,1.12-.55,1.73-.83,2.53-1.16,5.18-2.25,7.92-3.25,1.08-.4,2.18-.78,3.27-1.15,2.93-.99,5.9-1.87,8.73-2.58,.98-.25,1.93-.48,2.86-.68,1.1-.26,2.18-.47,3.23-.67,.22-.04,.44-.08,.67-.12,.42-.08,.83-.15,1.24-.2,3.22-.52,6.01-.7,8.03-.5,7.18,.71,15.23,6.35,21.21,11.73Z" style="fill:#BA68C8; opacity:.2;"></path><path d="M347.39,327.31c2.94,2.67,6.58,6.85,6.85,11.89h0c.24,5.07-2.97,11-13.78,17.09-10.92,6.17-21.73,7.21-30.8,6.34-.57-.05-1.12-.11-1.64-.18-.56-.06-1.07-.13-1.58-.21-.49-.07-.96-.14-1.43-.23-.41-.07-.84-.15-1.25-.23-.34-.06-.66-.12-.97-.19-.31-.06-.6-.12-.87-.18-.47-.1-.96-.21-1.41-.32h-.01c-1.4-.34-2.7-.69-3.92-1.06-.03,0-.05-.02-.1-.03-.77-.23-1.53-.47-2.24-.69-1.28-.42-2.45-.83-3.46-1.2-.22-.08-.44-.16-.65-.24-.21-.07-.42-.15-.63-.22-8.42-3.07-23.77-9.78-23.41-13.52,.35-3.6,6.21-10.8,22.43-18.56,.53-.28,1.12-.55,1.73-.83,2.53-1.16,5.18-2.25,7.92-3.25,1.08-.4,2.18-.78,3.27-1.15,2.93-.99,5.9-1.87,8.73-2.58,.98-.25,1.93-.48,2.86-.68,1.1-.26,2.18-.47,3.23-.67,.22-.04,.44-.08,.67-.12,.42-.08,.83-.15,1.24-.2,3.22-.52,6.01-.7,8.03-.5,7.18,.71,15.23,6.35,21.21,11.73Z" style="fill:#fff; opacity:.5;"></path></g></g><g id="Newspaper"><g id="Newspaper-2"><g><path d="M102.21,383.7c-22.01,12.54-68.55-21.74-68.55-78.68,0-14.1,4.68-21.98,11.05-25.47l60.79-30.45,33.04,111.48-36.33,23.12Z" style="fill:#BA68C8;"></path><path d="M102.21,383.7c-22.01,12.54-68.55-21.74-68.55-78.68,0-14.1,4.68-21.98,11.05-25.47l60.79-30.45,33.04,111.48-36.33,23.12Z" style="fill:#fff; opacity:.4;"></path></g><g><path d="M100.45,382.16c-20.96,11.94-64.07-23.57-64.07-77.8,0-10.42,2.91-18.17,9.23-22.41l66.87-36.49,22.57,59.57-.16,54.88-34.44,22.25Z" style="fill:#BA68C8;"></path><path d="M100.45,382.16c-20.96,11.94-64.07-23.57-64.07-77.8,0-10.42,2.91-18.17,9.23-22.41l66.87-36.49,22.57,59.57-.16,54.88-34.44,22.25Z" style="fill:#fff; opacity:.25;"></path></g><path d="M100.07,379.06c-20.44,11.65-60.78-22.22-60.78-75.11,0-8.55,2.45-16.54,7.8-19.66l57.04-32.72,29.69,52.25v54.19l-33.75,21.04Z" style="fill:#BA68C8;"></path><g style="opacity:.15;"><path d="M100.07,379.06c-20.44,11.65-60.78-22.22-60.78-75.11,0-8.55,2.45-16.54,7.8-19.66l57.04-32.72,29.69,52.25v54.19l-33.75,21.04Z" style="fill:#fff;"></path></g><path d="M88.08,267.25c-1.46-1.41-3.08-2.64-4.78-3.74l-36.22,20.78c-3.53,2.06-5.8,6.26-6.93,11.33,.38-.14,.77-.26,1.15-.37,7.13-1.96,14.89-1.08,21.71,1.8,6.81,2.88,12.72,7.67,17.52,13.29,9.44,11.06,14.73,25.57,14.63,40.1-.03,5.17-.73,10.32-1.41,15.44,5-3.52,8.23-9.15,9.88-15.05,1.65-5.89,1.87-12.08,1.87-18.2-.02-15.75-1.52-31.66-6.58-46.57-2.35-6.92-5.57-13.76-10.84-18.82Z" style="fill:#BA68C8;"></path><g id="Diploma"><g><g><path d="M438.25,160.07c-.04,12.26-4.38,20.88-11.34,24.89l-.99,.57-2.4-1.62L99.65,370.5l.69,2.58c6.13-4.33,9.87-12.59,9.88-23.99,.03-24.56-17.19-54.43-38.43-66.73-10.56-6.1-20.12-6.73-27.08-2.8,0,0,130.56-64.84,180.13-93.32,50.47-29,147.72-95.61,147.72-95.61l.26-.15c6.94-3.83,16.5-3.22,26.99,2.87,21.22,12.32,38.41,42.16,38.45,66.73Z" style="fill:#BA68C8;"></path><path d="M438.25,160.07c-.04,12.26-4.38,20.88-11.34,24.89l-.99,.57-2.4-1.62L99.65,370.5l.69,2.58c6.13-4.33,9.87-12.59,9.88-23.99,.03-24.56-17.19-54.43-38.43-66.73-10.56-6.1-20.12-6.73-27.08-2.8,0,0,130.56-64.84,180.13-93.32,50.47-29,147.72-95.61,147.72-95.61l.26-.15c6.94-3.83,16.5-3.22,26.99,2.87,21.22,12.32,38.41,42.16,38.45,66.73Z" style="fill:#fff; opacity:.6;"></path><g><line x1="212.8" y1="201.84" x2="77.91" y2="274.49" style="fill:none; stroke:#455a64; stroke-linecap:round; stroke-miterlimit:10; stroke-width:2px;"></line><line x1="219.27" y1="208.74" x2="86.99" y2="279.97" style="fill:none; stroke:#455a64; stroke-linecap:round; stroke-miterlimit:10; stroke-width:2px;"></line><line x1="224.43" y1="217.67" x2="95.53" y2="287.07" style="fill:none; stroke:#455a64; stroke-linecap:round; stroke-miterlimit:10; stroke-width:2px;"></line></g><g><line x1="378.88" y1="98.04" x2="250.59" y2="181.79" style="fill:none; stroke:#455a64; stroke-linecap:round; stroke-miterlimit:10; stroke-width:2px;"></line><line x1="391.8" y1="100.52" x2="255.28" y2="189.63" style="fill:none; stroke:#455a64; stroke-linecap:round; stroke-miterlimit:10; stroke-width:2px;"></line><line x1="402.63" y1="105.76" x2="259.43" y2="197.46" style="fill:none; stroke:#455a64; stroke-linecap:round; stroke-miterlimit:10; stroke-width:2px;"></line></g><path d="M438.15,157.04c0-.14-.02-.29-.03-.43-.06-.91-.14-1.83-.24-2.75-.01-.12-.02-.23-.04-.35-.12-1.04-.27-2.08-.44-3.13-.01-.06-.02-.12-.03-.18-.16-.95-.35-1.9-.55-2.86-.04-.21-.09-.42-.13-.62-.21-.96-.44-1.93-.7-2.89-.01-.05-.03-.11-.04-.16-.28-1.04-.58-2.08-.9-3.12-.06-.18-.12-.37-.17-.55-.27-.86-.56-1.72-.86-2.58-.07-.21-.14-.41-.22-.62-.74-2.04-1.56-4.07-2.46-6.08-.09-.2-.18-.41-.28-.61-.4-.88-.82-1.76-1.25-2.63-.06-.13-.12-.25-.18-.38-.51-1.01-1.03-2.02-1.57-3.01-.05-.09-.1-.17-.14-.25-.49-.9-1-1.78-1.52-2.66-.1-.17-.2-.34-.31-.51-1.16-1.93-2.39-3.83-3.68-5.66-.08-.12-.17-.24-.25-.36-.58-.82-1.18-1.64-1.79-2.44-.08-.11-.17-.22-.25-.33-.69-.9-1.4-1.79-2.12-2.65L93.26,296.34s17.91,24.99,17.91,51.52c0,11.39-4.68,20.87-10.8,25.2l-.71-2.57L423.53,183.91l2.4,1.62,.99-.57c.64-.37,1.25-.79,1.85-1.24,5.86-4.4,9.46-12.52,9.49-23.65,0-1-.04-2.01-.09-3.03Z" style="fill:#BA68C8; opacity:.3;"></path></g><path d="M91.45,300.03l-24.13,13.94c-20.64-10.3-24.5,13.43-12.16,37.39,4.06,7.88,10.2,14.59,17.86,19.05l.12,.07c10.63,6.15,18.81,7.53,25.78,3.52,6.97-4.02,11.29-12.64,11.3-24.92,.02-16.24-7.53-34.78-18.77-49.05Z" style="fill:#BA68C8;"></path><path d="M98.49,370.48c-8.27,5.79-26.54-2.26-33.96-12.11-3.94-5.23-6.93-11.54-8.95-17.57-2.64-7.87,.67-16.51,7.92-20.56l26.02-14.55s6.56,4.85,11.99,14.13c5.43,9.28,11.02,40.68-3.01,50.65Z" style="fill:#BA68C8;"></path><path d="M98.49,370.48c-8.27,5.79-26.54-2.26-33.96-12.11-3.94-5.23-6.93-11.54-8.95-17.57-2.64-7.87,.67-16.51,7.92-20.56l26.02-14.55s6.56,4.85,11.99,14.13c5.43,9.28,11.02,40.68-3.01,50.65Z" style="opacity:.1;"></path><g><path d="M55.58,340.8c-3.23-8.44,.59-15.3,6.24-19.56-1.04,2.16-2.16,3.18-1.57,9.07,0,0-5.09,2.87-4.67,10.49Z" style="fill:#BA68C8;"></path><path d="M55.58,340.8c-3.23-8.44,.59-15.3,6.24-19.56-1.04,2.16-2.16,3.18-1.57,9.07,0,0-5.09,2.87-4.67,10.49Z" style="fill:#fff; opacity:.1;"></path></g><path d="M53.99,312.55l32.23-18.6c1.91,1.92,3.64,3.96,5.23,6.09l-24.13,13.94c-3.64-1.71-9.07-3.56-13.33-1.42Z" style="fill:#BA68C8;"></path><path d="M53.99,312.55l32.23-18.6c1.91,1.92,3.64,3.96,5.23,6.09l-24.13,13.94c-3.64-1.71-9.07-3.56-13.33-1.42Z" style="opacity:.1;"></path><path d="M76.87,308.45l14.58-8.42c-1.59-2.13-3.32-4.17-5.23-6.09l-18.32,10.57c3.21,.72,6.25,2.08,8.97,3.94Z" style="opacity:.1;"></path><path d="M110.23,349.09c0,5.51-.88,10.29-2.49,14.24l-9.24,7.16c9.8-8.82,10.99-31.11,.15-53.09-11.53-23.37-38.73-43.54-53.04-35.44l8.43-4.86h.32c5.24-.05,11.15,1.64,17.43,5.27,21.25,12.3,38.46,42.17,38.43,66.73Z" style="fill:#BA68C8;"></path><path d="M110.23,349.09c0,5.51-.88,10.29-2.49,14.24l-9.24,7.16c9.8-8.82,10.99-31.11,.15-53.09-11.53-23.37-38.73-43.54-53.04-35.44l8.43-4.86h.32c5.24-.05,11.15,1.64,17.43,5.27,21.25,12.3,38.46,42.17,38.43,66.73Z" style="fill:#fff; opacity:.45;"></path></g></g><path d="M384.09,215.51l-2.79,1.61-.05-.07-104.95,51.68-176.23,110.33c25.74-18.3,9.91-61.65,9.91-61.65-3-8.59-6.78-15.52-10.37-20.84L386.13,130.91c3.67,5.37,7.58,12.41,10.64,21.21,0,0,16.9,46.36-12.68,63.39Z" style="fill:#BA68C8;"></path><path d="M384.09,215.51l-2.79,1.61-.05-.07-104.95,51.68-176.23,110.33c25.74-18.3,9.91-61.65,9.91-61.65-3-8.59-6.78-15.52-10.37-20.84L386.13,130.91c3.67,5.37,7.58,12.41,10.64,21.21,0,0,16.9,46.36-12.68,63.39Z" style="fill:#fff; opacity:.6;"></path><path d="M430.29,192.09l-3.13,1.8-.05-.08-150.82,74.92-173.06,111.67c28.81-20.49,11.1-69.02,11.1-69.02-3.36-9.62-7.59-17.38-11.61-23.33L432.58,97.37c4.11,6.01,8.49,13.9,11.91,23.75,0,0,18.92,51.9-14.2,70.97Z" style="fill:#BA68C8;"></path><path d="M430.29,192.09l-3.13,1.8-.05-.08-150.82,74.92-173.06,111.67c28.81-20.49,11.1-69.02,11.1-69.02-3.36-9.62-7.59-17.38-11.61-23.33L432.58,97.37c4.11,6.01,8.49,13.9,11.91,23.75,0,0,18.92,51.9-14.2,70.97Z" style="fill:#fff; opacity:.7;"></path><path d="M436.71,190.75l-3.13,1.8-.05-.08s-114.29,56.16-146.24,74.59c-31.94,18.44-177.64,111.99-177.64,111.99,28.81-20.49,11.1-69.02,11.1-69.02-4.82-13.82-11.46-23.79-16.63-30.08L433.94,89.3c5.22,6.28,12.06,16.38,16.97,30.48,0,0,18.92,51.9-14.2,70.97Z" style="fill:#BA68C8;"></path><path d="M436.71,190.75l-3.13,1.8-.05-.08s-114.29,56.16-146.24,74.59c-31.94,18.44-177.64,111.99-177.64,111.99,28.81-20.49,11.1-69.02,11.1-69.02-4.82-13.82-11.46-23.79-16.63-30.08L433.94,89.3c5.22,6.28,12.06,16.38,16.97,30.48,0,0,18.92,51.9-14.2,70.97Z" style="fill:#fff; opacity:.8;"></path><g><path d="M168.38,261.91c1.36,2.11,2,3.21,3.18,5.49-1.53,1.39-2.3,2.09-3.83,3.48,7.68,15.73,8.77,31.56,8.66,48.74-3.23,1.87-4.85,2.8-8.08,4.67-4.65-12.02-12.44-20.76-21.1-29.97-.06,.05-.09,.08-.15,.13,3.85,11.2,4.92,17.6,5.03,30.65,1.74-.5,2.61-.74,4.34-1.24-.01,2.96-.07,4.45-.28,7.45-6.7,3.87-10.05,5.8-16.75,9.67,.21-3,.27-4.49,.28-7.45,1.72-1.5,2.58-2.25,4.3-3.75-.08-13.77-2.85-27.62-8.94-40.02-1.92,.6-2.88,.9-4.81,1.51-1.19-2.29-1.82-3.39-3.18-5.49,1.72-.99,2.58-1.49,4.31-2.49,3.24-1.87,4.87-2.81,8.11-4.68,11.99,8.12,19.18,14.61,28.27,25.83l.16-.14c-1.46-12.57-3.17-18.58-8.25-28.75-1.93,.61-2.9,.91-4.83,1.52-1.19-2.29-1.82-3.39-3.18-5.49,4.97-2.87,7.45-4.3,12.42-7.17,1.73-1,2.6-1.5,4.33-2.5Z" style="fill:#263238;"></path><path d="M208.06,274.02c-5.48,3.16-8.22,4.74-13.7,7.91,1.21,6.56,1.56,10.01,1.66,17,5.22-3.02,7.83-4.52,13.06-7.54,.1-3.01,.1-4.5,0-7.45,2.47-1.42,3.7-2.14,6.17-3.56,.55,6.55,.58,9.94,.09,16.76-10.67,6.16-21.33,12.32-32,18.48,.21-3,.27-4.49,.28-7.45,1.72-1.5,2.58-2.25,4.3-3.75-.08-13.77-2.85-27.62-8.94-40.02-1.92,.6-2.88,.9-4.81,1.51-1.19-2.29-1.82-3.39-3.18-5.49,1.72-.99,2.58-1.49,4.31-2.49,11.06-6.38,16.58-9.58,27.64-15.96,3.08,4.78,4.41,7.42,6.58,13.06-2.49,1.44-3.73,2.16-6.22,3.59-1.09-2.37-1.68-3.53-2.95-5.75-5.18,2.99-7.77,4.48-12.95,7.47,2.36,4.85,3.35,7.47,4.93,12.94,5.48-3.16,8.22-4.74,13.7-7.91,.97,3.37,1.37,5.1,2.03,8.65Z" style="fill:#263238;"></path><path d="M262.91,214.66c-1.23,.96-1.85,1.45-3.08,2.41,5.14,17.74,3.53,36.03,.72,53.97-3.01,1.74-4.52,2.61-7.53,4.35-2.42-12.31-4.98-23.71-11.95-34.43-.07,.04-.1,.06-.17,.1,1.51,14.36,.33,28.95-2.89,43-3.01,1.74-4.52,2.61-7.53,4.35-2.69-16.46-6.59-31.09-17.16-44.47-1.42,.57-2.13,.85-3.56,1.42-1.19-2.29-1.82-3.39-3.18-5.49,5.96-3.44,8.93-5.16,14.89-8.6,1.36,2.11,2,3.21,3.18,5.49-1.32,1.15-1.99,1.73-3.31,2.88,7.13,9.39,9.81,15.09,13.08,27.03l.17-.06c1-13.55-.13-27.43-4.43-40.38,2.39-1.38,3.58-2.07,5.97-3.45,9.39,10.71,14.11,18.45,19.66,31.59l.16-.14c.52-10.42-.74-22.36-3.83-32.37-1.63,.55-2.45,.83-4.08,1.38-1.19-2.29-1.82-3.39-3.18-5.49,5.94-3.43,8.92-5.15,14.86-8.58,1.36,2.11,2,3.21,3.18,5.49Z" style="fill:#263238;"></path><path d="M300.29,205.46c-2.43,1.41-3.65,2.11-6.08,3.51-1.43-2.64-2.21-3.92-3.88-6.37-.95-.13-2.2,0-3.75,.38-1.55,.38-3.08,1.02-4.6,1.89-2.22,1.28-3.66,2.82-4.34,4.65-.68,1.83-.63,3.66,.1,5.53,.68,1.73,1.82,2.83,3.47,3.26,1.65,.42,4.31,.47,7.7-.07,4.84-.77,8.89-.61,11.77,.93,2.88,1.54,4.67,4.72,5.05,9.64,.4,5.14-1.01,10.11-3.87,14.76-2.86,4.65-6.62,8.28-11.1,10.87-3.2,1.85-6.03,2.73-8.52,2.66-2.49-.08-4.55-1-6.27-2.73,0-5.14-.16-7.67-.76-12.6,2.51-1.45,3.77-2.17,6.28-3.62,.75,3.16,1.06,4.77,1.54,8.03,.85,.53,1.98,.73,3.39,.58,1.41-.15,2.97-.72,4.69-1.71,2.22-1.28,3.91-2.95,5.04-4.99,1.12-2.04,1.63-4.2,1.46-6.45-.18-2.31-.94-3.82-2.23-4.56-1.28-.74-3.44-.92-6.38-.5-5.1,.74-9.23,.55-12.35-.64-3.12-1.2-5.35-4.02-7-8.21-1.63-4.15-1.87-8.09-.44-12.05,1.43-3.95,4.15-7.13,8.3-9.57,3.07-1.81,6.28-2.93,9.48-3.38,3.2-.44,6.18-.28,8.88,.55,2.02,3.86,2.91,5.91,4.41,10.21Z" style="fill:#263238;"></path></g><path d="M305.8,184.99l132.46-72.77s3.83,8.18,5.26,13.27l-132.61,71.97c-1.37-4.41-3.1-8.54-5.11-12.47Z" style="fill:#BA68C8;"></path><polygon points="312.71 203.01 445.2 131.18 446.47 134.73 313.84 207 312.71 203.01" style="fill:#BA68C8;"></polygon><g><line x1="446.47" y1="148.69" x2="343.01" y2="204.69" style="fill:none; stroke:#455a64; stroke-linecap:round; stroke-miterlimit:10; stroke-width:2px;"></line><line x1="446.47" y1="159.09" x2="345.62" y2="213.67" style="fill:none; stroke:#455a64; stroke-linecap:round; stroke-miterlimit:10; stroke-width:2px;"></line><line x1="444.72" y1="169.84" x2="347.24" y2="222.6" style="fill:none; stroke:#455a64; stroke-linecap:round; stroke-miterlimit:10; stroke-width:2px;"></line></g><path d="M450.91,119.78c-2.54-7.3-5.6-13.52-8.69-18.7-.24,5.67-.93,11.33-2.07,16.89-3.98,19.42-12.58,32.21-25.91,46.52-12.61,13.55-26.6,25.76-41.22,37.08-29.41,22.76-61.36,41.91-92.58,62.01-34.71,22.35-68.53,46.08-101.35,71.12,42.25-26.89,91.25-57.84,108.21-67.62,31.94-18.44,146.24-74.59,146.24-74.59l.05,.08,3.13-1.8c33.12-19.07,14.2-70.97,14.2-70.97Z" style="fill:#BA68C8; opacity:.2;"></path><path d="M98.64,317.39c8.35,16.92,9.55,34.02,5.2,45.03l-8.62,6.25c10.93-9.22,7.97-33.74-2.56-53.74-10.52-19.99-35.86-35.77-45.57-30.64l7.16-4.1c14.79,.92,34.9,17.96,44.39,37.2Z" style="fill:#BA68C8;"></path><path d="M98.64,317.39c8.35,16.92,9.55,34.02,5.2,45.03l-8.62,6.25c10.93-9.22,7.97-33.74-2.56-53.74-10.52-19.99-35.86-35.77-45.57-30.64l7.16-4.1c14.79,.92,34.9,17.96,44.39,37.2Z" style="fill:#fff; opacity:.35;"></path><path d="M95.22,368.67c-5.41,1.48-21.8-3.4-29.2-15.31-.65-1.04-1.24-2.07-1.78-3.09,3.17-10.92,5-17.22,8.18-28.14l18.38-10.47c.66,1.07,1.29,2.17,1.87,3.26,10.53,20,13.49,44.52,2.56,53.74Z" style="fill:#BA68C8;"></path><path d="M95.22,368.67c-5.41,1.48-21.8-3.4-29.2-15.31-.65-1.04-1.24-2.07-1.78-3.09,3.17-10.92,5-17.22,8.18-28.14l18.38-10.47c.66,1.07,1.29,2.17,1.87,3.26,10.53,20,13.49,44.52,2.56,53.74Z" style="opacity:.2;"></path><path d="M64.23,350.27c.43-7.43,9.51-13.48,16.83-14.54,0,0-1.42-5.88-6.45-9.85,0,0-10.41,10.94-10.38,24.39Z" style="opacity:.2;"></path><path d="M64.23,350.27c-1.91-10.59,2.56-24.94,8.18-28.14,6.77,1.65,10.76,8.23,10.76,8.23,0,0-15.27,2.78-18.94,19.91Z" style="fill:#BA68C8;"></path><path d="M64.23,350.27c-1.91-10.59,2.56-24.94,8.18-28.14,6.77,1.65,10.76,8.23,10.76,8.23,0,0-15.27,2.78-18.94,19.91Z" style="fill:#fff; opacity:.05;"></path><path d="M94.66,368.77c.18-.03,.39-.05,.55-.1,10.93-9.22,7.97-33.74-2.56-53.74-.58-1.1-1.2-2.19-1.87-3.26l-8.2,4.67c.57,.67,1.12,1.37,1.65,2.07,4.17,5.5,8.01,11.28,10.83,17.58,2.81,6.3,4.57,13.14,4.44,20.04-.08,4.47-1.12,9.23-4.35,12.33-.16,.15-.34,.28-.5,.42Z" style="opacity:.2;"></path></g></g></svg>
