<svg xmlns="http://www.w3.org/2000/svg" viewBox="0 0 500 500"><g id="background-complete"><g id="background-complete--inject-3"><rect y="382.4" width="500" height="0.25" style="fill:#e0e0e0"></rect><rect x="101.17" y="392.99" width="34.4" height="0.25" style="fill:#e0e0e0"></rect><rect x="74.48" y="393.11" width="19.36" height="0.25" style="fill:#e0e0e0"></rect><rect x="175" y="392.53" width="39.24" height="0.25" style="fill:#e0e0e0"></rect><rect x="198.78" y="388.97" width="115.78" height="0.25" style="fill:#e0e0e0"></rect><rect x="360.68" y="389.1" width="52.99" height="0.25" style="fill:#e0e0e0"></rect><path d="M237,337.8H43.91a5.71,5.71,0,0,1-5.7-5.71V60.66A5.71,5.71,0,0,1,43.91,55H237a5.71,5.71,0,0,1,5.71,5.71h0V332.09A5.71,5.71,0,0,1,237,337.8ZM43.91,55.2a5.46,5.46,0,0,0-5.45,5.46V332.09a5.46,5.46,0,0,0,5.45,5.46H237a5.48,5.48,0,0,0,5.46-5.46V60.66A5.48,5.48,0,0,0,237,55.2Z" style="fill:#e0e0e0"></path><path d="M453.31,337.8H260.21a5.73,5.73,0,0,1-5.71-5.71V60.66A5.72,5.72,0,0,1,260.21,55h193.1A5.71,5.71,0,0,1,459,60.66V332.09A5.7,5.7,0,0,1,453.31,337.8ZM260.21,55.2a5.48,5.48,0,0,0-5.46,5.46V332.09a5.48,5.48,0,0,0,5.46,5.46h193.1a5.48,5.48,0,0,0,5.46-5.46V60.66a5.48,5.48,0,0,0-5.46-5.46Z" style="fill:#e0e0e0"></path></g><path d="M353.83,156.08h88.74s-2.46-9.25-12-6.37c0,0,0-15.36-6.69-18.22s-17.26,8.31-17.26,8.31-4.22-17-14.43-14.79-18.31,22.93-18.31,22.93S363,143.38,353.83,156.08Z" style="fill:#f5f5f5"></path><path d="M233.12,237H346s-3.13-11.77-15.22-8.11c0,0,0-19.53-8.51-23.16s-21.95,10.56-21.95,10.56-5.37-21.63-18.36-18.81-23.28,29.16-23.28,29.16S244.76,220.87,233.12,237Z" style="fill:#f5f5f5"></path><path d="M156.81,111.38H57.33s2.76-8.17,13.42-5.63c0,0,0-13.55,7.5-16.07S97.59,97,97.59,97,102.33,82,113.78,84s20.52,20.23,20.52,20.23S146.54,100.17,156.81,111.38Z" style="fill:#f5f5f5"></path><path d="M464.86,382.85S376.56,272.72,354,272.71c-34.15,0-118.46,109.69-118.46,109.69Z" style="fill:#e6e6e6"></path><path d="M225.53,382.85s-69.76-110.13-87.62-110.14c-27,0-93.59,109.69-93.59,109.69Z" style="fill:#f0f0f0"></path><path d="M371.35,382.85s-88.29-59.53-110.9-59.54c-34.16,0-118.46,59.3-118.46,59.3Z" style="fill:#e0e0e0"></path><circle cx="382.39" cy="88.69" r="23.99" style="fill:#407BFF"></circle><circle cx="382.39" cy="88.69" r="23.99" style="fill:#fff;opacity:0.7000000000000001"></circle></g><g id="background-simple"><path d="M120.07,318.81C93.12,303,70.7,281,62,249c-10.27-37.57.82-79.27,29.37-105.41,23-21.08,54.38-25.26,84.18-29.92C210.94,108.11,243.18,92.2,274.2,75,317.61,50.81,374.86,56.76,410.51,93c44.76,45.56,35.14,123.21,10.56,176.38-45.66,98.76-179,100.18-267.21,65.56A240.21,240.21,0,0,1,120.07,318.81Z" style="fill:#407BFF"></path><path d="M120.07,318.81C93.12,303,70.7,281,62,249c-10.27-37.57.82-79.27,29.37-105.41,23-21.08,54.38-25.26,84.18-29.92C210.94,108.11,243.18,92.2,274.2,75,317.61,50.81,374.86,56.76,410.51,93c44.76,45.56,35.14,123.21,10.56,176.38-45.66,98.76-179,100.18-267.21,65.56A240.21,240.21,0,0,1,120.07,318.81Z" style="fill:#fff;opacity:0.9"></path></g><g id="Shadow"><g id="shape"><ellipse cx="250" cy="416.24" rx="193.89" ry="11.32" style="fill:#f5f5f5"></ellipse></g></g><g id="Lamp"><path d="M381.94,406a29.32,29.32,0,0,1-8.18,2.38,23.44,23.44,0,0,1-16-3c-8-5-13.08-14.55-17.15-22.73-1.88-3.79-3.3-7.78-5.3-11.5a72.81,72.81,0,0,0-6.76-10.21c-.93-1.18-1.87-2.33-2.82-3.49a11.54,11.54,0,0,1,5-.15c4.79,2.94,18.14,20.67,23.05,22.8a18,18,0,0,0,4.76,1.11,98,98,0,0,0,13.53.49l.79,0a8,8,0,0,1,.76,1c1.73,2.51,3.39,6.68,4.75,10.82C380.5,399.77,381.94,406,381.94,406Z" style="fill:#407BFF"></path><path d="M353.9,414c-9.4-5.55-10.43-10.46-9.56-11.39s3.76.39,3.76.39a9.54,9.54,0,0,1,5.3-1.18c.59,0,1,.07,1,.07s8.12,3.37,9.12,4.51a3.59,3.59,0,0,1,.6,1.57,28,28,0,0,1,.33,4.65s2.62,1.91,2.62,3.13S363.3,419.58,353.9,414Z" style="fill:#407BFF"></path><path d="M377.13,381a7.9,7.9,0,0,1-3.49,1.6,10.26,10.26,0,0,1-1.16.21,7.75,7.75,0,0,1-.39-1.21,7.4,7.4,0,0,1,.33-5.28c1.54-2.82,5.44-5.34,6.58-4.78S378.78,379.55,377.13,381Z" style="fill:#407BFF"></path><path d="M391.87,394.07c-4.55-1.08-11.34,10.32-11.34,10.32s-3.31,2.68,1.4,1.59,20.75,5.18,23.94-.49S396.43,395.14,391.87,394.07Zm-9.48,10.32s6-9,9.25-8,11.91,5.07,11,7.92S384.68,403.61,382.39,404.39Z" style="fill:#407BFF"></path><path d="M364.43,412.65a26.94,26.94,0,0,1-8.36-3.32,36.06,36.06,0,0,1-8-6.3,9.54,9.54,0,0,1,5.3-1.18c1.33.94,7,4.88,10.65,6.13l.05,0A28,28,0,0,1,364.43,412.65Z" style="opacity:0.2"></path><path d="M378.39,393.46c-10.57-2.35-17.3-9.49-19.83-12.31a98,98,0,0,0,13.53.49,7.4,7.4,0,0,1,.33-5.28c1.54-2.82,5.44-5.34,6.58-4.78s-.22,8-1.87,9.46a7.9,7.9,0,0,1-3.49,1.6C375.37,385.15,377,389.32,378.39,393.46Z" style="opacity:0.2"></path></g><g id="Character"><path d="M133.55,166.71c-5.59,12.42-4.57,27.46,2.07,39.35a57.28,57.28,0,0,1,11.71-.15c1.1.1,4.27-5.95,5-6.87a16.62,16.62,0,0,1,12.51-6.56c2.56,0,5.13.51,7.66.16,5.38-.76,8.06-5.27,10.09-9.8,3.51-7.82,4-16.67,5.24-25.05.35-2.44.46-5-.63-7.25-2-4.11-7.2-5.3-11.72-6-9.41-1.51-16.75-1-25.26,3.9A40.36,40.36,0,0,0,133.55,166.71Z" style="fill:#e0e0e0"></path><path d="M185.23,115.83c-4.39.13-8.91.13-13,1.77a20.63,20.63,0,0,0-7.79,5.74,24.71,24.71,0,0,0-5.7,20.53c.6,3,2,6.12,4.57,7.79a15.49,15.49,0,0,0,4.19,1.64c4.49,1.26,9,2.54,13.71,2.65,6.44.15,12.7-1.91,18.81-3.95,4.25-1.42,8.57-2.87,12.21-5.47,6.57-4.68,10.15-12.48,12.55-20.19a23.06,23.06,0,0,0,1.39-8.4c-.52-7.17-9.78-16.57-17.46-13.69-3.62,1.35-5.83,5.3-8.74,7.62C195.78,115.23,190.43,115.69,185.23,115.83Z" style="fill:#e0e0e0"></path><path d="M203.15,111.56S191.54,94.62,203,89.2c0,0-1.21-13.57,7.1-13.18s17.86-1.7,28-.55c16.08,1.84,12.78,19.52,1.31,23.6s-25.62,21.74-25.62,21.74Z" style="fill:#e0e0e0"></path><path d="M259,265.32c-19.63,21.48-85.46,17.82-91.92-24.89a139.28,139.28,0,0,1-.14-40.92,134.65,134.65,0,0,1,3.17-15.46,94.44,94.44,0,0,1,6-16.69s13.83-23.29,31.12-31.3l26.92,4.66s28.38,12.67,31.82,32.84a117.25,117.25,0,0,1,.69,36S278.61,243.85,259,265.32Z" style="fill:#e4897b"></path><path d="M215.32,185.64c-.17,1-.87,1.77-1.55,1.65s-1.1-1-.92-2.07.88-1.77,1.56-1.65S215.5,184.62,215.32,185.64Z" style="fill:#de5753"></path><path d="M247.33,245.12c-.27,1-1,1.68-1.7,1.5s-1-1.15-.72-2.15,1-1.68,1.71-1.5S247.61,244.12,247.33,245.12Z" style="fill:#de5753"></path><path d="M337.6,179.75l-10.72,9.12s-19.43,26.74-34.53,28c-6.61.55-14.37-2.9-21-7-1.05-.64-2.06-1.3-3.05-2a107.71,107.71,0,0,1-12.13-9.47l-11.7-52.18c.46.32,15,10.68,22.45,21.54,7.54,11,21,21.89,25.26,23.41,0,0,13.66-4.58,20.61-9.39l5.13-9.31,15.39-4.87Z" style="fill:#e4897b"></path><path d="M207.18,136.06s-19.9,5-30.11,12.69-25.88,14.89-30.2,14.94c0,0-10.92-8.34-15.72-14.82l-1.76-10L117,129.73l-7.58,9.58,6.88,11.55s9.3,30.13,22.56,35.92,38.33-5.46,38.33-5.46Z" style="fill:#e4897b"></path><path d="M260.6,189.66c-.18,1-.88,1.76-1.56,1.65s-1.09-1.05-.91-2.08.87-1.76,1.56-1.64S260.78,188.63,260.6,189.66Z" style="fill:#de5753"></path><path d="M234.4,153.54c-7.22,2.78-23-8.69-28.36-15-.44-.51,2.71-6.79,2-16.79,0,0-9.69-2.3-10.59-8.27-.64-4.26,2.91-6.56,9.35-4a24,24,0,0,1,1-17.58c4.28-8.9,18.09-9.65,25.59-6.33s12,20,10.11,33.61-10.69,17.67-10.69,17.67l-.34,3.56-.23,2.47S241.61,150.75,234.4,153.54Z" style="fill:#e4897b"></path><path d="M232.9,105l-.18,11.5s2.05,1.23,5.53-.59Z" style="fill:#de5753"></path><path d="M227.46,108.19c0,.86-.35,1.59-.9,1.62s-1-.63-1.09-1.49.34-1.59.89-1.63S227.4,107.33,227.46,108.19Z" style="fill:#263238"></path><path d="M238.48,107.53c.05.86-.35,1.59-.9,1.63s-1-.64-1.1-1.5.35-1.59.9-1.62S238.42,106.67,238.48,107.53Z" style="fill:#263238"></path><path d="M227.61,118.71s3,2.8,6.75,1.73" style="fill:none;stroke:#263238;stroke-linecap:round;stroke-linejoin:round;stroke-width:0.5px"></path><path d="M220,103.6s-.09-2.64,3.33-3.7" style="fill:none;stroke:#263238;stroke-linecap:round;stroke-linejoin:round"></path><path d="M234.65,99.11a4.34,4.34,0,0,1,5.53,1.51" style="fill:none;stroke:#263238;stroke-linecap:round;stroke-linejoin:round"></path><path d="M232.46,140.44a26.33,26.33,0,0,1-14.21-4.5,30.56,30.56,0,0,0,14.55.94Z" style="opacity:0.2"></path><path d="M224.84,109.13a4.56,4.56,0,0,1-1.81,1.28,4.67,4.67,0,0,1-2.19.35,4.37,4.37,0,0,1,1.81-1.28A4.43,4.43,0,0,1,224.84,109.13Z" style="fill:#de5753"></path><path d="M220.52,108a3.49,3.49,0,0,1,1.86-.44,3.43,3.43,0,0,1,1.84.56,3.67,3.67,0,0,1-3.7-.12Z" style="fill:#de5753"></path><path d="M238.89,106.79a3.16,3.16,0,0,1,3.08-1.44,2.9,2.9,0,0,1-1.33,1.17A3,3,0,0,1,238.89,106.79Z" style="fill:#de5753"></path><path d="M239.34,107.89a3.11,3.11,0,0,1,3.35.49,2.89,2.89,0,0,1-1.75.25A3,3,0,0,1,239.34,107.89Z" style="fill:#de5753"></path><path d="M270,208c-1-.62-2-1.25-2.9-1.87,0,0,1.47-18.23-3.34-34.25C264.24,173,272.15,191.68,270,208Z" style="opacity:0.2"></path><path d="M178.4,181.16l-11.47,18.35a134.65,134.65,0,0,1,3.17-15.46h0Z" style="opacity:0.2"></path><path d="M206.78,109.51S216,104,213.94,89.77c0,0,17.54,10.15,24.15-3.2a43.58,43.58,0,0,0-16-4.58,22.48,22.48,0,0,0-14.52,4l-5.81,15.4Z" style="fill:#e0e0e0"></path><path d="M134.54,206.77s-4.92-.86-4.32-6.47,18.27-6.12,21.51,2.88-8.06,11.74-8.06,11.74Z" style="fill:#407BFF"></path><path d="M152.75,210.75c-2.76-5.37-7.93-10.87-14.51-10.12-7.54.87-11.87,9.26-16.67,14.27-5.18,5.42-16.1,13.26-23,5.74-2.42-2.65-2.63-7.29.07-9.67-6.49,3.75-9,12.38-7,19.59,0,0,3.87,20.35,28.48,24.27,19.83,3.16,35.95-14.48,35.42-33.7A25,25,0,0,0,152.75,210.75Z" style="fill:#e0e0e0"></path><path d="M359.1,314.09c.89-6.73.68-14-3.2-19.51-6.16-8.81-18.26-11-29-10.78A111.54,111.54,0,0,0,298.24,288c-9.63,2.74-19.83,6.24-28.19-1.58-10-9.34-5.2-25.5-2.16-36.9-.72,2.38-9.17,27.73-45.72,27.44-38.34-.29-55.41-38.49-55.41-38.49a208.34,208.34,0,0,0,1.31,30c1.92,16.55,6.07,33.36,16,46.73C195.46,330.53,214,340,233,341.61s38.36-4.4,54-15.39c7.9-5.57,14.9-12.36,23-17.7s17.65-9.25,27.24-8c3.14.41,6.33,1.43,8.56,3.68,4.83,4.85,3.35,13,.94,19.37a23.27,23.27,0,0,1-6.6,9.44c-3.25,2.77-7.41,3.95-10.68,6.69a15.45,15.45,0,0,0-4.42,5.6c-2.86,6.68,3,13,3,13l2.55-.66a9.74,9.74,0,0,1-1.51-3,11.1,11.1,0,0,1,1.16-9.36.57.57,0,0,1,.08-.13c2.33-3.41,5.82-5.73,9.47-7.55,4.8-2.4,9.71-4.64,13.3-8.76S358.39,319.46,359.1,314.09Z" style="fill:#407BFF"></path><path d="M357.58,329a27.26,27.26,0,0,1-7.25,6.89" style="fill:none;stroke:#407BFF;stroke-linecap:round;stroke-linejoin:round"></path><path d="M362,297.41s3.83,13.65-1.3,25.9" style="fill:none;stroke:#407BFF;stroke-linecap:round;stroke-linejoin:round"></path><path d="M228.58,346q4.46.72,9.35,1.07" style="fill:none;stroke:#407BFF;stroke-linecap:round;stroke-linejoin:round"></path><path d="M172.35,306.86s10.86,27.26,46.53,37.06" style="fill:none;stroke:#407BFF;stroke-linecap:round;stroke-linejoin:round"></path><path d="M359.1,314.09c.89-6.73.68-14-3.2-19.51-6.16-8.81-18.26-11-29-10.78A111.54,111.54,0,0,0,298.24,288c-9.63,2.74-19.83,6.24-28.19-1.58-10-9.34-5.2-25.5-2.16-36.9-.72,2.38-9.17,27.73-45.72,27.44-38.34-.29-55.41-38.49-55.41-38.49a208.34,208.34,0,0,0,1.31,30c1.92,16.55,6.07,33.36,16,46.73C195.46,330.53,214,340,233,341.61s38.36-4.4,54-15.39c7.9-5.57,14.9-12.36,23-17.7s17.65-9.25,27.24-8c3.14.41,6.33,1.43,8.56,3.68,4.83,4.85,3.35,13,.94,19.37a23.27,23.27,0,0,1-6.6,9.44c-3.25,2.77-7.41,3.95-10.68,6.69a15.45,15.45,0,0,0-4.42,5.6c-2.86,6.68,3,13,3,13l2.55-.66a9.74,9.74,0,0,1-1.51-3,11.1,11.1,0,0,1,1.16-9.36.57.57,0,0,1,.08-.13c2.33-3.41,5.82-5.73,9.47-7.55,4.8-2.4,9.71-4.64,13.3-8.76S358.39,319.46,359.1,314.09Z" style="opacity:0.2"></path><polygon points="282.66 134.7 285.17 130.38 283.03 125.87 287.91 126.92 291.54 123.49 292.05 128.46 296.43 130.85 291.87 132.87 290.94 137.78 287.61 134.06 282.66 134.7" style="fill:#407BFF"></polygon><polygon points="308.86 154.81 309.09 151.55 306.55 149.51 309.72 148.73 310.87 145.67 312.6 148.45 315.86 148.6 313.75 151.1 314.61 154.25 311.59 153.01 308.86 154.81" style="fill:none;stroke:#407BFF;stroke-miterlimit:10"></polygon><polygon points="90.6 314.36 89.27 304.76 80.61 300.42 89.33 296.19 90.79 286.61 97.5 293.59 107.07 292.02 102.5 300.56 106.95 309.17 97.41 307.47 90.6 314.36" style="fill:#407BFF"></polygon><polygon points="130.77 289.2 128.95 286.49 125.69 286.44 127.71 283.88 126.74 280.76 129.8 281.88 132.47 280 132.34 283.26 134.96 285.22 131.82 286.11 130.77 289.2" style="fill:#407BFF"></polygon><path d="M90,166.07a2.11,2.11,0,1,1-2.1-2.1A2.1,2.1,0,0,1,90,166.07Z" style="fill:#407BFF"></path><circle cx="138.36" cy="125.59" r="2.1" style="fill:#407BFF"></circle><path d="M89.31,135.94a.73.73,0,1,1-1.45,0,.73.73,0,1,1,1.45,0Z" style="fill:#407BFF"></path><path d="M72.9,154a.73.73,0,1,1-.73-.73A.73.73,0,0,1,72.9,154Z" style="fill:#407BFF"></path><path d="M110.13,185.43a.73.73,0,1,1-.73-.73A.73.73,0,0,1,110.13,185.43Z" style="fill:#407BFF"></path><path d="M308.2,117.13a2.11,2.11,0,1,1-2.11-2.1A2.1,2.1,0,0,1,308.2,117.13Z" style="fill:#407BFF"></path><path d="M304.72,89.42a.73.73,0,1,1-.73-.73A.73.73,0,0,1,304.72,89.42Z" style="fill:#407BFF"></path><path d="M303.71,251.14a2.1,2.1,0,1,1-.76-2.87A2.12,2.12,0,0,1,303.71,251.14Z" style="fill:#407BFF"></path><path d="M314.64,225.44a.74.74,0,0,1-1,.26.73.73,0,0,1,.74-1.26A.74.74,0,0,1,314.64,225.44Z" style="fill:#407BFF"></path><path d="M283.39,111a.73.73,0,1,1-.73-.73A.73.73,0,0,1,283.39,111Z" style="fill:#407BFF"></path></g></svg>